<svg id="Capa_1" data-name="Capa 1" xmlns="http://www.w3.org/2000/svg" viewBox="0 0 400 400"><defs><style>.cls-1{fill:#606060;}.cls-2{fill:#7fb9eb;}.cls-3{fill:#5c9bd1;}.cls-4{fill:#28679e;}.cls-5{fill:#225786;}.cls-6{fill:#2e78b8;}</style></defs><title>mapa</title><path class="cls-1" d="M308.83,64.62l0,.48c0,.11,0,.22,0,.33a3.15,3.15,0,0,1-.59,1.87,1,1,0,0,1-.54.34,1.52,1.52,0,0,1-1.21-1c-.19-.67-.82-1.23-.54-2Z"/><path class="cls-1" d="M330.37,199.67a3.33,3.33,0,0,0-.68-3.34,2.41,2.41,0,0,0-1.83-.31,5.74,5.74,0,0,0-1,.31c-1.49,1.06-1.68-.47-2.3-1.14a7,7,0,0,0-2.94-.81c-2.28-.52-.85-1.95-.76-3.06,1.32-3.72,1.19-7.68,2-11.48a24.67,24.67,0,0,1,.59-2.84c.47-1.84.74-3.71,1.16-5.56a3.93,3.93,0,0,1,.87-2.1,4.14,4.14,0,0,0,.61-1.18,26.48,26.48,0,0,1,.86-2.83,11.27,11.27,0,0,0,.29-1.28c.41-1,.12-2.15.78-3.07l.67-.09a1.67,1.67,0,0,0-1.14-1.52,1.78,1.78,0,0,0-1.28.33,1.23,1.23,0,0,0-.4.53c-.22,1.76-.85,3.42-1.21,5.14a6.27,6.27,0,0,1-1.32,3.39c-.44,1.46-.78,3-1.12,4.43a8.51,8.51,0,0,1-.33,1.67,18,18,0,0,0-.61,2.26q-.06.49-.09,1a8,8,0,0,1-.28,1.27,19.24,19.24,0,0,1-.49,2.28,4.07,4.07,0,0,0-.13.68c-.08.7-.07,1.41-.08,2.12a12.91,12.91,0,0,1-.72,3.74,7.35,7.35,0,0,0-.2,1,24.15,24.15,0,0,1-.71,3.25c-.22.55-.15,1.33-1.07,1.33-1-.28-2.13-.24-3.16-.55a5,5,0,0,0-.67-.14,3.13,3.13,0,0,0-1.79.17,1.3,1.3,0,0,0-.51.53c-.49,1.14-.08,2.44-.59,3.58-.24,1.15-1,1.37-2.09,1.38-2.2,0-4.34-.57-6.53-.59a6.92,6.92,0,0,1-1.85-.33c-3.49-.33-7-.62-10.48-1.07a19.19,19.19,0,0,1-4.27-.46c-.49,0-1,0-1.48,0a5.9,5.9,0,0,1-2.05-.22,17.2,17.2,0,0,0-2.36-.34,1.1,1.1,0,0,0-.62.25l.15.93a1.28,1.28,0,0,0,1.15.93c1-.06,2-.19,3.06-.33l13,1.41c1.83,1.27,4,1.09,6,1.07,3,0,5.9,1.56,9,.69a1,1,0,0,0,.54-.57,20.51,20.51,0,0,0,.6-2c.47-1.27.1-3.14,2.1-3.51l3.9.73c1,1.33,2.64-.16,3.75.75.67.29,1.47.3,1.49,1.43,0,2.08,1.34,1.61,2.27.77.65-.59,1.14-1,2-.79.83.94.33,2.25.89,3.26a1,1,0,0,1-.39,1,4.2,4.2,0,0,0-.54,2.64,1.69,1.69,0,0,0,.34.7c-.35,1.47.36,1.75,1.61,1.44a.79.79,0,0,0,0-.86,1.81,1.81,0,0,1,0-1.54C330.21,202.69,330.08,201.16,330.37,199.67Z"/><path class="cls-1" d="M278.67,158.1c.16.35.45.69.45,1,0,6.89-.05,13.78-.08,20.67-.62-3.95-.28-7.93-.33-11.9C278.67,164.64,278.68,161.37,278.67,158.1Z"/><path class="cls-1" d="M341.91,248.71c-.77,3.23.5,6.54-.46,9.77-.17.57.11,1.28-.5,1.74,0-3.15,0-6.3,0-9.45C341,250,340.59,248.94,341.91,248.71Z"/><path class="cls-1" d="M353.41,218c0-2.56,0-5.11,0-7.67,1.06,2.83.2,5.76.47,8.63A1,1,0,0,1,353.41,218Z"/><path class="cls-1" d="M306.44,201.73c1.56-1,3-1.11,4.3.48C309.41,201.16,307.8,202.52,306.44,201.73Z"/><path class="cls-1" d="M297.81,200.3h3.35C300.05,201.92,298.93,200.68,297.81,200.3Z"/><path class="cls-1" d="M338.44,208.35c.48-.12.54.12.53.36a.62.62,0,0,1-.58.63c-.25,0-.53-.05-.42-.35A2.36,2.36,0,0,1,338.44,208.35Z"/><path class="cls-1" d="M347.65,230.41H344.8A2.45,2.45,0,0,1,347.65,230.41Z"/><path class="cls-1" d="M311.83,199.81h.36a2.81,2.81,0,0,1-.95,2.39,3.5,3.5,0,0,1,.46-1.95A.84.84,0,0,1,311.83,199.81Z"/><path class="cls-1" d="M351,230.41h-2.38A1.8,1.8,0,0,1,351,230.41Z"/><path class="cls-1" d="M304.87,201.71c.22.15.56.27.68.51s-.15.39-.37.29a5.47,5.47,0,0,1-.76-.53Z"/><path class="cls-1" d="M341.43,83.8c0,2.71,0,5.43,0,8.14A14.72,14.72,0,0,1,341.43,83.8Z"/><path class="cls-1" d="M301.16,68.45c-.18-.09-.77-.16-.37-.37a1.4,1.4,0,0,1,1.81.37Z"/><path class="cls-1" d="M158.79,215.21a3.93,3.93,0,0,1,1.94-3.82C160.15,212.52,159.58,213.65,158.79,215.21Z"/><path class="cls-1" d="M190.83,224.81c-.79.43-1.44.76-2.2.32-.07,0,0-.5.13-.63C189.47,223.83,190.12,223.94,190.83,224.81Z"/><path class="cls-1" d="M167.74,194.06c-1.47-.67-1.91-1.2-.8-2.36Z"/><path class="cls-1" d="M189.6,208.86c.58.38-.26.68,0,1-.18.3.07.88-.57.87C189.31,210.17,188.05,209.06,189.6,208.86Z"/><path class="cls-1" d="M167,239.11a1.8,1.8,0,0,1,.45-1.89C168.19,238.06,167.39,238.54,167,239.11Z"/><path class="cls-1" d="M228.28,311.43l-3.8-.52C225.86,310.23,227.19,310,228.28,311.43Z"/><path class="cls-1" d="M231.64,310.55h-1.91C230.36,309.59,231,310.05,231.64,310.55Z"/><path class="cls-1" d="M81.32,195c.65-.66.85-1.51,1.77-1.21.12,0,.25.43.18.57C83,195,82.34,195,81.32,195Z"/><path class="cls-1" d="M91,182.76c0,.5-.25.69-.59.67a.6.6,0,0,1-.6-.6c0-.35.2-.65.55-.56S90.84,182.62,91,182.76Z"/><path class="cls-1" d="M17.49,242.83a2.34,2.34,0,0,1,.61,1.8C17.25,244.17,17.32,243.57,17.49,242.83Z"/><path class="cls-1" d="M148.71,184.47V184a3.1,3.1,0,0,1,1.95,1l-.49.43C149.32,185.67,149,185.12,148.71,184.47Z"/><path class="cls-1" d="M385.06,216.11l-.48.48c-.66-.06-1.06-.34-.85-1.07.09-.32.32-.61.67-.53C385,215.12,385,215.63,385.06,216.11Z"/><path class="cls-1" d="M381,220.7c-.35-.78-.61-1.37-1-2.25C381.19,219,381.78,219.5,381,220.7Z"/><path class="cls-1" d="M356.89,249.3c.16.14.45.27.47.42.06.54-.47.67-.78.95-.09-.16-.25-.32-.26-.49A.75.75,0,0,1,356.89,249.3Z"/><path class="cls-1" d="M350.32,258.54c-.13-.11-.38-.22-.43-.38a.51.51,0,0,1,.47-.64.57.57,0,0,1,.47.3C350.91,258.15,350.7,258.39,350.32,258.54Z"/><path class="cls-2" d="M235,311.53a11.38,11.38,0,0,0-6.18-.09h-.5a5.63,5.63,0,0,0-3.8-.52c-1.55.31-2.58,2.6-4.63,1.09a17.8,17.8,0,0,0-3-1.45,3.25,3.25,0,0,0-1.91-1.07.74.74,0,0,0-.22.25,4.2,4.2,0,0,0-.6-.3h-.21c0-1.75-.81-2.64-2.68-2.27a5.14,5.14,0,0,1,0-.78c-1.72-1.27-3.53-.93-5.37-.3a.73.73,0,0,0-.38.62l-.16,0a2.7,2.7,0,0,1-1.79,2.1c-.55.62-1,1.36-1.47,2a8.72,8.72,0,0,0-1.16,1.71l-.08,0A4.39,4.39,0,0,0,198,313c-.52.3-1.2.4-1.45,1h-.31a1.18,1.18,0,0,0-.89,1.6,1.46,1.46,0,0,0,.14.28.36.36,0,0,1-.35-.17l-.89.57c1.33,1,2.86.28,4.28.52a2.72,2.72,0,0,0,3.83.48,2.66,2.66,0,0,0,1.84-.58l2.05-1,2.76,0c.41.08.85.11,1.06.56.31.63-.43,1.4.25,2a3,3,0,0,0,.52.31,1.53,1.53,0,0,1,.56,1.87,4.11,4.11,0,0,0-.27.56c-.53,2,3,2.44,4.21,2,.06.51.61.79,1.11.93a6.83,6.83,0,0,0,3.24.09c0,.56.72.77,1.27.86,2.13.31,4.1,1.1,6.28,1,1-.06,2-.46,3-.06.74.31.24,1.05.54,1.52h.29c-.25-2.63,2.22-4.22,2.53-6.63l.86-.6a4,4,0,0,0,.52-.4c.85-1.15.26-2.52.56-3.75v-.07a.5.5,0,0,0,.44-.06l.38-.52C236.36,313.88,236.73,312.32,235,311.53Z"/><path class="cls-1" d="M125.22,294.25h2.87c-.34.56-.91.46-1.43.47S125.56,294.82,125.22,294.25Z"/><path class="cls-1" d="M142.48,279.41l1.44.95C143.15,280.48,142.25,280.79,142.48,279.41Z"/><path class="cls-1" d="M136,280.91c-.27-.46-.32-1.15.13-1.2.68-.06.09.54.14.83C136.24,280.64,136.06,280.78,136,280.91Z"/><path class="cls-1" d="M134.4,281.3v-1c.33-.06.51-.84.75-.43C135.52,280.52,134.93,281,134.4,281.3Z"/><path class="cls-1" d="M190.9,212.76c-1.24,1.17-.11,3.39-1.92,4.31.12-.45.48-1,.31-1.33C188.15,213.79,189.67,213.37,190.9,212.76Z"/><path class="cls-1" d="M213.43,224.65l-1.9.17c.45-.53.79-1.22,1.59-1.22C213.22,223.6,213.32,224.28,213.43,224.65Z"/><path class="cls-1" d="M149.67,320.14v.48c.09.35.45.71,0,1-.08,0-.36,0-.38-.06A1.15,1.15,0,0,1,149.67,320.14Z"/><path class="cls-1" d="M244.58,230l.39.48c-.25.9-1,1.38-1.61,2a.52.52,0,0,1-.68-.08Z"/><path class="cls-1" d="M166.6,323.85c-.15-.22-.41-.44-.46-.71s.25-.34.43-.17a3.9,3.9,0,0,1,.53.73Z"/><path class="cls-1" d="M289.65,80c0-.32-.53-.64,0-1l1-.48C291.14,79.56,290.6,79.89,289.65,80Z"/><path class="cls-1" d="M283.36,94.67a.63.63,0,0,1-.63.57c-.24,0-.54-.09-.37-.4a1.37,1.37,0,0,1,.66-.6C283.31,94.13,283.37,94.42,283.36,94.67Z"/><path class="cls-1" d="M62.84,201.28c-.89.19-1.13-.78-1.81-.74A1.24,1.24,0,0,1,62.84,201.28Z"/><path class="cls-3" d="M277,282c-2.46-1.07-5-2.31-7.76-2a22.05,22.05,0,0,1-6.64.28,3.69,3.69,0,0,0-3.31,1,4.09,4.09,0,0,0-.34,2.77c.09,1.5-.58,2.05-2,1.6a18.09,18.09,0,0,1-2.41-.5,21.7,21.7,0,0,0-3.29-.63c-.93,0-1.85.06-2.43,1,0,.08,0,.15,0,.21-1.85-.36-3.52-.23-4.59,1.53a1.09,1.09,0,0,0-.25-.1c-1.63-.19-3,.85-4.57.92a4,4,0,0,1-2.76,0c-2.34-.37-4.51.57-6.76.88-1.3.17-2.51,1-3.9.51-1.25-.11-2.49-.21-3.74-.25a1.25,1.25,0,0,0-.41.15,3,3,0,0,1-.58-.54c-1.83-2.25-3-2.07-4.33.67a5.47,5.47,0,0,0-.85,1.77c0,.1,0,.21,0,.32l-.72.68a1,1,0,0,0-.34-.17,1.75,1.75,0,0,0-.72,0c-2.43.82-1.93,2.87-2,4.69a1.3,1.3,0,0,0-.81.21c-.54,1.15-.53,2.45-1,3.63a1.06,1.06,0,0,0,.73,1.5,1.61,1.61,0,0,0,.38,0,1.55,1.55,0,0,0,1.12.83c0,.05,0,.11,0,.16a2.5,2.5,0,0,0,0,.67c.61,1.33.31,3,1.49,4.12l.19.1a2.57,2.57,0,0,0,.44,1.69c.68.11,1,1,1.77.92a2.13,2.13,0,0,1,.18.52c2.42,1.37,4.84,2.92,7.49.44a3.38,3.38,0,0,1,3.79.15,1.84,1.84,0,0,0,.62.06,2.2,2.2,0,0,0,.68-.3l4.89.07a1.59,1.59,0,0,1,.56.43c1,.86.72,2.37,1.49,3.37-.34,0-.47.15-.49.47l0,.07-.33.1c-1.47.94.07,2.64-.93,3.7a2.44,2.44,0,0,0-.1.24h-.13a4.14,4.14,0,0,0-1.19.84c-.75.64-1.55,2.8-1.9,3.74a7,7,0,0,0-.4,2.73c0,.46,0,.92.58,1a1.93,1.93,0,0,0,.79-.07,6.72,6.72,0,0,0,1.92-.66A6.63,6.63,0,0,1,235,327c.31-.12.66-.14,1-.25.84-.31.83-2.64,1.4-2.65s1.35.27,2,.22,1.17-.84,1.4-.85c.5,0,1,.12,1.44-.3.63.28,1.11.89,1.89.81.23.45.55.49.94.19-.18.76.37.74.83.74,1.49,0,3-.06,4.47-.09.87-.59,2.11.08,2.88-.85h1.05c.09,1.7,1.09.87,1.86.66a4.38,4.38,0,0,1,2.86,0c.79.66.76-.14,1-.54.67-.29.4-1.11.85-1.52.36-1,.72-2,1.07-3a2,2,0,0,0,.92-1.21c.19-.48.92-.79.73-1.42-.12-.38-.46-.35-.69-.58-.54-.53-.47,0-.45-.85.05-1.92,1.71-4.43,2.52-6.13l4.73-9.94q1.17-2.43,2.32-4.86c.12-.24.34-1.05.57-1.17.49-.27.12-.09.59.09s.85.66,1.59.73,1.67.38,2.2.36a.78.78,0,0,0,.59-.33,2.31,2.31,0,0,0,.23-.67,9.48,9.48,0,0,0,.12-1.5,43.72,43.72,0,0,1,.41-6.66C278.49,284.2,278.51,282.59,277,282ZM262.4,316.54h0l0,0,0-.18A.17.17,0,0,1,262.4,316.54Zm12.37-22.86v0s0,0,0,0h0Z"/><path class="cls-1" d="M376.14,87.09c-1.4-.25-1.86-.67-1.94-1.64C375.14,85.52,375.36,86.19,376.14,87.09Z"/><path class="cls-1" d="M337.6,270.77c.7.51.39,1.26.48,1.92C336.41,272.43,337.82,271.4,337.6,270.77Z"/><path class="cls-1" d="M330.9,280.84l.47.49Z"/><path class="cls-1" d="M265.2,216.59h1c-.07.52-.07,1.16-.79,1.11a1.14,1.14,0,0,1-.76-.71C264.49,216.61,264.93,216.63,265.2,216.59Z"/><path class="cls-1" d="M264.1,220.33c.18.57.3,1.11-.36,1.41-.14.06-.56-.13-.56-.15A1.77,1.77,0,0,1,264.1,220.33Z"/><path class="cls-1" d="M391.2,208.28l-.35.27c0-1.21,0-2.42,0-3.63l.33.32C391.19,206.25,391.19,207.27,391.2,208.28Z"/><path class="cls-1" d="M97.43,265.88a9.07,9.07,0,0,1,5.71,0Z"/><path class="cls-1" d="M89.74,265.41c.86-1.35,1.62-.26,2.4.1l-.53.12Z"/><path class="cls-1" d="M343.84,92.42c1-2.83.23-5.75.47-8.62.94,2.69.42,5.44.29,8.17C344.59,92.13,344.1,92.27,343.84,92.42Z"/><path class="cls-1" d="M339.75,134.52c.46.81.05,1.74.61,2.47C339.53,136.09,339.53,136.09,339.75,134.52Z"/><path class="cls-1" d="M344.31,80V76.13A3.58,3.58,0,0,1,344.31,80Z"/><path class="cls-1" d="M306.91,147.08c-1.33,1-.69-1-1.43-1,0-.28.06-.73.4-.61A1.59,1.59,0,0,1,306.91,147.08Z"/><path class="cls-1" d="M317.94,151.87c-1.1-.25-2-.6-1-1.91Z"/><path class="cls-1" d="M273.84,127.9l-.54-.37c.16-.34.43-.89.73-.71C274.55,127.13,274.23,127.58,273.84,127.9Z"/><path class="cls-1" d="M309.81,148a3.23,3.23,0,0,1,0-.44l.19.33Z"/><path class="cls-4" d="M363,67.91c0-1.1,0-2.19,0-3.29H308.83a.8.8,0,0,0,.09.51l-.09,0v0l0,0h0c-.66.65-.61,1.56-.87,2.36l-.08,0h0c-.32-.32-.65-.63-1-.94h0c.46-1-1-1.08-.91-1.88H291.09l-.63,2.84h0a1.79,1.79,0,0,0-.35,2h0v1.4h0c-.93-.08-1,.54-1,1.21a6,6,0,0,1-.39,3,2.51,2.51,0,0,0-.58,1.66.42.42,0,0,0,0,.35.32.32,0,0,1,0-.35c-.94.2-1.88.4-1,1.67-.82.27-.09,1.38-.89,1.66-.88,0-1.51.25-1.44,1.3h0c0,.67-.75,1.19-.47,2h0a2.17,2.17,0,0,0-.57,1.45h0a12.48,12.48,0,0,0-1.48,5.17.86.86,0,0,0,0,.16c-1.31-.07-2.09.4-1.83,1.9h0a.26.26,0,0,0,0,.34c-1.06-.09-1,.86-1.33,1.44h0l-.62,1.12c-1.17-.15-1.66.34-1.44,1.51h0c-1.53,1.31-1.51,3.38-2.41,5h0c-.09.69-.17,1.38-.26,2.06l.14,0,0,0a.42.42,0,0,0,0,.1v-.07l-.14,0a4.2,4.2,0,0,0-.67,3.81h0l-.48,1h0a3.87,3.87,0,0,0-.48,3.34h0v.53h0c-1.45,0-1.37.83-.95,1.82h0v1c.38.69-1.21,1.52-.17,2.15a.73.73,0,0,0,.19.28c.44,1.63-1.07,2.78-1,4.31-1.59,1.36-1.78,2.47-.54,3.93a15.08,15.08,0,0,0,2,2,1.9,1.9,0,0,0,.63.17c.54-.09.62.26.66.65a2.84,2.84,0,0,0,1.12,1.75c1.75.89,2.23,2.53,2.71,4.17.25.88,1.14,2.05-.95,2.13-.92,0-.83,1.15-.62,2,.52,1.22,1.73,1.14,2.71,1.47a1.37,1.37,0,0,0,1,1.07l1-.45.56.24a1.35,1.35,0,0,0,1.51-.5,1.33,1.33,0,0,0,.13-.33c1-.06,1.67.65,2.48,1,.54,1.2,1.4,1.08,2.27.94.44.08.89.09,1.33.14a1.07,1.07,0,0,1,.31,0c.38.6,2.17.46,1,1.87.7,1.22,1.13,0,1.67-.18a1.34,1.34,0,0,0,.29.41c2.23,1.79,4.83.74,7.27.93a1.59,1.59,0,0,0,.52-.27c.72.79,1.69,1.34,2.17,2.35.86,1.25,2.12.55,3.22.66a.62.62,0,0,0,.14-.14,32.18,32.18,0,0,0,4.75,2.86s0,0,0,0c.07.9.4,1.5,1.39,1.36a1.52,1.52,0,0,0,.45.76c2.08,2.22,2.08,2.22,4.43.51a6.06,6.06,0,0,0,.81-.6,2,2,0,0,0,0,.24,3.38,3.38,0,0,0,2.82,2,5,5,0,0,0,.86-.05l.3.19c.19.27.39.51.69.47.24.72,1,.83,1.52,1.17s1,1,1.79.84a1.6,1.6,0,0,0,.36.49,2.2,2.2,0,0,0,.72.28c-.14.72.47,1.09,1.09,1.45l1,1.08-.09,0a.86.86,0,0,0-.46.46,3,3,0,0,0,.95,1.54c2.41,1.25,3.45.81,4.1-1.76.37-1.47.49-3,.88-4.44a10.15,10.15,0,0,0,2.38-6,9.51,9.51,0,0,0,.14-1.5c.17-1.37.5-2.72.56-4.11.63-3.82,1.24-7.65,1.73-11.49a13.14,13.14,0,0,1,.39-2.87,4.45,4.45,0,0,0,.1-.72,9.69,9.69,0,0,1,.31-2.4,8,8,0,0,0,.2-1.68,5.59,5.59,0,0,1,.23-1.58,7.06,7.06,0,0,0,.21-.91c.1-.86.73-.87,1.36-.85,3.08-.18,3.19-.27,3.56-2.9-.07-8.07.12-16.14-.11-24.22-.24-1.1-.93-2.08-.85-3.26,0-7.71,0-15.42,0-23.13,0-1-.34-2.11.71-2.87,3.65-.45,7.33-.1,11-.21,1.4,0,2.79-.07,4.18,0,.69,0,1.44-.06,1.59.91.25.81.33,1.76,1.46,1.9A.39.39,0,0,0,363,67.91Zm-88.38,36.44,0,0,.08-.1A.93.93,0,0,0,274.66,104.35Zm12.68-25.3,0,0h0v0Z"/><path class="cls-1" d="M243.09,238.18l-.81.94c.22-1.15-1.11-1.75-1-2.86C242.58,236.24,242.62,237.41,243.09,238.18Z"/><path class="cls-1" d="M255.16,266.49l-.47-.51,1.9-1.38.48.42Z"/><path class="cls-1" d="M290.61,274.6c-.83.07-1.25-.69-1.91-1C290,272.7,290.05,274.12,290.61,274.6Z"/><path class="cls-4" d="M196.6,242.81c.64-2-.53-3.33-2.09-4.28a2.5,2.5,0,0,1-1.53-2.65c-.14-2.36.28-4.74-.19-7.09-.09-.07-.21-.14-.32-.21a.66.66,0,0,0,.3-.7c.21-.07.32-.33.43-.53.9-4,.89-4-2.8-5a4.49,4.49,0,0,0-1.73-.38,1.07,1.07,0,0,0-.44,0c-.89-.62-1.4.62-2.11.89a1.26,1.26,0,0,1-.36-.14c-.57-.26-1.34-.34-1.21-1.27,1,.15,1.26-.71,1.54-1.54.1-1.09.85-2,1-3.1a3.4,3.4,0,0,0,.38-.38,1.81,1.81,0,0,0,.48-1.73c-.45-1.51.36-2.54,1.17-3.6.37-.64.19-1.39.45-2.05a.57.57,0,0,0-.09-.55c-.35-.92-.79-1.72-2-1.54-.14-1,.55-2.07-.42-2.93l-1-1.33h0l-.11-.12-.13.08h0a2.12,2.12,0,0,1-.81-1.9c-.13-.78-.8-1.09-1.34-1.51,0-.68.2-1.55-1-1.36h0l-.06,0c.13-.6.26-1.19.38-1.79h0c0-.63-.4-.92-.93-1.1a.44.44,0,0,0-.06-.16.21.21,0,0,1,.06.16c.64-1.12-1.35-.77-1-1.75h0l-1.32-2.53a3.34,3.34,0,0,0-1.42-1.55h0c-.36-.87-1.21-1.25-1.85-1.84-.26-.66-1-.43-1.43-.84h0c-.46-.13-.86-.12-1.06.42l-3.33-.49h-1l-2.37-.48,0,0a6,6,0,0,0-.76,1.8c-.63,0-.87.36-.83,1l-.28,1c-1.1,1.13-1.09,3-2.48,3.92l-2.89,1.8c-.8.43-.89,1.24-1.07,2a4.75,4.75,0,0,1-1.42,2.68.94.94,0,0,0,0,.62l.08.09a.63.63,0,0,0-.19.37,7.87,7.87,0,0,1-.14,1.2,1.25,1.25,0,0,0,.3,1.1l-.14,0a3.43,3.43,0,0,0-1.92,2.49,10,10,0,0,1,.54,2.77,1.15,1.15,0,0,0,.12.25l-.15.1a1.82,1.82,0,0,0-.2,1.21c.08,1.15-.46,2.25-.24,3.4a1,1,0,0,0-.51.25,1.92,1.92,0,0,0-.76,1.18A6.51,6.51,0,0,1,157.8,220l.41-.51.5.45-.1.09c0,1.4.46,2.8,0,4.19l.28.16,0,.94a2.49,2.49,0,0,1-.23.22,1.3,1.3,0,0,0-.31.62,6.34,6.34,0,0,0-.16,1.89c.14,4.07,1.33,7.29,6.19,6.8a2.2,2.2,0,0,1,1.86.89,2.6,2.6,0,0,1,.36.46l0,.05a1.41,1.41,0,0,0-.62,1.15c0,.67-.16,1.32-.19,2a1.86,1.86,0,0,0,.15.65,7.44,7.44,0,0,0,3.31,3.54l.15,0a1.21,1.21,0,0,0,1.21,1.37l0,.14c0,.5.19,1.12.6,1.22,1.85.41,1.63,1.66,1.5,3.05s-.09,3,1.13,4.18a1.3,1.3,0,0,0,.65.22.9.9,0,0,0,.5-.27c2.54,1.32,5.71,0,8.12,1.85a3.92,3.92,0,0,0,1.65-.57c.94-1,1.31-2.52,2.93-2.75.67-.29,1.48-.28,2-.94a3.19,3.19,0,0,1,.12-.4c.26,0,.53,0,.7-.29a2.11,2.11,0,0,1,.3.3,3.87,3.87,0,0,0,3.41.32c.13-.09.25-.19.37-.29l.77.44c.44-.4,1.28.9,1.33-.15,0-.67.85-2-.6-2.23a9.63,9.63,0,0,1,1-3.17C197.28,244.58,196.27,243.83,196.6,242.81Zm-38.83-25.7,0,0h0l0,0Z"/><path class="cls-3" d="M197.88,214.67l.05,0s0,0,0,0h-.09v0h.05Z"/><path class="cls-3" d="M216.84,216.77c-.57-.62-1.27.17-1.92.23-.87,1.12-2.45.62-3.42,1.52-1.43.09-2.87-.42-4.31,0-.44-.17-.45-.58-.54-.94h0c-.37-1-1-1.16-1.83-.52.08-.72-.18-1.15-.92-.75-1.22.67-2.07,0-3-.68h0l-.13-1.09h0c-1-.43-2-.9-2.85.12H198l-.14.18,0-.13c-.65,0-.8,1.29-1.7.7l.08-.18-.14-.13h0c-.57-1.37-1.82-.82-2.81-1h0c-.37-.86-1.16-1.28-1.84-1.82h-.1c.22-1.15-.92-1-1.4-1.49l0-.89c.61-.2.49-.73.41-1.13-.12-.57-.59-.24-.93-.24a.7.7,0,0,1,.12.34c-.06.31-.39.6-.16.92-.29.26-.1.75-.46,1-1.47,1-2.43,2.21-1.49,4.14a.91.91,0,0,1-.4,1.22c-.35,1.27-1.49,2.26-1.33,3.71a1.23,1.23,0,0,0,.15.35,6.94,6.94,0,0,1-1.76,1.2c-1.15,2.09.49,1.49,1.47,1.52,1.18.75,1.83-1.12,3-.59l1.38.38c3.43.24,3.59,2.31,2.77,4.93a1.13,1.13,0,0,0-.3,1v7.62l.41-.49c.91-1,.44-2.28.66-3.42s0-2.49,1.6-2.84l.2-.09c.78,1.52,2.7,1.68,3.72,2.91a5,5,0,0,0,2.35.69c1.91.37,3.78-.26,5.67-.29-.12.4.09.67.57.82a2.47,2.47,0,0,0,2-.63c.67-.12,1-.32.7-.7.29-.14.57-.29.85-.45a2.11,2.11,0,0,0,.47-.3,2.15,2.15,0,0,0,1.21-.16c-.47-.57-.31-1.49-.87-2l0-.07c-.06-.21-.11-.41-.18-.62a5.88,5.88,0,0,1,.38-3.41c.28-.79.75-.74,1.3-.28a.84.84,0,0,0,1.09-.39,1.2,1.2,0,0,0,.18-.58,2.66,2.66,0,0,0,.07-1.7,1.19,1.19,0,0,1,.46-.53,22.84,22.84,0,0,0,1.35-3C216.9,218.11,217.38,217.35,216.84,216.77Zm-18.73-.67h0l0,0h0S198.1,216.1,198.11,216.1ZM202,231.72s0,.08,0,.12h-.08A.37.37,0,0,1,202,231.72Z"/><path class="cls-1" d="M129.53,265c-1.7,1-3.62.66-5.31.39-4.13-.64-8.18.44-12.27.09-.79-.07-1.85.37-2.07-1C116.43,264.69,123,264.13,129.53,265Z"/><path class="cls-1" d="M142.84,217.57l-.38.5c-.66-.88-1.45-1.71-1.33-2.94a.7.7,0,0,1,.41-.49C142.42,215.42,142.44,216.58,142.84,217.57Z"/><path class="cls-1" d="M317.94,181.11c0,.64.46,1.28,0,1.92A.9.9,0,0,1,317,182C317.05,181.37,317.43,181.17,317.94,181.11Z"/><path class="cls-1" d="M305.75,154c.13.17.42.38.48.64s-.22.56-.56.54a.58.58,0,0,1-.59-.59C305.06,154.21,305.25,154,305.75,154Z"/><path class="cls-1" d="M136.24,263.58a2.65,2.65,0,0,1-1-1.92C137.05,262.79,137.05,262.79,136.24,263.58Z"/><path class="cls-1" d="M161.73,269.91a4.34,4.34,0,0,1,3.08.8A5,5,0,0,1,161.73,269.91Z"/><path class="cls-1" d="M152.05,267.4c-.07-.34-.46-.73-.05-1,.58-.4.61.49,1,.54A1,1,0,0,1,152.05,267.4Z"/><path class="cls-2" d="M168.31,266.9c-1.15.1-1.85,1.86-3.29.89a7.46,7.46,0,0,0-5.55-1.3,2.64,2.64,0,0,0-.49.29c-1.53-.64-2.79-1.82-4.44-2.2a2.13,2.13,0,0,0-1.36.18,2,2,0,0,0-.21.2c-.2-.37-.61-.47-1-.62a1,1,0,0,0-.7,0h0c-1.22-.88-3.42-.73-3.26-3.08a4.16,4.16,0,0,0-3.92-3.44,12.23,12.23,0,0,0-3.24-.39c-1,.51-1.87,1.16-2.79-.21a2.14,2.14,0,0,0-2.2-.63,2.43,2.43,0,0,1-.66.14c-1.9-.51-4.68-.09-4.81.92-.28,2.25,1.66,2.52,3.16,3.14.1,0,.17.18.25.29a1,1,0,0,0-.57.45c-.18,1.21.71,2.25.55,3.46l.27.22a2.41,2.41,0,0,0-.25.08c-1.43,1-.84,2.3-.71,3.55H133c.14,1.45-.65,3,.47,4.33h0c.16.31.32.62.49.93h0a3.12,3.12,0,0,0-.09.44c-.48,1,.24,1.94.11,2.91v1c0,.95-.07,1.89-.1,2.83a3.63,3.63,0,0,0-.46,3.39l0,.54c-1.27.29-.73,1.66-1.38,2.32h0l-1,3.1a.77.77,0,0,0-.05.19l-.06-.05.11-.14c-1.09.52-2.27.08-3.38.34-1.83,1-4-.27-5.78.81l-2.36.13a2.65,2.65,0,0,0-1.88,2.33h0l-.66.14c-1.14,2.23-.49,4.44.1,6.65h0l.15,2.77h0a2.79,2.79,0,0,0,1.34,2.07h0l3.83,4.22c-.15,1.08.62,1.47,1.39,1.87a1,1,0,0,0,.55-.92c2.44-1.3,4.12-3.66,6.68-4.8,1.12-.17,1.49,1,2.36,1.31,1.13.43,2.13,1.25,3.43,1.19a.51.51,0,0,0,.46.32c1.82.31,1.86-.9,1.9-2.18.05-1.95-1-3.88-.17-5.84h.22a2.72,2.72,0,0,0,.94-1.94c.08-1.23-.62-2.43-.09-3.66,0-1.63,1-2.69,2.14-3.7a4.77,4.77,0,0,0,1-1.29,1.46,1.46,0,0,0,0-.51,2,2,0,0,0,1.19-2.54c-.41-2,.4-3.5,1.14-5.13v0c1.14.5,2.11-.35,3.17-.47a1.54,1.54,0,0,0,1.14-1.18.86.86,0,0,0-.07-.21c1,.43,1.47,0,1.75-.83l.23.14c1.69,0,3.56.47,4.57-1.42h0a1.8,1.8,0,0,0,.73-.06,6.71,6.71,0,0,1,3.5-.35c2,.18,4,.52,5.59-1.23a2.26,2.26,0,0,0,.3-.65c.17-.7.13-1.43.24-2.13.85-2.12.54-4.66,2.29-6.45C168.93,267,168.83,266.69,168.31,266.9Zm-33.88,13.5a.28.28,0,0,1,.1.27A.6.6,0,0,0,134.43,280.4Z"/><path class="cls-5" d="M258.49,92.43h0a2.16,2.16,0,0,1,0-.36c-.88-.5,0-1.73-.91-2.2,0-1.27-.91-.69-1.49-.81l-.46-.88c.3-1.13-.49-2.35.26-3.45h0c1.28-.75,1.7-1.55.25-2.59a13.24,13.24,0,0,1-1.35-1.25,1.4,1.4,0,0,0-1.46-.84h0l-1-.23h0c-.06-.63-.13-1.26-.19-1.89h0c-.3-.4-.37-1.09-1.14-.9-.88-.91-2-.17-3-.5-.87-.82-1.9-.35-2.87-.32l-1,.09a1.77,1.77,0,0,0-2.33-.62c-1-1.33-2.65-1.69-4-2.48h0c-.62-1.81-2.09-.61-3.15-.88h0l-1-.52h-.5c-.62-.88-1.49-.44-2.28-.41h0l-1-.64c-.24-.43-.66-.37-1.06-.39h0a3.39,3.39,0,0,0-2.35-.85.6.6,0,0,1-.22.09l.22-.09a3.86,3.86,0,0,0-2.46.33c-2.35.26-4.77-.48-7.08.48h0l-.07,1.11c-1.29.61-.69,1.8-.85,2.75h0a1.15,1.15,0,0,0-1,1h0c-.77.68-1.33,1.4-.49,2.41h0l0,.06h0l0,1h0c-1.56.3-.74,1.49-.86,2.33-.18.64-.88,1.28-.43,1.93.84,1.21,0,2-.56,2.82h0a4.86,4.86,0,0,1-2.08,2.08c-.82.78-.06,1.89-.55,2.74h0q-.88,2.2-1.75,4.41c-.64.35-.88.82-.46,1.49a8.74,8.74,0,0,1,4.53,1.53,3.57,3.57,0,0,0,3.2.81c1.14,1.7,3,2.16,4.81,2.54l.95-.25a.73.73,0,0,0,.68-.14,3.73,3.73,0,0,1,.47,0,10.86,10.86,0,0,0,2.58-2.15h0l0,0h0l0,0a1.06,1.06,0,0,1-.16.32c.3.82,1,1.24,1.64,1.79,2.9,1.8,6,.86,9.09.72,2.21-.1,3.23-1.65,2.62-3.82a18.2,18.2,0,0,1-.83-3.72,1.41,1.41,0,0,0-.14-.49l.55-.08a.5.5,0,0,0,0,.13,10.54,10.54,0,0,1,1.76,2c.4.58,1,1.07,1,1.84s.1,1.56.79,2.11a4,4,0,0,0,.85.42c.45.53.91,1.05,1.36,1.57l-.12.23a2.3,2.3,0,0,0,.36,1.33,5,5,0,0,1,.59,2.5c0,1.22-1.16,3,.7,3.49,1.68.46,1.79-1.67,2.69-2.55,1.56-1.59,3.47-1.09,5.33-.87,2.68-.37,3.34-1.22,3-3.87a1.06,1.06,0,0,0,.47,0,1.74,1.74,0,0,0,.54-.43,4.8,4.8,0,0,0,.84-4.31,4.35,4.35,0,0,1-.46-1.24,5.07,5.07,0,0,1,1-3.27ZM243.82,76.57h0m11.4,8.3h0a.09.09,0,0,0,0,0A.09.09,0,0,1,255.22,84.87Z"/><path class="cls-5" d="M224.9,98.72s0,0,0,0v0Z"/><path class="cls-1" d="M170.22,311c1-1.05,1.69-1.1,2.43-.58.13.09.22.51.14.59C172,311.75,171.3,311.18,170.22,311Z"/><path class="cls-1" d="M178.45,308.14c-.3,1-.68,1.87-1.92,1.9A2,2,0,0,1,178.45,308.14Z"/><path class="cls-1" d="M225.89,254.46h-.47c.2-1.62,1.27-1.54,2.49-1.3C227.73,254.45,226.27,253.59,225.89,254.46Z"/><path class="cls-1" d="M223.48,248.76l.4-1c1.09.75.77,1.57.12,2.41l-.42-.51Z"/><path class="cls-1" d="M238.36,244.88c0,.63.47,1.27,0,1.9-.27,0-.79.41-.77.06C237.62,246.16,237.31,245.2,238.36,244.88Z"/><path class="cls-1" d="M226.8,240.06a.93.93,0,0,0,0-.44,1,1,0,0,1,.95-.49c.18.24.56.64.51.71C227.9,240.35,227.31,240,226.8,240.06Z"/><path class="cls-1" d="M225.48,244.78c-.35.27-.49.47-.66.49a.76.76,0,0,1-.6-.18c-.17-.2-.09-.42.23-.41S225,244.73,225.48,244.78Z"/><path class="cls-6" d="M239.92,218c-1.78-1.86-2.24.09-3,1.06-.4.38-.84.74-.51,1.39h0l0,1.07c-1.77.15-.62,1.47-.87,2.22h0l-.39,1h0l-3-.1h0l-2.36-.77h0l-.57,0c-.79-.31-1.57-.92-2.37,0l-3.44-1c-.05-1.08,0-2.22-1.4-2.58h0l-2.35-2.13h0a2,2,0,0,0-1.48-1.36c-1.19-1-2.26-.69-3.28.28l1.78-.11-1.92,5c-.32.77,0,1.64-.34,2.41-.19.54-.6.47-1,.37a1.6,1.6,0,0,0-1.9.17c0,1.34-1.27,2.7.05,4h0l-.07.2c.54.63.54,1.49.93,2.12a5,5,0,0,0-1.39.15c-.43.08-.91.05-1.16.52,0,.47-.37.74-.48,1.14a1.14,1.14,0,0,0,.12.58c-.67.71-.48,1.44.11,2.19.86-.08,1.72-.21,2.58-.25.5,0,1,0,1.51.08l.06,0,.25.05a1,1,0,0,0,.6.39c1-.14,2.26.18,2.79-1.13.67.19,1.1-.16,1.41-.77a.61.61,0,0,0,0-.14l.42-.07c2,0,4-.4,5.26,1.85,1.11,1.63.81,3.25,0,4.86l-.46.57h0c-1.26.34-1.39,1.45-1.48,2.43a3.32,3.32,0,0,1-.89,2.33.36.36,0,0,0-.18.19c-.13,0-.23.07-.32.31-.11.75-.18,1.61.92,1.4.92-.18.9.71,1.42.93a1.28,1.28,0,0,0,.24-.22,1.66,1.66,0,0,1,0,1.14h-.13c-.07.14-.13.28-.19.42-1,2.22-.27,5.63-4.1,5.86,0,0-.09.28-.13.43a5.26,5.26,0,0,0,3.81-.48l.72-.11,2.06,0a1.43,1.43,0,0,0,.2.46c2.54.95,4.8,3,7.84,2,1.11-.65,1.08-1.75,1.1-2.82a1.72,1.72,0,0,1-.45-.6l.1-1.74a5.15,5.15,0,0,0,.15-.68,2,2,0,0,0,.08-.35c.75-.41.71-1.13.74-1.83h.21c1.38.2,2.72.27,3.52-1.23.11-.44.37-.84.44-1.3a1.44,1.44,0,0,0-.12-.61,10.73,10.73,0,0,0,.29-4,1.81,1.81,0,0,1,.32-.41c1-1.1,2.22-2,2.46-3.59.13-1.21-.62-2-1.36-2.77h-.35c-.85-.2-.07-.67-.16-1a4.19,4.19,0,0,1,.27-.87.51.51,0,0,1,.41,0l-.05-.5.13-.12a.75.75,0,0,0,.25-.72,1.36,1.36,0,0,0,1-.29,10.23,10.23,0,0,0,2.22-2.64c.41-1.32,1.53-2.39,1.45-3.9h0a.69.69,0,0,0,.6.15,1.71,1.71,0,0,0,1.3-1.7C246.17,221.7,243,219.91,239.92,218Zm-24.61,13.08a.06.06,0,0,1,.08,0Zm21.67-6.6a.12.12,0,0,1,.14,0Z"/><path class="cls-1" d="M218.22,102.49a1,1,0,0,1,1-.48c.32.19.88.45.49.81A1,1,0,0,1,218.22,102.49Z"/><path class="cls-1" d="M168.17,315.31a3.83,3.83,0,0,1,2.31,1.3C168.88,317.63,168.7,316.35,168.17,315.31Z"/><path class="cls-6" d="M191,312c.08-3-2.28-2.2-3.93-2.49a2,2,0,0,0-1.75-.31l-.16.07c-.3-1.2-2-.46-2.44-1.52l-.07-.08a2.5,2.5,0,0,1,.44-.34,2.53,2.53,0,0,0,.62-3.16,1.54,1.54,0,0,0-2.42-.4c-1.38.57-1.42.57-1.41,2.51,0,.67-.42,1.11-.56,1.67a.83.83,0,0,0-.91.24l0,0a11.9,11.9,0,0,0-1.92,1.9c0,.18,0,.37,0,.56l-.72,0a5.35,5.35,0,0,0-1.63,1.4c-.77.68-2,.43-2.72,1.16a1.22,1.22,0,0,0-.28-.14c-3.83-.1-7.46,1.11-11.17,1.73a3.22,3.22,0,0,0-1.5,1c-.66,1.48-2.44,1.9-3.14,3.33a.51.51,0,0,0,.55.25,4,4,0,0,1,1.95.21c.75.45.29,1.25.83,2a13.76,13.76,0,0,1,1,1.24c.2.34.29.78.63,1s.74.06,1.1.14c.9.21,1.42,1.25,2.36,1.56,1.28.4,2.69.3,4,.79,2.07.79,4,2,6.18,2.43a13.55,13.55,0,0,1,2,.48,10.45,10.45,0,0,1,1.28.68,26.23,26.23,0,0,0,4.38,1.9c.66.23,3.12,1.46,3.65.58.3-.51-.37-1.07-.48-1.65a1.73,1.73,0,0,1,0-.68,17.62,17.62,0,0,1,.77-2.69,4.65,4.65,0,0,0,.37-1.5,10.06,10.06,0,0,1-.23-1.94,10.75,10.75,0,0,1,.56-1.31,7.83,7.83,0,0,0,0-2.46c0-2.23,2.7-2.11,4.19-1.54a.81.81,0,0,0,.24-.59.92.92,0,0,0-.34-.54c-.8-.26-.93-1-1.27-1.65a.53.53,0,0,1,0-.41l1.61-1.87h0C191.12,313.11,190.81,312.5,191,312ZM158.3,319.7Z"/><path class="cls-1" d="M259,112.33c.57.68,0,1.4.39,2.08C257.88,113.78,259,113,259,112.33Z"/><path class="cls-1" d="M276.23,143.72l.95-.5c-.16.59.45,1.62-.58,1.7C275.75,145,276.05,144.23,276.23,143.72Z"/><path class="cls-1" d="M147.76,211.31l-.47.4-1.93-1.42.5-.42Z"/><path class="cls-1" d="M340.76,238.3a3.51,3.51,0,0,1-2.5.2A3.57,3.57,0,0,1,340.76,238.3Z"/><path class="cls-5" d="M391.74,188.76q0-47,0-94.07c0-.59.49-1.44-.51-1.8h-.82l-2-.52c0-1-1-.94-1.42-1.46A4.94,4.94,0,0,0,384.49,89a.38.38,0,0,0-.45,0c.26-2.12-.68-2.25-2.11-1.56a.42.42,0,0,0-.27.13,2.21,2.21,0,0,1-2.29-1.08c.16-1.24-.91-.94-1.52-1.21-.43-1.57-1.7-1.54-3-1.56l-.6-.92c-.37-3.37-.37-3.37-2.65-2.45,0-.68.28-1.42-.47-1.92-.33-1-1.17-.92-2-1-.73-.54-1-1.58-2-1.86-.26-1.63-1.46-.81-2.32-.89-1.45.12-1-1.56-1.91-2V70.87a1.91,1.91,0,0,0,0-3l-.06.64c-.64-.52-.7-1.32-1-2,.31-.64,1.2-1.47-.49-1.44l-5.23.09h-12c-1.29-.25-.95.72-.95,1.34q0,12.94.08,25.9a1.87,1.87,0,0,0,.95,2.41v24.9c.15,1.54-.5,2.2-2.08,2a10.36,10.36,0,0,0-1.84.06c-1.39-.27-.87.7-.87,1.34l-.24.93c-.54.42-.28,1-.24,1.48l-.18,1.88c-.69.74-.31,1.61-.31,2.44l0,.49c-.74.86-.55,1.88-.45,2.88q-.93,5.75-1.85,11.51c-.18,1.43-.35,2.86-.53,4.3,0,.48,0,1,0,1.44-.93,1.54.15,4.1-2.43,4.84-.07,0,0,.59,0,.9-.86,1.48-.63,3.18-1,4.76-.18.76-.18,1.7-1,1.92a1.85,1.85,0,0,1-2.43-.91c.05-.63-.85-.4-.88-1-.42-.09-.9-.42-1,.43s-.25,1.64-.38,2.46l-.12,1.41a4,4,0,0,0-.85,2.89l-.57,1c-1.22.23-.91,1.14-.86,1.94-1,1.79-.78,3.88-1.44,5.75.14,1-.79,1.83-.48,2.87q-1,6-2,12c-.07,1.23-2.2,3.09,1,3.3l3.32.61.15,2.4c1.05-.24,1.39-1.16,2.24-1.15l.51-.34,1.83,0c1.24,2.75-.23,5.4-.3,8.1,0,.51-.4,1.11.35,1.43a.67.67,0,0,1,.54-.48,1.39,1.39,0,0,0,.75.24c.88.2,1.7-1,2.73.3,1.47,1.88,3.76,1.24,4.52-1,.3-.91.36-1.87.6-2.79s.23-1.89,1.45-1.81.8,1.22.87,1.88c.19,2,.25,4,2.47,5a4.69,4.69,0,0,0,2.45,1.13c.2.11.42.21.61.34,1.38.94,2.3,1.4,2.29-1.09,0-1.92.65-3.84.87-5.77.16-1.39,1.05-1.11,1.9-1.07.36.81,1.12.9,1.86,1l1.53.76a1.13,1.13,0,0,0,.45.09,3.26,3.26,0,0,0-.36,2.38v.5c0,7.11,0,14.21.19,21.31.07,2.48.15,4.56-3.15,4.5l-6.53.14a.14.14,0,0,0-.18,0h-6.71c-.86-.17-1.52-.18-1.46,1.05a28.89,28.89,0,0,1,0,5.18c-.34,2.5.65,3.22,2.93,2.71l2.39.05c2,0,2.53,1,2.46,3-.16,4.11,0,8.24,0,12.36v.94c-.21.38-.42.76-.61,1.15a34.14,34.14,0,0,0-.09,5.35c0,1,.15,2.08,1.51,2.25,4.09-4.63,8.29-9.18,12.22-13.95,4.57-5.53,9.38-10.88,14-16.35l2.72-3.22,2.54-3,3.47-4.1c3.42-4.06,6.87-8.1,10.22-12.21a4.24,4.24,0,0,0,.84-1.35,4.42,4.42,0,0,0,.12-1.41c-.08-3.22-.15-6.43-.13-9.66,0-3.66,0-7.32,0-11Zm-71.45,2.88a1.9,1.9,0,0,1,.55.09A3.71,3.71,0,0,0,320.29,191.64Zm59-104.6h0ZM390.8,97.26v0Z"/><path class="cls-1" d="M319.36,186.39c0,.53.1,1.09-.46,1.44-.3,0-.68-.06-.63-.46A1,1,0,0,1,319.36,186.39Z"/><path class="cls-1" d="M248.15,273.71c-1,.37-2.05.79-3.1,1.09a6.26,6.26,0,0,1-1.56,0c0-.39,0-1,.16-1.11.59-.3,1-1.2,1.84-.78A5.08,5.08,0,0,0,248.15,273.71Z"/><path class="cls-1" d="M219.21,256.36c-.32,1-.63,1.94-1,2.91l-1.44,1-.37-.51C217.91,259.07,217.48,256.85,219.21,256.36Z"/><path class="cls-1" d="M217.8,275.07l.44-.5a.77.77,0,0,0,.34.08l.39,1.46c.38.66-.27,1.17-.24,1.78l-.41.53C218,277.32,218.43,276.11,217.8,275.07Z"/><path class="cls-1" d="M283.79,264.07l0,3.81A4.14,4.14,0,0,1,283.79,264.07Z"/><path class="cls-1" d="M243.81,273.64c-.77.07-1,1-1.88.68C242.4,273.67,242.71,273,243.81,273.64Z"/><path class="cls-1" d="M276.91,254.85a.93.93,0,0,1,.54,1.11.59.59,0,0,1-.38,0A.76.76,0,0,1,276.91,254.85Z"/><path class="cls-6" d="M296,289.1c-.33-.51-.73-1-1.11-1.45l-3.21-4-2.48-3.34L287.65,278c-.15-.61-.29-1.23-.43-1.84a2.42,2.42,0,0,0-.36-.1l.16-.32a38.16,38.16,0,0,0-.75-4.38,18.9,18.9,0,0,0-1.35-2.7,12.76,12.76,0,0,1-.64-1.14,7.7,7.7,0,0,1-.09-3.57,11.85,11.85,0,0,0-1.84-4.78.57.57,0,0,0-.41,0l-.52-.8a.51.51,0,0,0,0-.17l0-.06a1,1,0,0,0,.26-.33,1.74,1.74,0,0,0-.06-.64c-1-1.48-1.89-3.17-3.93-3.56a1.79,1.79,0,0,0-.8,0c-1.4-.46-2.66.44-4,.93a2.68,2.68,0,0,0-.07.27l-.13-.07c-1.21-.16-1.86.69-2.53,1.46a28.41,28.41,0,0,0-2.61,3.92c-.88,2.55-3,2.63-5.14,2.52a6.21,6.21,0,0,0-5.27,2,12.82,12.82,0,0,0-2.17,1.63c-.54.93-1.73,1.36-1.95,2.53l.07.14-2,2-.43,0c-.43.17-.85.37-1.28.53a17.61,17.61,0,0,1-12.07-2.33.85.85,0,0,0-.5,0l-.74-.63a1,1,0,0,0,.09-.45c-.41-1.63-.15-3.49-1.59-4.79-.87-1.6-1.3-3.52-3.13-4.46a10.5,10.5,0,0,0-5.31-2.24,4.26,4.26,0,0,0-.76.33l-.65-.05h0a1.45,1.45,0,0,0-.41-.21,3.14,3.14,0,0,0-1.2-.35,2.34,2.34,0,0,0-.09-.38,8.15,8.15,0,0,0-3.79.47c-.5.75-1.27,1.42-1.08,2.4l-.16.06a4.21,4.21,0,0,0-1.58,1.41c-.77,2.05-2.89,3.77-1.53,6.33a16.57,16.57,0,0,0,1.64,1.14,3.71,3.71,0,0,1,1.41,2.15,2.55,2.55,0,0,1-.19,2.34,1.86,1.86,0,0,0,.36,2.51,1.39,1.39,0,0,0,.44.13.84.84,0,0,0,.37,1.19,2.48,2.48,0,0,0-.46,1.85c1,2.22,0,4.41-.1,6.62,1.63.89,1.85,2.9,3.21,4l.55.93c1.22.73,2.54.47,3.84.39a2.53,2.53,0,0,0,2.36.18c2.82-.76,5.65-1.62,8.64-1.48a1.79,1.79,0,0,0,2.52,0c1.71.4,3-1.19,4.66-1,1.36-1.28,3.22-1.21,4.83-1.79a3.89,3.89,0,0,1,2.4-.68l3.32.58c.63.81,1.62.24,2.37.61,2.52.62,2.82.37,2.58-2.1-.07-.79-.13-1.57-.2-2.36.11-.34.43-.38.7-.53,1.95-1.15,3.95.56,5.78,0,3.52-1.09,6.69-.34,10,.84,1.44.52,2,1,1.79,2.42a36.22,36.22,0,0,0-.4,8.32h0c0,.48-.07,1-.1,1.45h0l-.24.47,0,0c-.21.89.31,1,1,1a5.74,5.74,0,0,1,2.63.34,25.76,25.76,0,0,1,4.75.26c2,.46,2.19-.41,2-1.93.92-.24,0-2.55,1.9-1.68l2.83.17a3.48,3.48,0,0,0,3.08-.14c-.18-.15-.47-.15-.66-.3C297.34,292.21,297.61,291.61,296,289.1Z"/><path class="cls-6" d="M219.16,256.4h0l0,0Z"/><path class="cls-1" d="M207,272.71c0,1.11.08,2.23.11,3.34A3.42,3.42,0,0,1,207,272.71Z"/><path class="cls-4" d="M221.81,288.21c-1.17-1.21-1.36-3.38-3.51-3.64v-.05c1.24-2.14,1.95-4.31.43-6.63a.33.33,0,0,0-.21.11c-.22-1,.56-2-.29-2.94-.76-1.25-1.66-2.06-3.16-1a31.68,31.68,0,0,1-7.13,1.71,1.78,1.78,0,0,1-.45-.37,6,6,0,0,1,0-2.88,2.86,2.86,0,0,0-.65-1.85l-.18-.06v-.3a1.18,1.18,0,0,0,.45-.44c.28-2.16-1.45-2.71-2.87-3.09-1.59-.43-2.33,1-2.87,2.22a12.51,12.51,0,0,0-.71,4.17,1.55,1.55,0,0,1,.19.5.2.2,0,0,0,0-.08l-.4.54a4.09,4.09,0,0,0-.38,1.77,2.78,2.78,0,0,0-.16.4c-.3.43-.54.89-.81,1.34-.52.78-1.31,1.31-1.85,2.08a26.17,26.17,0,0,0-2.51,3.73,13.8,13.8,0,0,1-4.34,4.68c-1.76.77-3.34,1.74-4,3.73a7,7,0,0,0-.9,4.08,10.39,10.39,0,0,1-.69,4.38,4.86,4.86,0,0,0-.15,1.78c0,.3.08.61.12.92-.21.6-.19,1.26-.35,1.88a2.27,2.27,0,0,1-.41.41,1.47,1.47,0,0,0-.11,1c0,.06.05.11.07.16a5.09,5.09,0,0,0-1.62,1.48c.06.55-.26,1.5.84,1.12a1.74,1.74,0,0,1,2,.55l1.87-.07a.81.81,0,0,1-.16-.27,2.34,2.34,0,0,1,.34.69c1.52.08,3.06.12,3.67,1.84l-.1.07a6.25,6.25,0,0,0-.76,1.42,6.82,6.82,0,0,0-1.25,2.23.68.68,0,0,0,.18.49c-.72,1.41-.18,2,1.4,1.86,0,.13,0,.26,0,.38v.4c.79,0,1.84.63,2-.83.92,0,1.45-.45,1.29-1.46h.54a.81.81,0,0,0,1-.35c.13.14.27.09.42-.19.07-.58-.32-1.42.78-1.45.32-.79,1.32-.17,1.7-.83h0l2.75-.65h0l.23,0,.23,0c-.13-.86.9-1.12,1-1.88l1.39-1.88.54-.49.91-1.75a.42.42,0,0,0,.51-.22c1.84-.35,3.74-1.35,5.34.54a7.57,7.57,0,0,1,2.79,2.42l.71.42a.51.51,0,0,0,.28-.36c.5-.78,0-1.37-.38-2-.94-1.28-.29-3.14-1.56-4.3h0a3.29,3.29,0,0,0-.09-.43,1.58,1.58,0,0,0-1.31-1c-1-.37-.61-1.09-.35-1.68a3.47,3.47,0,0,0,.41-2.95l1.27-.39c.15-1.78-.48-3.89,2-4.65l.23,0,.23,0a1.08,1.08,0,0,0,1-.91l1-1.43c1.54-2.88,1.82-2.9,3.94-.29a1.53,1.53,0,0,0,.39.25l.46-.44C222.31,289,222.05,288.59,221.81,288.21Z"/><path class="cls-1" d="M288.21,276c0-.64,0-1.28,0-1.92a2.91,2.91,0,0,1,1.43,1.44Z"/><path class="cls-4" d="M355.7,228c-.65-7.21-.27-14.42-.4-21.64,0-.27,0-.54,0-.81-.06-.84.05-1.66.06-2.49a1.13,1.13,0,0,0-.29-.6,13.09,13.09,0,0,0-1.63-.92,4.72,4.72,0,0,0-.56-.24,14.07,14.07,0,0,1-1.64-.84,2.62,2.62,0,0,0-.63-.14c-1.2,0-1.62.7-1.8,1.75-.27,1.55-.61,3.09-.77,4.65s-.79,2.1-2.27,1.46a1.13,1.13,0,0,0-.42.1l-1.76-1.13c-2.63-1-2.11-3.36-2.27-5.4s-.21-2.14-1.07-2.06c-1.2.13-2.57,0-2.45,2a11.23,11.23,0,0,1-.71,3.4c-.31,1.18-2.85,2.14-3.12,1.29-.85-2.72-2.49-.88-3.78-1-.52-.12-1-.22-1,.59l.13.14c-.66,0-.73-.58-.92-1.06a.84.84,0,0,0-.28-.18l0-.33c0-.9.09-1.8.13-2.7a.37.37,0,0,1,.34-.11,1,1,0,0,0,.37-1.21,4,4,0,0,1-.3-.82c.16-.82.46-1.68-.65-2.16l-.16-.29c-2.73-.27-4.11-.67-5.42-1.55-.38,0-.75-.06-1.13-.08-.91-.36-2-.07-2.9-.29a1.32,1.32,0,0,0-.21-.43,6.68,6.68,0,0,0-3.88-.71,3.19,3.19,0,0,0-.42.3c-.84-.12-1.41,0-1.63,1.36-.11.68-.15,1.38-.24,2.07-.13.48-.25,1-.4,1.43-.08.27-.14.56-.21.84-4.89.06-9.69-.88-14.54-1.25a4,4,0,0,0-1.23-.64,116.82,116.82,0,0,0-12.09-1.26,10.88,10.88,0,0,0-2.21.39l-1.47,0-.94-.54c0,.72-.42,1.51.37,2.09,1.07.92.9,1.86.06,2.82-.4.46-1.06.73-1,1.51a4.37,4.37,0,0,1-2.4,4.16c-.91.08-1.62.36-1.43,1.49v.91c-1.48.12-1.59,1.53-2.27,2.4.25,1.33-1.61.44-1.59,1.53l-2.86.39a2.86,2.86,0,0,0-3.45.64.54.54,0,0,0-.41.19c-1,.69-1.39,1.82-2.06,2.75l-.71.21c-1.59.42-3.53-1-4.83.95A6.58,6.58,0,0,1,255,221c-.81,1.09-2.46,1.45-2.64,3l-.46.45-.34.76c-.65,0-1.21-.75-1.93-.24l-1.37-.41c-.5.5-1,1-1.49,1.52l-.42,0a7.71,7.71,0,0,0-2,3.81c-.19.34-.11.46.08.48a11.86,11.86,0,0,1-1.63,1.84l-.11.12-.23,0-1,.5-.4.48a.64.64,0,0,0-.28.79h0c-.6-.11-.39.88-.79,1,.19.33-.6,1.29.42,1.08a1.86,1.86,0,0,0,.42.37,2.1,2.1,0,0,1,1.37,1.72c-.06.24,0,.57-.19.71-.23,1.58-2.15,1.89-2.5,3.37-.73,1.71-.35,3.52-.46,5.29l-.39,1c-.77,1.59-2.08,1.27-3.39,1-.83.6-.54,1.66-1,2.42l0,0c-.61.92-.31,1.9-.16,2.87s.44,2.25-.85,2.94c-3,.78-5-1.68-7.67-2.11-.64-.55-1.42-.29-2.14-.36a1.56,1.56,0,0,0-.68.28.73.73,0,0,0-.18.65c.4.55,1.14,0,1.55.5a1.1,1.1,0,0,0,1.44.1,8.59,8.59,0,0,1,5.24,2.32c1.78.74,1.89,2.64,2.78,4a1.09,1.09,0,0,0,.14.21c1.75,1.2,1.12,3.29,1.82,4.89-.07.8.47.87,1.06.9l2.1,1a9.44,9.44,0,0,0,2.94,1.2,10.89,10.89,0,0,0,7.87.15l.93-.37a3.05,3.05,0,0,0,2.43-2.39l1.95-2.35a1.4,1.4,0,0,0,.06-.24,8.06,8.06,0,0,1,1.45-1.15.51.51,0,0,0,.4-.08,10.13,10.13,0,0,1,5.67-2c2.1-.17,4.57,0,5.37-2.8,1.52-1.85,2.17-4.46,4.73-5.39a.32.32,0,0,0,.14-.15l.16,0c1.58.09,2.89-1.48,4.57-.77,2,.36,2.22,2.47,3.56,3.45a1,1,0,0,1,.06.41.91.91,0,0,0,.68,1.37c1.23,1.39,1.16,3.26,1.78,4.87a10.61,10.61,0,0,0,.05,3.81l.63.95,1.35,2.42a3.5,3.5,0,0,1,.34.86,4.51,4.51,0,0,0,.12.72,8.85,8.85,0,0,0,.55,3.19l.06.08s0,0,0,.05a3.07,3.07,0,0,0,.33,2c.5.85.71,1.89,1.7,2.38a1.24,1.24,0,0,0,.28,0,3.36,3.36,0,0,0,2.32,3.14,1,1,0,0,0-.08.25,8.21,8.21,0,0,0,3.25,3.67,1.11,1.11,0,0,0,0,.19c0,.92,1,1.66,1.26,2.52.38,1.41-1.08,1.3-1.45,2.33,5.1,1.37,10.91-.88,16.14-.43,3.49.31,6.95,1.54,10.42,1.07a2.86,2.86,0,0,0,1.31-.43c1.06-.74,1.82-2.54,2.71-3.54l9.22-10.49,2-2.3,1.54-1.75,5.51-6.26a5.78,5.78,0,0,1,.49-.5c.19-.16.4-.28.6-.43a3.53,3.53,0,0,0,1.2-1.91,1.85,1.85,0,0,1-.91-1.94c.07-2.11.09-4.23.14-6.35a5.64,5.64,0,0,0,.55-1.7c.13-4,.06-8,.11-12,0-2-.66-3.42-2.85-3.69-.82-.09-1.65,0-2.48-.08-1.82.18-2.67-.55-2.44-2.46.12-1,0-2.07,0-3.1,0-.88,0-1.8,1.08-2.14a11.89,11.89,0,0,1,2.31,0c1.41,0,2.83,0,4.24,0,2.22,0,4.44.06,6.65-.09C355.07,231.31,355.93,230.52,355.7,228Z"/><path class="cls-5" d="M224.51,235.74l0,0a5.51,5.51,0,0,1,.06-.57c-1.51-2.25-3.57-2-5.75-1.29l-1.52.92-2.9.86a5.89,5.89,0,0,0-4.25-.26l-.46-.13.07-1.92-.12-.48c-.67.14-1.43-.26-2,.34l-.44-.8c-1.92-.73-3.81.55-5.73.08l-2.33-.79h0c-1-1.3-2.79-1.51-3.93-2.64-.86,0-1.84-1-2,1.11-.16,1.85-.18,3.7-.31,5.55a5.26,5.26,0,0,0,4,4.07c2.37.44,4.93,1.15,7.46.62a2.65,2.65,0,0,1,1.91.63h0l.11,1.41h0c-.12.53.11.71.59,1a4.71,4.71,0,0,1,2.28,4.25c0,1.21-.58,2.58.84,3.45h0a1.45,1.45,0,0,1-.06.41,1.23,1.23,0,0,0,0,1,1.11,1.11,0,0,0,.22.3l-.06.59a3.24,3.24,0,0,0,2.18,1.67h0a.29.29,0,0,0,.11.3l.73.71a4,4,0,0,1,.25,1,1.63,1.63,0,0,1-1,2.13,2.77,2.77,0,0,0-1.52,2.71c0,.79,0,1.57,0,2.36s-.35,1.68.76,1.95a2.31,2.31,0,0,0,2.31-.89,12.86,12.86,0,0,0,1.63-3.12,1.32,1.32,0,0,0-.11-.62.54.54,0,0,0,.33-.67l.13,0a5.24,5.24,0,0,0,.76-1c1.32-.69,1.58-2.26,2.62-3.18l.51-.42c2.31-.46,3.72-1.62,3.41-4.23a4.37,4.37,0,0,1,.59-2.28,1.81,1.81,0,0,0,0-1c-.11-1.44-2.26-.89-2.32-2.38l0,0,.22,0a.73.73,0,0,1-.08-.38.46.46,0,0,0,.26,0c.77-.47.77-1.25.89-2,.16-1,.3-2,1.34-2.56a1.2,1.2,0,0,0,.6-.76,3.25,3.25,0,0,0,.11-.42C226.36,238.44,226.25,237.31,224.51,235.74Z"/><path class="cls-1" d="M200.39,249.13c.08.69.3,1.47-.68,1.64-.18,0-1.46-.39-.29-.87C199.9,249.7,199.87,249.12,200.39,249.13Z"/><path class="cls-2" d="M213.89,256.9c-.44-.59-.71-1.34-1.49-1.61a.79.79,0,0,0-.05-.3l-2-1.37,0-.14a1.83,1.83,0,0,0-.21-.92c.07-.27.1-.57.18-.84a2.24,2.24,0,0,0-.06-.73,6.1,6.1,0,0,1-.57-3.34c.09-2.35-1.63-3.77-2.8-5.47a4,4,0,0,0-.54-1.36,2.74,2.74,0,0,0-2-.87c-4.13-.26-8.48,0-11.09-4.22-.47-.16-.67.13-.82.5-.56,1.73.61,2.46,1.88,2.89s2.15,1.95,1.94,2.43c-.7,1.61.15,2.86.34,4.25a2.27,2.27,0,0,0-.88,2.89c.46.94.65,1.81-.69,2.17a.65.65,0,0,0-.31.87,4,4,0,0,0,2.47,1.26,10.17,10.17,0,0,1,4.56,1.71,2.53,2.53,0,0,0,.7.2,1.58,1.58,0,0,0,1.36-.4.82.82,0,0,0,.06-.19h0a.51.51,0,0,0,.27.41,2.94,2.94,0,0,1,.81.64,2.29,2.29,0,0,0,.4.36,8.65,8.65,0,0,1,.89.71c.71.59,1.18,1.43,1.94,2a1.2,1.2,0,0,0,.62.08l.28-.17v0h0l0,0c-.1,1.17,1.22,1.44,1.53,2.36l.76.94c.07-.78.05-1.75,1.05-1.85C214.63,259.58,214.14,258.21,213.89,256.9Z"/><path class="cls-1" d="M139.6,255.9l-.48-1c-.12-.44-.86-.47-.7-1.25a2.36,2.36,0,0,1,2.3,1.78C140.88,256,140,255.83,139.6,255.9Z"/><path class="cls-1" d="M152.17,261.68c-1.34.24-1.89-.08-2-1.15Z"/><path class="cls-6" d="M163.51,234.2a3.31,3.31,0,0,1-4.15-2.4,16.24,16.24,0,0,1-.5-6.11,1.53,1.53,0,0,0,0-1.41c1.29-1.49.61-2.91-.15-4.32a.69.69,0,0,0-.63-.62.68.68,0,0,0-.38.24c-.3-1.94-.39-4-3-4.55l-.09,0,.78-.72h0l.59-.56a7.45,7.45,0,0,0,.32-3.35l-.05-1.45.16,0a2.23,2.23,0,0,0-.53-2.92h0c.62-.81,1.24-1.62,1.85-2.44l.06-1.38h0c.54-.32.54-.65,0-1l.06-.48a.7.7,0,0,1,0-.45c1.27-.32,1.51-1.39,1.79-2.44a8.22,8.22,0,0,1,.21-1.86,1.28,1.28,0,0,1,.66-.32c1-.57,1.91-1.26,2.87-1.89,1.41-.87,1.41-2.62,2.34-3.78a2.37,2.37,0,0,0,.42-1.16,2,2,0,0,1,0-.34l.77-.75c.22-.6,1.26-.95.56-1.82l-.07,0,0-.08-.53-.51h0c-.15-1.15.71-2.28.05-3.44h0a3.6,3.6,0,0,0-.95-2.22,1.86,1.86,0,0,0-.45-2,2.35,2.35,0,0,1,.39-1.85h0a.47.47,0,0,0,.06-.43c.82-.49.42-1.31.55-2a3.81,3.81,0,0,0,.3-2.44l.11-3.36h0l0,.05a7.53,7.53,0,0,0,.43-3.39c.06-1.81.08-3.61.22-5.41.06-.9-.12-1.38-1.11-1.27-.48-.76-1.22-.51-1.91-.5h0c-.68-.22-1-1.21-1.92-.92h0l-1.73-1.51-1.51-1.29h0L158,152.8h0c-1.4-.91-3-.26-4.43-.42h0c-1.08-.07-1.47-1.3-2.48-1.48h0c-.64-1.15-2,0-2.71-.83h0c-1-.24-1.94-1.24-3-.19-.84-.14-1.17.36-1.3,1.08l-.15,1.82c-.7.49-.4,1.24-.49,1.89-.9.83-.2,2.07-.78,3a5.89,5.89,0,0,0,0,2.83c.54.73,0,2.07,1.3,2.37h0l0,1a2.54,2.54,0,0,0,1,2.41h0l.45,1.33a3.41,3.41,0,0,0,1,3.23h0c.81.7-.1,1.4,0,2.09h0c-.84.72-.2,1.66-.39,2.48-.3,1.89.13,3.86-.49,5.73.1,1.42-.58,2.92.39,4.27l0-1.87c1.12-.17,1.79,1,2.87.95,0,0,0,0,.08-.08.46.24.92.47,1.36.75a.86.86,0,0,0,0,.22c.4.4,1.13.38,1.33,1,0,.95.86,1,1.44,1.32,3.39,1.23,3.39,1.23,2.77,4.34-1.2,6.79-2.45,13.59-3.61,20.4-.08.53,0,1.15-.55,1.43l-.05,0-2.34-1.49c-.47-.35-.45-1.35-1.4-1.07-.33-.17-.45-.11-.48.07-.59-.35-1-.89-1.61-1.26a.79.79,0,0,0,.19-.25l-1-1-.5-.44-1-.42L142,207l-2.44-1.83-.44-.56-1.48-.86-1.42-1.14c-1.26-.09-.73,1-1,1.53a1.65,1.65,0,0,1,.06,2.12c-.91,1.38-.52,2.42.85,3.19,1,1.19-.8.74-.79,1.36.71-.15.88.39,1.1.86.32.66.71.73,1.17.14h.45c.59.91,1.67-.21,2.29.56l.28,2.28.46.5.22-.27c.4.91.72,1.84,1.2,2.71-.21,0-.31.14-.09.5-.11,1.11,1.36,1.32,1.36,2.37a3.63,3.63,0,0,0,.55,2.38c-.72,1.86-2.6,3.13-2.73,5.3-.07.61-.29,1.09-1,1a.93.93,0,0,0-.34.86,5.73,5.73,0,0,1,.11,2.18c-.08.42-.22.83-.27,1.26a4.15,4.15,0,0,0,.48,2.18,3.26,3.26,0,0,1,.24,2c0,.49.38.7.68,1,.62,2.41,2.56.92,3.86,1.31a4.4,4.4,0,0,0,3.36.59c1.56-.21,2.26.45,2.4,1.92a4.13,4.13,0,0,0,1.81,1.93c.1.27.22.5.57.39l.34-.25a1.66,1.66,0,0,0,.21.16,3.75,3.75,0,0,0,4.15-.6l0,0a1.08,1.08,0,0,0,.83.67,1.88,1.88,0,0,0,2.17-1.6c.23-.89.22-1.83.48-2.72a8.75,8.75,0,0,0,.43-2.79c-.2-2.2.56-2.78,2.7-2.15.61.18,1,.75,1.68.84.38-.06.68-.17.47-.66C166.14,234.46,165.34,233.77,163.51,234.2ZM167,167a1.15,1.15,0,0,1-.11.72h0A4.48,4.48,0,0,0,167,167Zm-.17-7.94v.06l0,0Z"/><path class="cls-5" d="M153,187.3c-.16-.58-.8-.36-1.21-.51,0-.11,0-.22-.05-.33-.05-.91-.95-.89-1.43-1.32a17.45,17.45,0,0,1-1.82-.95c-.94-.28-1.67-1.59-2.87-.58a2.67,2.67,0,0,0,.16,1.78c-.24,1.11.45,2.44-.64,3.32a4,4,0,0,0-1.29,3.62,3.22,3.22,0,0,1-1,2.74c-.58.11-1.69-.39-1.42.81s-1,1.32-1.38,2h0l-.14.08v.15a3.66,3.66,0,0,0-1.72,1.17h0l-1.5.59c-.81.1-2.05-1-2.24.82h0l-.63.08-.87-.5c-1-1-2.27-.3-3.4-.46h0l-1.11-.06c0-1.34-1.23-.86-1.83-1.32-.68-.27-.93-1.31-1.9-1h0c-.43-1-1-1.39-1.9-.49.37-1-.58-1.3-.88-1.94-.14-.84,0-2-1.47-1.42h-1.4c-.48-.92-1.28-.16-1.89-.36h0c-1.82-.5-2.38-2.26-3.49-3.46-.13-1.14-.63-1.89-1.9-1.88h0l-.34-.54c-.52-.68-1.27-.44-2-.49.3-1.54-.4-2.11-1.88-1.94-.69.08-1.39.1-2.08.14-.9-.47-.24-1.36-.55-2,.47-1.2,1.5-2.47-.38-3.36.12-1-.63-1.4-1.35-1.81h0l-.47-.13h0c-.49-.72-1-1.43-2-1.38h0c-2.46-1.91-4.91-3.84-7.37-5.73-.54-.41-.85-1.35-1.69-1.07-1,.35-.43,1.34-.59,2-1.28.59-1.22,1.64-.94,2.76l0,.66h0c-1-.12-1,.57-1,1.24-.54.76-1,1.53-.45,2.48l0,.65c-1.63.17-.88,1.31-.87,2.14h0l0,.53c-1.45.35-1.19,1.37-.94,2.38h0l-.58.59h0a2,2,0,0,0-.4,2.24h0l-.6.68-.78,1.73h0l-.63,1h0l-.48.11h0a2.31,2.31,0,0,0-2.28.43h0a2.28,2.28,0,0,0-1.49,1c-.68-.21-1.35-.46-1.9.26h0l-2.36.72c-.72.3-1.66.29-1.85,1.32-3.08,1.26-6.29,2.18-9.2,3.85l-.95.38h0l-.39.08a1.22,1.22,0,0,0-1.73.47,4.67,4.67,0,0,0-2.09,1,1.77,1.77,0,0,0-2,.53h0c-.58.23-1.22.37-1.51,1-1.28-.48-2.28.16-3.28.82h0l-.61.58a2.41,2.41,0,0,0-2.22.47h0L44.27,206h0a1.79,1.79,0,0,0-2,.62c-.88.22-2,0-2.3,1.28h0l-1.65.59h0c-.86-.44-1.56.09-2.3.4h0c-1,.3-1.57,1.48-2.76,1.42a1.75,1.75,0,0,0-2,.61,2.53,2.53,0,0,0-2.09.82c-2.14,1.07-3.24,3-4.11,5.08l-1.9.73h0c-1-.05-2.07-3.15-2.95.09-2.26.51-1.14,1.6-.46,2.62v.52c-1.29-.27-1.62.5-1.68,1.56h0a5.94,5.94,0,0,0-1.66,2.36c-1.17.37-.8,1.68-1.46,2.37h0l-.79.06h0a2.75,2.75,0,0,0-1.59-2.4c-.11,1.38,1.16,2.52.13,3.69-.39.92-1.65,1.32-1.54,2.54-1.72-.13-.68,1.35-1.13,2h0c-.32,0-.37.17-.29.43h0c-.72,0-1.28.14-1.36,1h0c.22,1.56-.94,3.35.76,4.67h0c1.75.14,2.33,2.14,4,2.48s.83,2.53,2.38,2.87c.29.5-1.12,1.45.42,1.63h0l1.5,1.24c-.12.08-.36.18-.35.23.11.45.46.16.7.19l1.48,1.65c.22.47.43.94.65,1.4.47.75.36,1.84,1.36,2.28h0l.95,1.92h0c.34.94-.88.84-1,1.48h0l-1.39.76h0a2.54,2.54,0,0,1-1.86,0c-1-.53-2.1-.9-3,.19l-.78.6c-.25.42-1,1.1-.82,1.1,1.2,0,2.31,1.29,3.54.26h.61c1.05,1.16,2.46.89,3.78,1,1,.95,2.36.13,3.38.85h0l2.85.47,2.89.46,1.89.12c1.16.87,2.63.38,3.87.88l2.87.46,2.87.47,2.34.15a2.07,2.07,0,0,0,2,.36l8.12.07h0c.71.72,1.59.43,2.42.41l6.69.09a5.17,5.17,0,0,0,2.88.38l11.5,0c.87.76,1.91.5,2.91.45l10.44.13a8,8,0,0,0,3.94.34l10.41.16c2.66.69,5.37.38,8.06.36,4.9,0,9.81.36,14.7-.35,1.87.17,4.45-1.09,4.74,2.32h.32c0-1.25-.18-2.55,1-3.43a.52.52,0,0,0-.39-.6c.67-1.14-.34-2.12-.44-3.19-.23-.86-.72-.89-1.3-.59h0c-.66-1.1-1.77-1.79-2.52-2.8a1,1,0,0,0-.22-.08v-1.28h0v-.44a.48.48,0,0,0,.26-.09c.6-1,1.11-2.13,1.77-3.14.95-1.88-1-3.27-.85-5l-.22,0c0-.28,0-.56.07-.83s-.17-.28-.35-.1H130c.33-1,.37-2.12.75-3.13V244a1.64,1.64,0,0,0,1-.31c.52-.53,1.64-.45,1.68-1.45l.14,0a1.45,1.45,0,0,0,1.07-1,.34.34,0,0,0,.16-.12,2.59,2.59,0,0,1,1.86-.58,1.51,1.51,0,0,0,.73.24,2.17,2.17,0,0,0,1.57-2.36,1.74,1.74,0,0,0,2.09-.6,1.52,1.52,0,0,0,.13-2.13l-.63-2.29.35-1c0-.81.51-1.68-.3-2.38v-.8a.85.85,0,0,0,.35.11c.63,0,.92-.48,1.14-1,.2-2.09,2.35-3.26,2.56-5.35l-.27-.42a2.73,2.73,0,0,0-.37-1.88,1.51,1.51,0,0,1,.12-.31c0-1.09-.85-1.69-1.33-2.51a29.65,29.65,0,0,1-1.43-2.88,1.17,1.17,0,0,0-.61-.49,2.11,2.11,0,0,0,0-1.85c-.49-1.14-1.56-1-2.51-1.13a4.48,4.48,0,0,0-.64-.05c-.55.07-.94-.46-1.41-.69.52-.27.78-.7.25-1.58a2.46,2.46,0,0,1-.66-2.92c.27-.71.5-1.54-.35-2a2.9,2.9,0,0,1,.88-1.14,3,3,0,0,0,1.08,1.06,4.29,4.29,0,0,0,1.59.78.88.88,0,0,0,.26.49,24.79,24.79,0,0,0,2.43,1.9,9.24,9.24,0,0,0,1.5,1.06,1.7,1.7,0,0,0,1.13.19c0,.34.1.48.47.35-.2.59.32.86.64,1.21a12.75,12.75,0,0,0,2.06,1.45,10.59,10.59,0,0,1,1.43,1.15c.77.5,1.33,1.43,2.45,1.19l.09,0a1.09,1.09,0,0,0,.07.3c1.37.65.88-.37.86-1h0c.63-3.08,1.42-6.13,1.85-9.24.56-4.14,1.78-8.16,2-12.34C157.34,188.83,156.84,188.17,153,187.3Zm-65.18-5.77.16-.25A.82.82,0,0,1,87.86,181.53Zm3.8,84a2.35,2.35,0,0,0-.11-.24l0,0,.26.09Z"/><path class="cls-1" d="M176.61,277.31a4.36,4.36,0,0,1,.32.84c0,.21-.07.56-.37.25a2.21,2.21,0,0,1-.36-.86A2.18,2.18,0,0,1,176.61,277.31Z"/><path class="cls-5" d="M181.64,283.26c-.29-.56-.2-1.28-.65-1.77a3.63,3.63,0,0,0,.09-.56c-.37-1.5-1.47-2.82-1.17-4.51a13.05,13.05,0,0,0-1-6.7,18.1,18.1,0,0,1-1.58-3.29,4.26,4.26,0,0,0-.4-.8v-.51a4.62,4.62,0,0,1-1-3.3c-.83.74-.88,2.21-1.88,2.79a7.7,7.7,0,0,0-.91.18.91.91,0,0,0-.88.18l-.61.59a3.91,3.91,0,0,0-2.86,1.74c-.59.65-2,.6-1.85,1.84.18,1.62-.59,3-.91,4.51,0,.79,0,1.58,0,2.37a1.13,1.13,0,0,0-.09.45c-1.67,1.15-3.6,1-5.43.84-1.34-.13-2.59-.48-3.68.6l-.4.07c-1.43,1.16-3.16,1.21-4.87,1.32-.69.23-.93,1.24-1.85,1.07l-1,1c-1.23-.2-2.23.58-3.37.77-1.1,1-2.06,2.19-1.68,3.62A5.17,5.17,0,0,1,143,290c0,.14,0,.28,0,.41l-.95,1c-1.22,1-2.75,1.84-2.4,3.84-1.13,1.31.09,2.55.1,3.82L139,301c-1.05,1.14-.87,2.43-.63,3.82s1,2.94-.68,4a4.29,4.29,0,0,1-.6.13l-.36-.38c-1.12-.45-2.1-1.25-3.35-1.37-.55-.71-1.13-1.32-2-1.07a1.14,1.14,0,0,0-.59-.22c-2.66,1.05-4.61,3.05-6.62,5a1.89,1.89,0,0,0,.09.21c-.51.09-.37.56-.47.9l1.33,1.1a5.2,5.2,0,0,0,1.83,3.25l1.64,1,.12,1.83a2.74,2.74,0,0,0,.8,1.68,11,11,0,0,1,1.68,1.85c1.14,1.61,2.07,3.35,3.17,5a29.36,29.36,0,0,0,2.33,3,14.77,14.77,0,0,0,2.65,2.41c1,.66,2.31.87,3.19,1.62.63.54,1.42,1.17,1.91.14.42-.88.92-1.72,1.32-2.62s.52-1.79.9-2.65a15.25,15.25,0,0,1,2.28-3.69,13.58,13.58,0,0,0,2.76-4.26l1.37-1.48c1,0,2.12.41,2.84-.74a.4.4,0,0,0-.24-.18,7.08,7.08,0,0,0,3-2.91l1.09-1,11.49-1.86c1-.31,2.22-.12,3.07-1,.12-.17.23-.36.35-.53a1.78,1.78,0,0,0,.91-.78l.18,0a2.79,2.79,0,0,0,.83-.36,2,2,0,0,0,.37-.5c.27-1,1.14-1.43,1.79-2.08a3.41,3.41,0,0,0,.31-.6,6.19,6.19,0,0,0,.14-4.56,1.07,1.07,0,0,0-.34-.27c0-.43,0-.85,0-1.28s.12-.94.19-1.41c-.16-1.25-1.24-1.1-2.05-1.35,0-.07,0-.14.07-.22-.8-.67-1.65-1.3-1.11-2.55a1.74,1.74,0,0,0,0-.6c1-.58.59-1.91,1.27-2.65.1-.23.19-.47.28-.71l1-.57c.43-1.14,2.83-.37,2.33-2.4l.16-.48c-.08-.33,0-.75-.38-.92,0-.06.09-.11.13-.18a4.38,4.38,0,0,0,.31-2.09.38.38,0,0,0,0-.1h.39C181.08,284.51,182,284,181.64,283.26Zm-4.16,16.27Z"/><path class="cls-4" d="M224.88,98.71h0Z"/><path class="cls-4" d="M258.73,116.33h-.16a2.49,2.49,0,0,0-.14-.41,6.48,6.48,0,0,1-.61-3.41c.13-1.81-.11-3.64-1.68-4.93-1.58.06-1.22-2.43-2.91-2.22l-.47-.39c-1.86-.44-3.72-.92-5.16.92h0c-.81.26-.71,1.17-1.18,1.67s-.53,1.58-1.48,1.05c-.68-.37-.21-1.08-.06-1.69.38-1.58.5-3.14-.76-4.45l-.41-1c.12-1.49-1.27-1.67-2.06-2.37s-.12-1.65-.53-2.39c-.12-.68-.67-1.06-1.08-1.53h0c-.42-1-1-1.83-2.15-1.94a.64.64,0,0,0-.91.12,7.26,7.26,0,0,0,.57,4.32c.83,1.93-.06,3-2.2,3-.45,0-.92.26-1.36.23-2.54-.15-5.23.83-7.57-.92-.24-.76-1.08-.83-1.53-1.35-1.56-.33-1.82,1.33-2.83,1.86-.42.35-1-.09-1.44.3-1.83-.56-3.75-.93-5.28-2.22-1.18-.31-2.53-.31-3.36-1.34a3.59,3.59,0,0,0-4.28-1.14c-.13-.52.2-.89.43-1.28-1.26-.22-1.09.81-.91,1.34.56,1.6,0,3.17,0,4.74h0c-.07.28,0,.47.31.54h0c.45.89,1.93.22,2.16,1.44l.16,0,.1,0h0l-.28,0c.69,1,2.59,1.5,1.37,3.3h0l-.07,1c-1.18.88-1.35,2-.5,2.83,0,0,0,0,0,.05a.26.26,0,0,1,.09,0,3.86,3.86,0,0,0,.38.3,2.78,2.78,0,0,0,1,2.08h0v.53c-.71.78-.32,1.55,0,2.33h0c-.64,1.64,1.58,2.19,1.41,3.66-.31,1.07-.77,2.15,0,3.22h0c.66.55,1,1.42,2,1.68s1.51,1.83,2.88,1.09h0l.54-.07h0c.34,1.44,1.42.85,2.29.84l-.25-.11a.57.57,0,0,1,.25.11l1,.07h0l1.17.06h0c.8,1,1.79.34,2.7.33l.48-.38.68-.06a2.06,2.06,0,0,0,.37.23.72.72,0,0,0,.45-.15,3,3,0,0,0,3.46.77c1.45-.68,2.18.15,3.16.68a2.54,2.54,0,0,0,2.93.1c.39,0,.91-.27,1.14-.1a5,5,0,0,0,5.16.58c.34-.13.87.25,1.31.39.5,1,.93,0,1.39,0,.39-.39,1.36.17,1.48-.64a4.63,4.63,0,0,0,1.6.38.67.67,0,0,0,.34-.13c.13.63.25,1.25.38,1.87l1.05.38h.48c1.66,0,3.9.94,3.37-2.27l0-.1.46.1c1-1.16.49-2.81,1.21-4.07l.14.19c.42-.23.37-.58.24-1a2.88,2.88,0,0,0-.68-1.9l.48-.82.21,0a1.69,1.69,0,0,0,.66-.64l.6-.08C258.24,118.51,259.67,117.52,258.73,116.33Z"/><path class="cls-6" d="M327.44,159.56c-.08-.75-1-1.07-.92-1.92l-.86,0h0a1.61,1.61,0,0,1-.08-.38l-1.91-.92-1.42-1.08-.85-.31s0,0,0,0c-.16-.53-.81-.25-1.06-.63a3.91,3.91,0,0,1-3-1.87c-1.61-.45-2,1.25-3.05,1.75l-2.14-1.79h0l-.48-.52a3.17,3.17,0,0,1-1.5-1.37,8.26,8.26,0,0,0-4.75-2.86,7.29,7.29,0,0,0-1.48,0c-.58-.15-1.17-.3-1.75-.48a.86.86,0,0,0,.07-.21,3.27,3.27,0,0,0-2.54-2.32c-2.55-.43-5.28.56-7.71-.92-.49-.22-1.08.13-1.56-.17.53-.72.24-1-1.32-1.82-1.26-.23-2.76.34-3.65-1.09-.92-.68-1.79-1.57-3-.63-.35.68-.94.39-1.47.36a1,1,0,0,0-1.45.4,2.36,2.36,0,0,0-1-1.26c-.79-.31-1.71-.32-2.34-1,.14-.64-.75-1.78.65-1.75.64,0,1.22,1.36,2,.64s-.84-1.1-.71-1.88c0-.15.22-.32.18-.42-.57-1.54-.76-3.77-1.87-4.43a12,12,0,0,1-2.66-2.68.73.73,0,0,0-.54-.37.82.82,0,0,0-.44,0c-.4-.54-.69-1.3-1.22-1.58-2.14-1.14-2-2.57-.8-4.23a1.75,1.75,0,0,0,.34-.14c.75-1.31,1.53-2.61,1.09-4.22a.72.72,0,0,0-.59-.41c-.51-.74,1.32-1.22.22-2-1,.74-1,1.91-1.42,2.93-.4,0-.88.09-1-.49,0-.87.46-1.81-.38-2.55h0c-.19-.45-.37-.9-.55-1.35h0c.52-.8,1-1.6.07-2.44h0l-.15-.49h0c-.3-.85-1.09-1-1.81-1.24-.89,0-1.45-.45-1.4-1.41,0-.72-.15-1.18-1-1.11l-1-4.21c.33-.67,1-1.37.93-2-.08-.93,1.07-2.44-.93-2.75h0c-.4-1.28-1.52-2-2.38-2.85h0c-.08-1,.13-2-1-2.55-.33-.8-1-.19-1.46-.32a1.86,1.86,0,0,0-.49.52,4.85,4.85,0,0,0-.56,4.14,5.79,5.79,0,0,1-.92,4.64,3.26,3.26,0,0,0-.44.15,5.65,5.65,0,0,1-.08,1.4c0,.07,0,.15-.05.22-.34,1.31-1.34,2-3.19,1.84a.75.75,0,0,0,.4.81c1.1.49,1.42,2,2.8,2.1a.57.57,0,0,0,.23-.2c.66,1.38,1.52,3,1.15,4.3a5.36,5.36,0,0,0,.75,4.4.43.43,0,0,0,.36.12c.55,1.06-.54,2-.43,3a.59.59,0,0,0-.44.22l-.57.59a.91.91,0,0,0-.7,1,6.64,6.64,0,0,1,.64,1.83.49.49,0,0,0,.19.07l-.14.58a.83.83,0,0,0-.43-.21c-1.56,1.1-.44,3.07-1.42,4.36-.63,1.21-1.43,2.13-3,1.73l-.65,0a2.21,2.21,0,0,0-1,0,.25.25,0,0,1,0-.07,2.12,2.12,0,0,0-.7-1.67,2.18,2.18,0,0,0-1.91-.48c-.21.65-1,.3-1.39.73a8.7,8.7,0,0,1-1.68-.3,37.35,37.35,0,0,1-7.38-.84,3.24,3.24,0,0,1-2.74-.09,4.06,4.06,0,0,0-3.54-.82,6.49,6.49,0,0,1-3.41-.22h-.48a1.16,1.16,0,0,0-.91-.23c-.32.11-.58.27-.5.68.59.21.7,1.07,1.44,1.08h0l.42.37h0l-.34,4.89h0l-.08,3.78-.05,0v.07c-1,.8-.27,1.87-.43,2.8h0a4.81,4.81,0,0,0-.51,2.47h0c-1,.92-.1,1.53.36,2.22h0l1.55.06h0l.49.08h0l.93.9a4.23,4.23,0,0,0,2.38,2.26c.09.6-.32,1.33.44,1.75h0l.95.89a1.87,1.87,0,0,1,.08.34,2.35,2.35,0,0,0,.44,2.43h0l.64.08h0c.27.45.55.9.82,1.36-.83,1-.69,1.85.5,2.47h0l.4.48,2.84.81h0c1.22.32,1.56-.67,2.08-1.4v-.27h0a.39.39,0,0,1,0,.26c.94.17,1.87.27,2.33-.86h0a.43.43,0,0,0,.11-.37h0l.89-.12h0c.64.72,1.27.5,1.91,0,.84-.16,1.82.47,2.53-.44h0c.22.31.13.84.67.91h0c.7,1.09,1.84,1.23,3,1.41h0l1,.52h0c.51.92,1.53.47,2.25.84h0c1.65.84,2.37,2.78,4.12,3.52h0c.08,1,.86,1.56,1.22,2.37.16.72.51,1.55,1.28,1.28.56-.19,1.48-.7,1.11-1.74.17-.17.34-.35.52-.52h0l.06-.5h0c1.78-.45.76-1.85.95-2.84h0c1.24-.36,1.56-1.61,2.36-2.4h0l11,.18a.19.19,0,0,0,.1.29,7.16,7.16,0,0,1,.2,2.84c.12,6.29-.21,12.58.17,18.87l0,8.47a14.72,14.72,0,0,0,0,7.71l.23,0,.24,0c.65.91,1.65.25,2.44.56.57.62,1.27.36,1.94.31h1.46a.78.78,0,0,1,.3-.13l-.3.13a8.88,8.88,0,0,0,4.3.47,76.67,76.67,0,0,0,11,1.13c.39.55.93.41,1.45.31a50,50,0,0,1,7,.71c2,.28,2.12-.48,2.15-1.89.86-1.25.22-2.68.46-4a1.32,1.32,0,0,0,.44-.08h0l1.85.16h0c1,.86,2.41,0,3.43.8,1.82.51,1.31-1,1.54-1.81h0a8.55,8.55,0,0,0,.77-3.37l.24-.92h0c.33-1.27,1-2.48.7-3.87,0-.8,0-1.61,0-2.41a.43.43,0,0,0,.1-.42c.77-.67.29-1.64.57-2.43a.81.81,0,0,0,.29-1l0-1h0l.63-2.36h0c.61-.39.34-1,.29-1.48a16.12,16.12,0,0,0,1.05-4.8h0c1.52-.68,1.62-1.94,1.35-3.35.75-1.67,1.68-3.3,1.09-5.25a.94.94,0,0,1,.37,0Zm-15.69-6.84Z"/><path class="cls-6" d="M209.13,258.28l-.49.1h0c-.81-.81-1.31-1.92-2.37-2.49-.11-.55-.59-.42-1-.5-.33-.59-.2-2-1.51-.83a.34.34,0,0,0,.06-.24l-1.47.21a1.83,1.83,0,0,0-.46-.12.09.09,0,0,1,0,.05s0,0,0-.05c-1.86-2.29-5-1.39-7.19-2.91h0l.5-.39c0-.76-.42-.78-1-.56a13.58,13.58,0,0,1-3.81-.31.83.83,0,0,0-.95.41c-.4.89-1.61,0-2,.93h0c-2-.09-2.48,1.38-3,2.84a1.3,1.3,0,0,0-1.32.51,8.28,8.28,0,0,0-6.54-1.46c-.47.07-1-.29-1.53-.45l-.52.38a2.4,2.4,0,0,0,1.26,2.18l.16,0a1.57,1.57,0,0,1,0,.66l-.17.36a2.8,2.8,0,0,1-1.32.62.32.32,0,0,0-.41.17c-.61.95-1,1.89,0,2.84.37,1.78,1.27,3.79-1.78,4.11-.05,0-.06.43-.08.66l.82-.12a2.12,2.12,0,0,0,2.51-1.38,1.73,1.73,0,0,0,1.26,1.62c.41,1.59.89,3.12,3,3,1,.18,2.38,1.47,2.71-.78a2.17,2.17,0,0,1-.11-.44c.82-.26.95-.92,1-1.61a2.38,2.38,0,0,0,.72-.69,3.45,3.45,0,0,0,.46-1.78c.23-2.69.23-2.69,2.85-1.7a7.93,7.93,0,0,0,3.13.44c1-.38,1.93-1.08,2.94.12a2.25,2.25,0,0,0,2.46.42c2-.65,4.14-.89,6.21-1.37a11.4,11.4,0,0,0,1.12-.74l.23-.22,1.09.5h0c.72.33-.07,2.86,1.93,1.33,2.4,1.09,3.46.85,3.95-.89C211.53,259,209.38,259.25,209.13,258.28Z"/><path class="cls-3" d="M174.77,257.48c.9-.36,2.12-.52,1.24-2-.68-.56-.51-1.69-1.41-2.1a.72.72,0,0,1-.41,0c-1.51-1.71-1.16-3.63-.71-5.6.24-1.09.54-2.46-1.48-1.65-1.22.49-.9-.73-1.25-1.2l-1.42-1.5c-1.15-1.24-2.51-2.29-3.3-3.84h0a2.06,2.06,0,0,0,.32-1.89l.18-1.44c-1.47-2.35-3.72-1.16-5.87-1.4a7,7,0,0,1,.58,5.25c-.77.7-.53,1.62-.53,2.47,0,1.31-.63,1.91-1.92,1.84l-.47-.39c-.94.08-1.83.66-2.77.73-.25,0-.49,0-.74-.06a2.74,2.74,0,0,1-.7-.33c-.25-.13-.4-.13-.49,0l-.57-.18a2.4,2.4,0,0,0-.32-.17,4.58,4.58,0,0,0-1.47-1.4,2.18,2.18,0,0,1,.15-.63c-.13-1.36-1-1.87-2.25-2a11.43,11.43,0,0,1-3.29-.33c-1.49-.45-3.26.1-4.48-1.27h0l-.3-.56a4.48,4.48,0,0,1-2.48.36c-.45.78-.1,2-1.38,2.32-.88-.22-1.77-.57-2.44.43l-.07.16a.58.58,0,0,0-.34,0l-.91.93c-.35.9-1.41.88-2,1.52l-.93.4c-.48,1.05-1.8,2-.43,3.28a.37.37,0,0,1,.14,0,.11.11,0,0,0,0,.06.94.94,0,0,0,.16.91,3.36,3.36,0,0,0,.55,3,1.44,1.44,0,0,1,.11,1.85,5.62,5.62,0,0,0-1.62,3.33,1.21,1.21,0,0,0-.34.6,1.68,1.68,0,0,0,.34,1.33c.15,1.55,1.58,2,2.51,2.87.53.08,1.13-.08,1.53.46l.38-.49c.07-1.06-.92-1.11-1.5-1.53-1.34-1-1.27-1.48,0-2.42,1.12-.79,2.23-.33,3.35-.28a2.08,2.08,0,0,1,2.2.82c.89,2.71,1.82,1,2.79.17,2.7.61,6.16-.15,6.93,3.89-.36,2.8,1.76,2.48,3.43,2.72l.88.05h0l1,.49,1.45-.11,4.32,2.37.5-.39c1.93-.26,3.67.76,5.55.86,0,.07.06.13.08.2,1.43,1.15,2.41-.05,3.49-.68l.23-.14.18.14,2.7-1.63a1,1,0,0,0,.33-.05,3,3,0,0,0,.85-.55c2.67-1.49,2.8-1.82,1.93-4.73a5.18,5.18,0,0,1-.29-2.81,1.1,1.1,0,0,1-.14-.18.62.62,0,0,0,.27-.09A.71.71,0,0,0,174.77,257.48Zm-17.1-12.22v0h0Z"/><path class="cls-1" d="M181.31,277.47c.23-.62-1.17-1.65.47-1.92C182.92,276.22,182.89,276.33,181.31,277.47Z"/><path class="cls-1" d="M186.1,289.47c-.47.49-.2,1.43-1,1.66-.07,0-.28-.46-.42-.71A1.43,1.43,0,0,1,186.1,289.47Z"/><path class="cls-2" d="M218.25,272.25a1.65,1.65,0,0,0,0-2.51,2.29,2.29,0,0,0-1.42-2.36.55.55,0,0,0-.15-.08l-1.37-.75c-.86-.78-.52-1.7-.18-2.52.53-1.26,1.44-2.35,1.69-3.74.22-.42,0-.55-.37-.51-.24.3-.48.61-.71.92a1.21,1.21,0,0,0-.34,1c-.78,1.91-1.36,4-4,4.24v-4.27c-.26-.39-.06-1.25-1-1-1,1.1-2.25.89-3.5.64-1.1.14-1.42-.82-2-1.4a1.38,1.38,0,0,0-1.56-.29c-.36.15-.89,0-1,.6a39.75,39.75,0,0,0-6.83,1.38c-.52.14-1.46.37-1.68-.33-.94-2.84-2-.67-3-.14-1.12.32-2-.65-3.11-.53-.35-.15-.68-.32-1-.45-2.32-.84-2.47-.7-2.59,1.76,0,.88.45,1.87-.39,2.64-.22,1-1.11,1.51-1.43,2.41,0,2.54-1.23.69-2,.56h0c-2.3.33-2.64-1.31-3-2.95-.43-.05-.6.22-.73.56a2.17,2.17,0,0,0,.28,1.32c.46,1.16.5,2.51,1.49,3.45.37,1.91,1.44,3.72,1,5.76s.4,3.93,1.44,5.68c.3.67,0,1.41.25,2.09A10.06,10.06,0,0,0,181,285a.64.64,0,0,0-.59.25c0,.77,0,1.55,0,2.32a1,1,0,0,0,.21.75l0,.1a6.44,6.44,0,0,0-.24.61c-.31,1-1.32,1.3-2,1.95a7.06,7.06,0,0,0-1.33,1.29c-1.44.65-.59,2.26-1.33,3.2l-.12.71c-1.61,2,.41,2,1.44,2.54a10,10,0,0,0,1.92,1.3,1.19,1.19,0,0,0-.15.09,2.22,2.22,0,0,0-.4,1.41,2.32,2.32,0,0,0,.47,1.41c.39,1.8-.14,3.54-.41,5.29l.91-.2a1.57,1.57,0,0,0,1-1.94c-.47-1.25.5-1.48,1.07-2a.63.63,0,0,0,0-.22c.85.11,1.92-.22,2.22,1s-.51,1.89-1.36,2.5l.05.61a3.26,3.26,0,0,0,1.94-1.66v-.95c.88-.82.5-2,.83-3l0-1.8c1-1.06,1-2.39,1-3.71,0-1.7-.27-3.46.82-5,.49-2.09,2.61-2.3,3.94-3.43a11.6,11.6,0,0,0,4.28-4.72h0l2.49-3.76h0l1.81-2,.65-1.42a2.87,2.87,0,0,0,.32-2.3c.29-.07.38-.32.37-.64.88-1.31.5-2.92,1.07-4.32.44-1.08,1.28-2.51,2.12-2.08,1.09.57,3.38.77,2.66,3.11,0,0-.08.05-.12.16s0,.21.1.32l.42,1.95a8.94,8.94,0,0,0,.11,3.34l.17-.06c.15.66.74.62,1.12.5,2.28-.72,4.72-.9,6.89-2h0c1-.68,1.89-.66,2.47.58.41.06.68,0,.44-.5A1.67,1.67,0,0,1,218.25,272.25ZM184.8,299.89v0h0v0Z"/></svg>