<svg id="Capa_1" data-name="Capa 1" xmlns="http://www.w3.org/2000/svg" viewBox="0 0 400 400"><defs><style>.cls-1{fill:#606060;}.cls-2{fill:#9a9a9a;}.cls-3{fill:#676767;}.cls-4{fill:#d6d6d6;}.cls-5{fill:#cdcdcd;}</style></defs><title>mapaGris</title><path class="cls-1" d="M307.09,64.62l0,.48c0,.11,0,.22,0,.33a3.15,3.15,0,0,1-.59,1.87,1,1,0,0,1-.54.34,1.52,1.52,0,0,1-1.21-1c-.19-.67-.82-1.23-.54-2Z"/><path class="cls-1" d="M328.63,199.67c.23-1.18.32-2.39-.69-3.34a2.4,2.4,0,0,0-1.83-.31,6.29,6.29,0,0,0-1,.31c-1.48,1.06-1.67-.47-2.29-1.14a7,7,0,0,0-2.94-.81c-2.28-.52-.85-1.95-.76-3.06,1.32-3.72,1.19-7.68,2-11.48a22.74,22.74,0,0,1,.6-2.84c.47-1.84.74-3.71,1.16-5.56a3.86,3.86,0,0,1,.87-2.1,4.14,4.14,0,0,0,.61-1.18,29,29,0,0,1,.85-2.83,9.5,9.5,0,0,0,.3-1.28c.41-1,.12-2.15.78-3.07l.67-.09a1.67,1.67,0,0,0-1.14-1.52,1.77,1.77,0,0,0-1.28.33,1.15,1.15,0,0,0-.4.53c-.23,1.76-.85,3.42-1.21,5.14a6.43,6.43,0,0,1-1.32,3.39c-.44,1.46-.78,3-1.12,4.43a8.53,8.53,0,0,1-.34,1.67,19.8,19.8,0,0,0-.6,2.26q-.06.49-.09,1a8,8,0,0,1-.28,1.27,19.24,19.24,0,0,1-.49,2.28,4.07,4.07,0,0,0-.13.68c-.08.7-.07,1.41-.09,2.12a12.57,12.57,0,0,1-.71,3.74,7.35,7.35,0,0,0-.2,1,24.15,24.15,0,0,1-.71,3.25c-.22.55-.16,1.33-1.07,1.33-1-.28-2.13-.24-3.16-.55a5.32,5.32,0,0,0-.67-.14,3.13,3.13,0,0,0-1.79.17,1.24,1.24,0,0,0-.51.53c-.49,1.14-.08,2.44-.59,3.58-.25,1.15-1,1.37-2.09,1.38-2.2,0-4.34-.57-6.53-.59a6.85,6.85,0,0,1-1.85-.33c-3.5-.33-7-.62-10.48-1.07a19.19,19.19,0,0,1-4.27-.46c-.49,0-1,0-1.48,0a5.9,5.9,0,0,1-2.05-.22,17.2,17.2,0,0,0-2.36-.34,1.1,1.1,0,0,0-.62.25l.15.93a1.28,1.28,0,0,0,1.14.93c1-.06,2.05-.19,3.07-.33l13,1.41c1.84,1.27,4,1.09,6,1.07,3,0,5.9,1.56,9,.69a1.08,1.08,0,0,0,.54-.57,20.51,20.51,0,0,0,.6-2c.46-1.27.1-3.14,2.09-3.51l3.91.73c1,1.33,2.63-.16,3.75.75.67.29,1.47.3,1.49,1.43,0,2.08,1.33,1.61,2.27.77.65-.59,1.14-1,2-.79.83.94.33,2.25.89,3.26a1,1,0,0,1-.39,1,4.27,4.27,0,0,0-.55,2.64,1.71,1.71,0,0,0,.35.7c-.36,1.47.36,1.75,1.6,1.44a.81.81,0,0,0,0-.86,1.84,1.84,0,0,1-.05-1.54C328.47,202.69,328.34,201.16,328.63,199.67Z"/><path class="cls-1" d="M276.93,158.1c.16.35.45.69.45,1,0,6.89-.05,13.78-.08,20.67-.62-3.95-.28-7.93-.33-11.9C276.93,164.64,276.94,161.37,276.93,158.1Z"/><path class="cls-1" d="M340.16,248.71c-.76,3.23.51,6.54-.45,9.77-.17.57.1,1.28-.5,1.74,0-3.15,0-6.3,0-9.45C339.23,250,338.85,248.94,340.16,248.71Z"/><path class="cls-1" d="M351.67,218c0-2.56,0-5.11,0-7.67,1.06,2.83.2,5.76.47,8.63A1,1,0,0,1,351.67,218Z"/><path class="cls-1" d="M304.7,201.73c1.56-1,3-1.11,4.3.48C307.67,201.16,306.06,202.52,304.7,201.73Z"/><path class="cls-1" d="M296.07,200.3h3.34C298.3,201.92,297.19,200.68,296.07,200.3Z"/><path class="cls-1" d="M336.7,208.35c.48-.12.53.12.52.36a.61.61,0,0,1-.57.63c-.25,0-.53-.05-.42-.35A2.36,2.36,0,0,1,336.7,208.35Z"/><path class="cls-1" d="M345.91,230.41h-2.85A2.45,2.45,0,0,1,345.91,230.41Z"/><path class="cls-1" d="M310.09,199.81h.36a2.81,2.81,0,0,1-.95,2.39,3.5,3.5,0,0,1,.46-1.95A.84.84,0,0,1,310.09,199.81Z"/><path class="cls-1" d="M349.26,230.41h-2.37A1.79,1.79,0,0,1,349.26,230.41Z"/><path class="cls-1" d="M303.13,201.71c.22.15.56.27.68.51s-.15.39-.37.29a4.93,4.93,0,0,1-.76-.53Z"/><path class="cls-1" d="M339.69,83.8c0,2.71,0,5.43,0,8.14A14.72,14.72,0,0,1,339.69,83.8Z"/><path class="cls-1" d="M299.42,68.45c-.18-.09-.77-.16-.37-.37a1.41,1.41,0,0,1,1.81.37Z"/><path class="cls-1" d="M157.05,215.21a3.93,3.93,0,0,1,1.94-3.82C158.41,212.52,157.84,213.65,157.05,215.21Z"/><path class="cls-1" d="M189.09,224.81c-.8.43-1.45.76-2.21.32a.85.85,0,0,1,.14-.63C187.73,223.83,188.38,223.94,189.09,224.81Z"/><path class="cls-1" d="M166,194.06c-1.46-.67-1.91-1.2-.79-2.36Z"/><path class="cls-1" d="M187.86,208.86c.57.38-.26.68-.05,1-.18.3.07.88-.57.87C187.57,210.17,186.3,209.06,187.86,208.86Z"/><path class="cls-1" d="M165.26,239.11a1.82,1.82,0,0,1,.46-1.89C166.45,238.06,165.64,238.54,165.26,239.11Z"/><path class="cls-1" d="M226.54,311.43l-3.8-.52C224.12,310.23,225.45,310,226.54,311.43Z"/><path class="cls-1" d="M229.9,310.55H228C228.62,309.59,229.26,310.05,229.9,310.55Z"/><path class="cls-1" d="M79.57,195c.65-.66.86-1.51,1.78-1.21.12,0,.24.43.18.57C81.22,195,80.59,195,79.57,195Z"/><path class="cls-1" d="M89.27,182.76c0,.5-.25.69-.6.67a.6.6,0,0,1-.59-.6c0-.35.19-.65.55-.56S89.1,182.62,89.27,182.76Z"/><path class="cls-1" d="M15.74,242.83a2.31,2.31,0,0,1,.62,1.8C15.51,244.17,15.58,243.57,15.74,242.83Z"/><path class="cls-1" d="M147,184.47V184a3,3,0,0,1,1.94,1l-.48.43C147.57,185.67,147.24,185.12,147,184.47Z"/><path class="cls-1" d="M383.32,216.11l-.48.48c-.66-.06-1.06-.34-.85-1.07.09-.32.32-.61.67-.53C383.23,215.12,383.27,215.63,383.32,216.11Z"/><path class="cls-1" d="M379.24,220.7l-1-2.25C379.44,219,380,219.5,379.24,220.7Z"/><path class="cls-1" d="M355.14,249.3c.17.14.46.27.48.42.06.54-.48.67-.78.95-.09-.16-.25-.32-.26-.49A.75.75,0,0,1,355.14,249.3Z"/><path class="cls-1" d="M348.57,258.54c-.13-.11-.37-.22-.42-.38a.5.5,0,0,1,.46-.64.57.57,0,0,1,.48.3C349.17,258.15,349,258.39,348.57,258.54Z"/><path class="cls-2" d="M233.22,311.53c-2.06-.43-4.11-.8-6.18-.09h-.5a5.64,5.64,0,0,0-3.8-.52c-1.55.31-2.58,2.6-4.64,1.09a17.35,17.35,0,0,0-3-1.45,3.28,3.28,0,0,0-1.91-1.07.74.74,0,0,0-.22.25,4.2,4.2,0,0,0-.6-.3h-.21c0-1.75-.81-2.64-2.68-2.27a4.1,4.1,0,0,1,0-.78c-1.72-1.27-3.54-.93-5.37-.3a.73.73,0,0,0-.38.62l-.16,0a2.7,2.7,0,0,1-1.79,2.1c-.55.62-.95,1.36-1.47,2a9.1,9.1,0,0,0-1.16,1.72l-.08,0a4.38,4.38,0,0,0-2.75.51c-.52.3-1.2.4-1.45,1h-.31a1.2,1.2,0,0,0-.9,1.6,2.37,2.37,0,0,0,.15.28c-.12,0-.24,0-.36-.17l-.89.57c1.34,1,2.87.28,4.29.52a6.82,6.82,0,0,0,5.67-.1l2-1,2.76,0c.41.08.84.11,1.06.56.31.63-.44,1.4.25,2a3.3,3.3,0,0,0,.51.31,1.53,1.53,0,0,1,.57,1.87,4.11,4.11,0,0,0-.27.56c-.53,2,3,2.44,4.21,2,.06.51.61.79,1.1.93a6.87,6.87,0,0,0,3.25.09c0,.56.71.77,1.26.86,2.13.31,4.1,1.1,6.29,1,1-.06,2-.46,3-.06.74.31.24,1.05.53,1.52h.29c-.24-2.63,2.23-4.22,2.54-6.63l.86-.6a4,4,0,0,0,.52-.4c.84-1.15.25-2.52.56-3.75v-.07a.5.5,0,0,0,.44-.06l.38-.52C234.62,313.88,235,312.32,233.22,311.53Z"/><path class="cls-1" d="M123.48,294.25h2.87c-.34.56-.91.46-1.44.47S123.82,294.82,123.48,294.25Z"/><path class="cls-1" d="M140.74,279.41l1.44.95C141.4,280.48,140.51,280.79,140.74,279.41Z"/><path class="cls-1" d="M134.22,280.91c-.27-.46-.32-1.15.13-1.2.68-.06.08.54.13.83C134.5,280.64,134.32,280.78,134.22,280.91Z"/><path class="cls-1" d="M132.66,281.3v-1c.32-.06.51-.84.75-.43C133.78,280.52,133.19,281,132.66,281.3Z"/><path class="cls-1" d="M189.15,212.76c-1.23,1.17-.11,3.39-1.91,4.31.11-.45.47-1,.31-1.33C186.41,213.79,187.93,213.37,189.15,212.76Z"/><path class="cls-1" d="M211.68,224.65l-1.89.17c.45-.53.79-1.22,1.58-1.22C211.48,223.6,211.58,224.28,211.68,224.65Z"/><path class="cls-1" d="M147.92,320.14v.48c.08.35.45.71,0,1-.07,0-.35,0-.37-.06A1.15,1.15,0,0,1,147.92,320.14Z"/><path class="cls-1" d="M242.84,230l.39.48c-.26.9-1,1.38-1.61,2a.52.52,0,0,1-.68-.08Z"/><path class="cls-1" d="M164.86,323.85c-.15-.22-.41-.44-.46-.71s.25-.34.43-.17a4.4,4.4,0,0,1,.53.73Z"/><path class="cls-1" d="M287.91,80c0-.32-.53-.64,0-1l1-.48C289.4,79.56,288.85,79.89,287.91,80Z"/><path class="cls-1" d="M281.62,94.67a.63.63,0,0,1-.63.57c-.24,0-.54-.09-.37-.4a1.35,1.35,0,0,1,.65-.6C281.57,94.13,281.63,94.42,281.62,94.67Z"/><path class="cls-1" d="M61.1,201.28c-.89.19-1.13-.78-1.81-.74A1.24,1.24,0,0,1,61.1,201.28Z"/><path class="cls-3" d="M275.3,282c-2.46-1.07-4.95-2.31-7.76-2a22.06,22.06,0,0,1-6.64.28,3.68,3.68,0,0,0-3.31,1,4.09,4.09,0,0,0-.34,2.77c.09,1.5-.58,2.05-2,1.6a18.09,18.09,0,0,1-2.41-.5,21.83,21.83,0,0,0-3.3-.63,2.58,2.58,0,0,0-2.42,1,1.62,1.62,0,0,0,0,.21c-1.85-.36-3.52-.23-4.59,1.53a1.09,1.09,0,0,0-.25-.1c-1.63-.19-3,.85-4.57.92a4,4,0,0,1-2.76,0c-2.34-.37-4.51.57-6.76.88-1.3.17-2.51,1-3.9.51-1.25-.11-2.49-.21-3.74-.25a1.17,1.17,0,0,0-.41.15,3,3,0,0,1-.59-.54c-1.82-2.25-3-2.07-4.32.67a5.47,5.47,0,0,0-.85,1.77c0,.1,0,.21,0,.32l-.72.68a1.09,1.09,0,0,0-.34-.17,1.75,1.75,0,0,0-.72,0c-2.43.82-1.94,2.87-2,4.69a1.3,1.3,0,0,0-.81.21c-.55,1.15-.53,2.45-1,3.63a1.06,1.06,0,0,0,.73,1.5,1.53,1.53,0,0,0,.37,0,1.58,1.58,0,0,0,1.13.83c0,.05,0,.11,0,.16a2.5,2.5,0,0,0,.05.67c.61,1.33.31,3,1.49,4.12l.19.1a2.57,2.57,0,0,0,.44,1.69c.68.11,1,1,1.76.92a1.79,1.79,0,0,1,.19.52c2.42,1.37,4.84,2.92,7.49.44a3.38,3.38,0,0,1,3.79.15,1.84,1.84,0,0,0,.62.06,2.15,2.15,0,0,0,.67-.3l4.9.07a1.48,1.48,0,0,1,.55.43c1,.86.73,2.37,1.5,3.37-.34,0-.47.15-.49.47l0,.07-.33.1c-1.47.94.07,2.64-.93,3.7a2.44,2.44,0,0,0-.1.24h-.13a4,4,0,0,0-1.19.84c-.75.64-1.55,2.8-1.9,3.74a7,7,0,0,0-.4,2.73c0,.46,0,.92.58,1a1.87,1.87,0,0,0,.78-.07,6.78,6.78,0,0,0,1.93-.66,6.63,6.63,0,0,1,.81-.48c.31-.12.66-.14,1-.25.84-.31.83-2.64,1.4-2.65s1.35.27,2,.22,1.17-.84,1.4-.85c.5,0,1,.12,1.44-.3.63.28,1.11.89,1.89.81.23.45.55.49.94.19-.18.76.37.74.82.74,1.49,0,3-.06,4.48-.09.86-.59,2.11.08,2.88-.85h1.05c.09,1.7,1.09.87,1.86.66a4.38,4.38,0,0,1,2.86,0c.79.66.76-.14,1-.54.67-.29.4-1.11.85-1.52.36-1,.72-2,1.07-3a2,2,0,0,0,.92-1.21c.19-.48.92-.79.72-1.43-.11-.37-.45-.34-.68-.57-.54-.53-.47,0-.45-.85.05-1.93,1.71-4.43,2.52-6.13l4.73-9.94q1.17-2.43,2.32-4.86c.12-.24.34-1.05.57-1.17.48-.27.12-.09.59.09s.85.66,1.59.73,1.67.38,2.2.36a.78.78,0,0,0,.59-.33,2.31,2.31,0,0,0,.23-.67,9.47,9.47,0,0,0,.11-1.5,46.44,46.44,0,0,1,.41-6.66C276.74,284.2,276.77,282.59,275.3,282Zm-14.64,34.58h0l0,0,0-.18A.19.19,0,0,1,260.66,316.54ZM273,293.68v0h0Z"/><path class="cls-1" d="M374.4,87.09c-1.4-.25-1.86-.67-1.94-1.64C373.4,85.52,373.62,86.19,374.4,87.09Z"/><path class="cls-1" d="M335.86,270.77c.7.51.39,1.26.48,1.92C334.67,272.43,336.08,271.4,335.86,270.77Z"/><path class="cls-1" d="M329.15,280.84l.48.49Z"/><path class="cls-1" d="M263.46,216.59h1c-.07.52-.07,1.16-.79,1.11a1.14,1.14,0,0,1-.76-.71C262.74,216.61,263.19,216.63,263.46,216.59Z"/><path class="cls-1" d="M262.35,220.33c.19.57.3,1.11-.35,1.41-.14.06-.56-.13-.56-.15A1.75,1.75,0,0,1,262.35,220.33Z"/><path class="cls-1" d="M389.45,208.28l-.34.27c0-1.21,0-2.42,0-3.63l.32.32C389.45,206.25,389.45,207.27,389.45,208.28Z"/><path class="cls-1" d="M95.68,265.88a9.1,9.1,0,0,1,5.72,0Z"/><path class="cls-1" d="M88,265.41c.85-1.35,1.61-.26,2.4.1l-.53.12Z"/><path class="cls-1" d="M342.1,92.42c1-2.83.23-5.75.47-8.62.94,2.69.42,5.44.29,8.17C342.85,92.13,342.36,92.27,342.1,92.42Z"/><path class="cls-1" d="M338,134.52c.46.81.05,1.74.6,2.47C337.79,136.09,337.79,136.09,338,134.52Z"/><path class="cls-1" d="M342.57,80V76.13A3.62,3.62,0,0,1,342.57,80Z"/><path class="cls-1" d="M305.17,147.08c-1.33,1-.7-1-1.44-1,0-.28.07-.73.41-.61A1.59,1.59,0,0,1,305.17,147.08Z"/><path class="cls-1" d="M316.2,151.87c-1.11-.24-2-.6-1-1.91Z"/><path class="cls-1" d="M272.1,127.9l-.54-.37c.16-.34.43-.89.73-.71C272.81,127.13,272.49,127.58,272.1,127.9Z"/><path class="cls-1" d="M308.06,148c0-.14,0-.29,0-.44.06.11.12.22.19.33Z"/><path class="cls-3" d="M361.29,67.91l0-3.29H307.09a.74.74,0,0,0,.09.51l-.09,0v0l0,0h0c-.66.65-.61,1.56-.87,2.36l-.08,0h0l-1-.94h0c.46-1-1-1.08-.91-1.88H289.35l-.63,2.84h0a1.77,1.77,0,0,0-.35,2h0v1.41h0c-.93-.09-1,.53-1,1.2a6.17,6.17,0,0,1-.39,3,2.46,2.46,0,0,0-.58,1.66.42.42,0,0,0,0,.35.3.3,0,0,1,0-.35c-.94.2-1.88.4-1,1.67-.82.27-.09,1.38-.89,1.66-.89,0-1.51.25-1.44,1.3h0c-.05.67-.75,1.19-.47,2h0a2.21,2.21,0,0,0-.56,1.45h0a12.33,12.33,0,0,0-1.48,5.17.86.86,0,0,0,0,.16c-1.31-.07-2.09.4-1.83,1.9h0a.26.26,0,0,0,0,.34c-1.06-.09-1,.86-1.33,1.44h0l-.62,1.12c-1.17-.15-1.66.34-1.44,1.51h0c-1.53,1.31-1.51,3.38-2.41,5h0c-.09.69-.18,1.38-.26,2.06l.13,0,.05,0a.42.42,0,0,0,0,.1v-.07l-.13,0a4.2,4.2,0,0,0-.67,3.81h0l-.48,1h0a3.87,3.87,0,0,0-.48,3.34h0v.53h0c-1.45,0-1.37.83-.95,1.82h0v1c.38.69-1.21,1.52-.17,2.15a.73.73,0,0,0,.19.28c.44,1.63-1.07,2.78-1,4.31-1.59,1.36-1.78,2.47-.54,3.93a15.08,15.08,0,0,0,2,2,1.91,1.91,0,0,0,.62.17c.55-.09.63.26.67.65a2.79,2.79,0,0,0,1.12,1.75c1.75.89,2.23,2.53,2.7,4.17.26.88,1.15,2.05-.95,2.13-.91,0-.82,1.15-.61,2,.52,1.22,1.73,1.14,2.71,1.47a1.36,1.36,0,0,0,1,1.07l1-.45.55.24a1.36,1.36,0,0,0,1.52-.5,1.89,1.89,0,0,0,.13-.33c1-.06,1.66.65,2.48,1,.53,1.2,1.4,1.08,2.27.94.43.08.89.09,1.33.14a1.07,1.07,0,0,1,.31,0c.38.6,2.17.46,1,1.87.7,1.22,1.13,0,1.67-.18a1.5,1.5,0,0,0,.28.41c2.24,1.79,4.84.74,7.28.93a1.59,1.59,0,0,0,.52-.27c.72.79,1.69,1.34,2.17,2.35.86,1.25,2.12.55,3.21.66a.67.67,0,0,0,.15-.14,32.61,32.61,0,0,0,4.74,2.86l0,0c.08.9.41,1.5,1.4,1.36a1.45,1.45,0,0,0,.45.76c2.08,2.22,2.08,2.22,4.43.51a6.06,6.06,0,0,0,.81-.6l0,.24a3.39,3.39,0,0,0,2.83,2,4.79,4.79,0,0,0,.85-.05l.31.19c.19.27.39.51.69.47.24.72,1,.83,1.51,1.17s1,1,1.8.84a1.6,1.6,0,0,0,.36.49,2.2,2.2,0,0,0,.72.28c-.15.72.47,1.09,1.09,1.45l1,1.08-.09,0a.86.86,0,0,0-.46.46,3,3,0,0,0,1,1.54c2.41,1.25,3.45.81,4.1-1.76.37-1.46.49-3,.88-4.44a10.07,10.07,0,0,0,2.37-6,8.48,8.48,0,0,0,.15-1.5c.17-1.37.5-2.72.56-4.11.63-3.82,1.24-7.65,1.73-11.49a13.14,13.14,0,0,1,.39-2.87,4.45,4.45,0,0,0,.1-.72,9.69,9.69,0,0,1,.31-2.4,8.66,8.66,0,0,0,.2-1.68,5.25,5.25,0,0,1,.23-1.58,9.24,9.24,0,0,0,.21-.91c.1-.86.72-.87,1.36-.85,3.08-.18,3.19-.27,3.56-2.9-.07-8.07.12-16.14-.11-24.22-.24-1.1-.94-2.08-.85-3.26,0-7.71,0-15.42,0-23.13,0-1-.34-2.11.7-2.87,3.66-.45,7.34-.1,11-.21,1.4,0,2.79-.07,4.18,0,.69,0,1.44-.06,1.59.91.25.82.33,1.76,1.46,1.9A.39.39,0,0,0,361.29,67.91Zm-88.37,36.44,0,0,.08-.1A.93.93,0,0,0,272.92,104.35Zm12.67-25.3s0,0,0,0h0v0Z"/><path class="cls-1" d="M241.34,238.18l-.8.94c.22-1.15-1.11-1.75-1-2.86C240.84,236.24,240.88,237.41,241.34,238.18Z"/><path class="cls-1" d="M253.42,266.49,253,266l1.9-1.38.48.42Z"/><path class="cls-1" d="M288.87,274.6c-.83.07-1.25-.69-1.91-1C288.22,272.7,288.31,274.12,288.87,274.6Z"/><path class="cls-2" d="M194.85,242.81c.65-2-.52-3.33-2.09-4.28a2.49,2.49,0,0,1-1.52-2.65c-.14-2.36.27-4.74-.19-7.09-.09-.07-.21-.14-.32-.21a.66.66,0,0,0,.3-.7c.2-.07.32-.33.42-.53.91-4,.9-4-2.79-5a4.49,4.49,0,0,0-1.73-.38,1.07,1.07,0,0,0-.44,0c-.89-.62-1.41.62-2.11.89a1.16,1.16,0,0,1-.36-.14c-.57-.26-1.34-.34-1.21-1.27,1,.15,1.26-.71,1.54-1.54.1-1.09.85-2,1-3.1a3.4,3.4,0,0,0,.38-.38,1.84,1.84,0,0,0,.48-1.73c-.46-1.51.36-2.54,1.17-3.6.37-.64.18-1.39.45-2.05a.6.6,0,0,0-.09-.55c-.35-.92-.79-1.72-2-1.54-.14-1,.55-2.07-.41-2.93l-1-1.33h0l-.11-.12-.13.08h0a2.12,2.12,0,0,1-.81-1.9c-.14-.78-.8-1.09-1.35-1.51,0-.68.21-1.55-1-1.36h0l-.06,0c.13-.6.25-1.19.38-1.79h0c0-.63-.4-.92-.93-1.1a.44.44,0,0,0-.06-.16.21.21,0,0,1,.06.16c.64-1.12-1.36-.77-1-1.75h0l-1.32-2.53a3.34,3.34,0,0,0-1.42-1.55h0c-.36-.87-1.21-1.25-1.86-1.84-.25-.66-1-.43-1.43-.84h0c-.46-.13-.86-.12-1.06.42l-3.34-.49h-1l-2.38-.48.05,0a5.71,5.71,0,0,0-.76,1.8c-.63,0-.87.36-.83,1l-.28,1c-1.1,1.13-1.09,3-2.48,3.92l-2.89,1.8c-.8.43-.89,1.24-1.08,2a4.75,4.75,0,0,1-1.42,2.68,1,1,0,0,0,0,.62l.08.09a.63.63,0,0,0-.19.37,7.87,7.87,0,0,1-.14,1.2,1.22,1.22,0,0,0,.3,1.1l-.14,0A3.4,3.4,0,0,0,154,206a9.64,9.64,0,0,1,.53,2.77,2,2,0,0,0,.13.25l-.15.1a1.82,1.82,0,0,0-.2,1.21c.08,1.15-.46,2.25-.24,3.4a1.09,1.09,0,0,0-.52.25,1.9,1.9,0,0,0-.75,1.18c2,1,2.84,2.78,3.31,4.83l.41-.51.5.45-.11.09c.06,1.4.47,2.8,0,4.19l.27.16,0,.94-.23.22a1.31,1.31,0,0,0-.31.61,6.44,6.44,0,0,0-.16,1.9c.14,4.07,1.33,7.29,6.19,6.8a2.2,2.2,0,0,1,1.86.89,3.17,3.17,0,0,1,.36.46l0,.05a1.38,1.38,0,0,0-.62,1.15c0,.67-.17,1.32-.2,2a2.45,2.45,0,0,0,.15.65,7.5,7.5,0,0,0,3.32,3.54l.15,0a1.21,1.21,0,0,0,1.21,1.37l0,.14c0,.5.18,1.12.6,1.22,1.85.41,1.63,1.66,1.5,3.05s-.09,3,1.13,4.18a1.3,1.3,0,0,0,.65.22.94.94,0,0,0,.5-.27c2.54,1.32,5.71,0,8.11,1.85a3.91,3.91,0,0,0,1.66-.57c.94-1,1.31-2.52,2.93-2.75.67-.29,1.47-.28,2-.94a3.19,3.19,0,0,1,.12-.4c.26,0,.53,0,.7-.29a2.11,2.11,0,0,1,.3.3,3.87,3.87,0,0,0,3.41.32c.13-.09.25-.19.37-.29l.77.44c.44-.4,1.27.9,1.33-.15,0-.67.85-2-.6-2.23a9.4,9.4,0,0,1,1.05-3.17C195.54,244.58,194.53,243.83,194.85,242.81ZM156,217.11l0,0h0l-.05,0Z"/><path class="cls-4" d="M196.14,214.67l.05,0,0,0h-.1v0h.05Z"/><path class="cls-4" d="M215.1,216.77c-.57-.62-1.27.17-1.93.23-.86,1.12-2.45.62-3.41,1.52-1.44.09-2.87-.42-4.31,0-.44-.17-.45-.58-.54-.94h0c-.36-1-1-1.16-1.83-.52.08-.72-.18-1.15-.91-.75-1.23.67-2.07,0-2.95-.68h0l-.13-1.09h0c-1-.43-2-.9-2.85.12h.07a1.1,1.1,0,0,0-.14.18l0-.13c-.65,0-.8,1.29-1.7.7l.08-.18-.14-.13h0c-.57-1.37-1.82-.82-2.81-1h0c-.37-.86-1.16-1.28-1.84-1.82h-.1c.22-1.15-.92-1-1.41-1.49l0-.89c.61-.2.48-.73.4-1.13-.11-.57-.58-.24-.92-.24a.7.7,0,0,1,.12.34c-.06.31-.39.6-.16.92-.3.26-.1.75-.46,1-1.47,1-2.43,2.21-1.49,4.14a.91.91,0,0,1-.4,1.22c-.36,1.27-1.49,2.26-1.34,3.71a1.61,1.61,0,0,0,.16.35,7.12,7.12,0,0,1-1.76,1.2c-1.15,2.09.49,1.49,1.47,1.52,1.18.75,1.83-1.12,3-.59l1.38.38c3.43.24,3.59,2.31,2.77,4.93a1.1,1.1,0,0,0-.3,1v7.62l.4-.49c.92-1,.45-2.28.67-3.42s0-2.49,1.59-2.84l.21-.09c.77,1.52,2.7,1.68,3.72,2.91a5,5,0,0,0,2.34.69c1.92.37,3.79-.26,5.68-.29-.12.4.09.67.57.82a2.48,2.48,0,0,0,2-.63c.66-.12,1-.32.69-.7.29-.14.58-.29.86-.45a2.05,2.05,0,0,1,1.67-.46c-.46-.57-.3-1.49-.87-2v-.07c-.06-.21-.11-.41-.18-.62a5.88,5.88,0,0,1,.38-3.41c.28-.79.75-.74,1.3-.28a.84.84,0,0,0,1.09-.39A1.31,1.31,0,0,0,213,224a2.66,2.66,0,0,0,.07-1.7,1.19,1.19,0,0,1,.46-.53,21.53,21.53,0,0,0,1.34-3C215.16,218.11,215.64,217.35,215.1,216.77Zm-18.73-.67h0s0,0,0,0h0Zm3.87,15.62,0,.12h-.08A.37.37,0,0,1,200.24,231.72Z"/><path class="cls-1" d="M127.79,265c-1.7,1-3.63.66-5.31.39-4.13-.64-8.18.44-12.27.09-.79-.07-1.85.37-2.08-1C114.69,264.69,121.26,264.13,127.79,265Z"/><path class="cls-1" d="M141.1,217.57l-.38.5c-.66-.88-1.45-1.71-1.33-2.94a.71.71,0,0,1,.4-.49C140.68,215.42,140.7,216.58,141.1,217.57Z"/><path class="cls-1" d="M316.2,181.11c0,.64.46,1.28,0,1.92a.89.89,0,0,1-.93-1.07C315.31,181.37,315.69,181.17,316.2,181.11Z"/><path class="cls-1" d="M304,154c.14.17.43.38.49.64s-.22.56-.56.54a.58.58,0,0,1-.59-.59C303.32,154.21,303.51,154,304,154Z"/><path class="cls-1" d="M134.5,263.58a2.61,2.61,0,0,1-.95-1.92C135.31,262.79,135.31,262.79,134.5,263.58Z"/><path class="cls-1" d="M160,269.91a4.31,4.31,0,0,1,3.07.8A4.94,4.94,0,0,1,160,269.91Z"/><path class="cls-1" d="M150.31,267.4c-.07-.34-.46-.73-.05-1,.58-.4.6.49,1,.54A1,1,0,0,1,150.31,267.4Z"/><path class="cls-2" d="M166.57,266.9c-1.15.1-1.85,1.86-3.29.89a7.46,7.46,0,0,0-5.55-1.3,2.35,2.35,0,0,0-.49.29c-1.53-.64-2.79-1.82-4.44-2.2a2.13,2.13,0,0,0-1.36.18,1,1,0,0,0-.21.2c-.2-.37-.61-.47-1-.62a1,1,0,0,0-.7,0h0c-1.22-.88-3.43-.73-3.26-3.08a4.17,4.17,0,0,0-3.92-3.44,12.26,12.26,0,0,0-3.25-.39c-1,.51-1.86,1.16-2.79-.21a2.12,2.12,0,0,0-2.19-.63,2.43,2.43,0,0,1-.66.14c-1.9-.51-4.69-.09-4.81.92-.28,2.25,1.66,2.52,3.16,3.14.1,0,.17.18.24.29a1.06,1.06,0,0,0-.56.45c-.18,1.21.71,2.25.55,3.46l.27.22a1.83,1.83,0,0,0-.25.08c-1.43,1-.84,2.3-.72,3.55h-.15c.14,1.45-.65,3,.47,4.33h0l.48.93h0c0,.14-.06.29-.08.44-.49,1,.24,1.94.1,2.91v1l-.09,2.83a3.63,3.63,0,0,0-.46,3.39l0,.54c-1.28.29-.74,1.66-1.38,2.32h0l-1,3.1a.49.49,0,0,0,0,.19l-.06-.05.11-.14c-1.09.52-2.27.08-3.38.34-1.83,1-4-.27-5.78.81l-2.36.13a2.65,2.65,0,0,0-1.88,2.33h0l-.66.14c-1.14,2.23-.49,4.44.09,6.65h0c.06.93.11,1.85.16,2.77h0a2.78,2.78,0,0,0,1.33,2.07h0l3.84,4.22c-.16,1.08.62,1.47,1.39,1.87a1,1,0,0,0,.55-.92c2.44-1.3,4.12-3.66,6.67-4.8,1.13-.17,1.5,1,2.37,1.31,1.13.43,2.13,1.25,3.43,1.19a.51.51,0,0,0,.46.32c1.82.31,1.86-.9,1.89-2.18.06-1.95-1-3.88-.16-5.84h.22a2.72,2.72,0,0,0,.94-1.94c.07-1.23-.63-2.43-.09-3.66,0-1.63,1-2.69,2.14-3.7a4.77,4.77,0,0,0,1-1.29,1.25,1.25,0,0,0,0-.51,2,2,0,0,0,1.2-2.54c-.41-2,.4-3.5,1.14-5.13v0c1.14.5,2.11-.35,3.17-.47a1.54,1.54,0,0,0,1.14-1.18.84.84,0,0,0-.08-.21c1,.43,1.48,0,1.76-.83l.23.14c1.69,0,3.56.47,4.57-1.42h0a1.8,1.8,0,0,0,.73-.06,6.71,6.71,0,0,1,3.5-.35c2,.18,4,.52,5.59-1.23a2.56,2.56,0,0,0,.3-.65c.17-.7.13-1.43.24-2.13.84-2.12.54-4.66,2.29-6.45C167.19,267,167.08,266.69,166.57,266.9Zm-33.88,13.5a.28.28,0,0,1,.1.27A.6.6,0,0,0,132.69,280.4Z"/><path class="cls-5" d="M256.75,92.43h0a2.16,2.16,0,0,1,0-.36c-.88-.5,0-1.73-.91-2.2,0-1.27-.91-.69-1.49-.81l-.46-.88c.3-1.13-.49-2.35.26-3.45h0c1.28-.75,1.7-1.55.25-2.59a13.24,13.24,0,0,1-1.35-1.25,1.4,1.4,0,0,0-1.46-.84h0l-1-.23h0c-.07-.63-.13-1.26-.19-1.89h0c-.3-.4-.37-1.09-1.14-.9-.88-.91-2-.17-3-.5-.88-.82-1.9-.35-2.87-.32l-1,.09a1.77,1.77,0,0,0-2.33-.62c-1-1.33-2.65-1.69-4-2.48h0c-.63-1.81-2.09-.61-3.15-.88h0l-1-.52h-.5c-.63-.88-1.49-.44-2.28-.41h0l-1-.64c-.24-.43-.67-.37-1.06-.39h0a3.42,3.42,0,0,0-2.36-.85.5.5,0,0,1-.21.09l.21-.09a3.87,3.87,0,0,0-2.46.33c-2.35.26-4.76-.48-7.07.48h0L215,71.43c-1.29.61-.69,1.8-.85,2.75h0a1.15,1.15,0,0,0-1,1h0c-.77.68-1.33,1.4-.49,2.41h0l0,.06h0l0,1h0c-1.56.3-.74,1.49-.87,2.33-.17.64-.87,1.28-.42,1.93.84,1.21-.05,2-.56,2.82h0a4.91,4.91,0,0,1-2.08,2.08c-.82.78-.06,1.89-.56,2.74h0l-1.74,4.41c-.64.35-.88.82-.47,1.49a8.68,8.68,0,0,1,4.53,1.53,3.6,3.6,0,0,0,3.21.81c1.14,1.7,3,2.16,4.81,2.54l.94-.25a.75.75,0,0,0,.69-.14,3.57,3.57,0,0,1,.47,0,10.86,10.86,0,0,0,2.58-2.15h0l0,0h0l0,0a1.06,1.06,0,0,1-.16.32c.3.82,1,1.24,1.64,1.79,2.9,1.8,6,.86,9.09.72,2.21-.1,3.23-1.65,2.61-3.82a18.89,18.89,0,0,1-.83-3.72,1.22,1.22,0,0,0-.14-.49l.56-.08a.5.5,0,0,0,0,.13,10.54,10.54,0,0,1,1.76,2c.4.58,1,1.07,1,1.84s.1,1.56.79,2.11a3.74,3.74,0,0,0,.85.42c.45.53.91,1.05,1.36,1.57l-.12.23a2.3,2.3,0,0,0,.36,1.33,5.15,5.15,0,0,1,.59,2.5c0,1.22-1.17,3,.7,3.49,1.68.46,1.79-1.67,2.69-2.55,1.56-1.59,3.47-1.09,5.32-.87,2.69-.37,3.35-1.22,3-3.87a1.06,1.06,0,0,0,.47,0,1.74,1.74,0,0,0,.54-.43,4.83,4.83,0,0,0,.84-4.31,4.35,4.35,0,0,1-.46-1.24,5,5,0,0,1,1-3.27ZM242.08,76.57h0m11.4,8.3h0v0Z"/><path class="cls-5" d="M223.16,98.72s0,0,0,0l0,0Z"/><path class="cls-1" d="M168.47,311c1-1.05,1.7-1.1,2.44-.58a.64.64,0,0,1,.13.59C170.28,311.75,169.56,311.18,168.47,311Z"/><path class="cls-1" d="M176.71,308.14c-.3,1-.68,1.87-1.92,1.9A2,2,0,0,1,176.71,308.14Z"/><path class="cls-1" d="M224.15,254.46h-.48c.2-1.62,1.28-1.54,2.5-1.3C226,254.45,224.53,253.59,224.15,254.46Z"/><path class="cls-1" d="M221.74,248.76c.13-.32.26-.65.4-1,1.09.75.77,1.57.12,2.41l-.42-.51Z"/><path class="cls-1" d="M236.62,244.88c0,.63.47,1.27,0,1.9-.28,0-.79.41-.77.06C235.88,246.16,235.57,245.2,236.62,244.88Z"/><path class="cls-1" d="M225.06,240.06a1.08,1.08,0,0,0,0-.44,1,1,0,0,1,1-.49c.18.24.56.64.51.71C226.15,240.35,225.56,240,225.06,240.06Z"/><path class="cls-1" d="M223.74,244.78c-.35.27-.49.47-.66.49a.74.74,0,0,1-.6-.18c-.17-.2-.1-.42.23-.41S223.24,244.73,223.74,244.78Z"/><path class="cls-2" d="M238.18,218c-1.79-1.86-2.24.09-3,1.06-.4.38-.85.74-.51,1.39h0l0,1.07c-1.77.15-.62,1.47-.88,2.22h0l-.38,1h0l-3-.1h0l-2.35-.77h0l-.57,0c-.79-.31-1.58-.92-2.37,0l-3.44-1c-.05-1.08,0-2.22-1.4-2.58h0l-2.35-2.13h0a2,2,0,0,0-1.48-1.36c-1.19-1-2.26-.69-3.29.28l1.79-.11c-.67,1.72-1.29,3.35-1.92,5-.33.77,0,1.64-.34,2.41-.19.54-.6.47-1,.37a1.58,1.58,0,0,0-1.89.17c0,1.34-1.27,2.7,0,4h0l-.06.2c.54.63.53,1.49.93,2.12a5,5,0,0,0-1.39.15c-.43.08-.91.05-1.16.52,0,.47-.37.74-.48,1.14a1,1,0,0,0,.12.58c-.67.71-.49,1.44.11,2.19.86-.08,1.72-.21,2.57-.25.51,0,1,0,1.52.08l.06,0,.25.05a1,1,0,0,0,.59.39c1-.14,2.27.18,2.8-1.13.67.19,1.1-.16,1.41-.77a.61.61,0,0,0,0-.14l.41-.07c2,0,4-.4,5.27,1.85,1.11,1.63.8,3.25,0,4.86l-.47.57h0c-1.25.34-1.38,1.45-1.48,2.43a3.24,3.24,0,0,1-.89,2.33.38.38,0,0,0-.17.19c-.13,0-.23.07-.32.31-.11.75-.18,1.61.92,1.4.92-.18.9.71,1.42.93a1,1,0,0,0,.23-.22,1.6,1.6,0,0,1,0,1.14h-.13c-.07.14-.13.28-.19.42-1,2.22-.27,5.63-4.1,5.86-.05,0-.09.28-.13.43a5.27,5.27,0,0,0,3.81-.48l.72-.11,2.06,0a1.24,1.24,0,0,0,.2.46c2.54.95,4.8,3,7.84,2,1.11-.65,1.08-1.75,1.1-2.82a1.72,1.72,0,0,1-.45-.6l.09-1.74a4,4,0,0,0,.16-.68A3.59,3.59,0,0,0,233,252c.75-.41.71-1.13.73-1.83H234c1.38.2,2.72.27,3.51-1.23a11.74,11.74,0,0,0,.45-1.3,1.44,1.44,0,0,0-.12-.61,10.53,10.53,0,0,0,.28-4,2.2,2.2,0,0,1,.33-.41c1-1.1,2.22-2,2.45-3.59.14-1.21-.61-2-1.35-2.77h-.35c-.85-.2-.07-.67-.17-1a5.88,5.88,0,0,1,.27-.87.53.53,0,0,1,.42,0l-.06-.5.14-.12A.75.75,0,0,0,240,233a1.37,1.37,0,0,0,1.05-.29,10.43,10.43,0,0,0,2.22-2.64c.4-1.32,1.53-2.39,1.45-3.9h.05a.69.69,0,0,0,.6.15,1.71,1.71,0,0,0,1.3-1.7C244.43,221.7,241.26,219.91,238.18,218Zm-24.61,13.08a.06.06,0,0,1,.08,0Zm21.67-6.6a.12.12,0,0,1,.14,0Z"/><path class="cls-1" d="M216.48,102.49a1,1,0,0,1,1-.48c.32.19.88.45.49.81A1,1,0,0,1,216.48,102.49Z"/><path class="cls-1" d="M166.43,315.31a3.77,3.77,0,0,1,2.3,1.3C167.14,317.63,167,316.35,166.43,315.31Z"/><path class="cls-3" d="M189.25,312c.08-3-2.28-2.2-3.93-2.49a2,2,0,0,0-1.76-.31l-.15.07c-.3-1.2-2-.46-2.44-1.52l-.07-.08a2.5,2.5,0,0,1,.44-.34,2.53,2.53,0,0,0,.62-3.16,1.54,1.54,0,0,0-2.42-.4c-1.38.57-1.42.57-1.41,2.51,0,.67-.42,1.11-.56,1.67a.85.85,0,0,0-.92.24l0,0a12.38,12.38,0,0,0-1.93,1.9l0,.56-.72,0a5.23,5.23,0,0,0-1.63,1.4c-.77.68-2,.43-2.72,1.16a1.22,1.22,0,0,0-.28-.14c-3.83-.1-7.46,1.11-11.17,1.73a3.2,3.2,0,0,0-1.51,1c-.66,1.48-2.43,1.9-3.13,3.33a.5.5,0,0,0,.55.25,4,4,0,0,1,2,.21c.75.45.29,1.25.82,2a12.4,12.4,0,0,1,1.06,1.24c.19.34.29.78.63,1s.74.06,1.1.14c.89.21,1.42,1.25,2.36,1.56,1.28.4,2.69.3,3.95.79,2.07.79,4,2,6.18,2.43a13.55,13.55,0,0,1,2,.48,10.45,10.45,0,0,1,1.28.68,26.49,26.49,0,0,0,4.37,1.9c.67.23,3.13,1.46,3.65.58.31-.51-.36-1.07-.47-1.65a1.56,1.56,0,0,1,0-.68,18.8,18.8,0,0,1,.76-2.69,4.42,4.42,0,0,0,.38-1.5,10.06,10.06,0,0,1-.23-1.94,10.75,10.75,0,0,1,.56-1.31,7.83,7.83,0,0,0,0-2.46c0-2.23,2.69-2.11,4.19-1.54a.81.81,0,0,0,.24-.59.92.92,0,0,0-.34-.54c-.8-.26-.93-1-1.27-1.65a.53.53,0,0,1,0-.41l1.6-1.87h0C189.38,313.11,189.07,312.5,189.25,312Zm-32.69,7.71Z"/><path class="cls-1" d="M257.29,112.33c.57.68,0,1.4.38,2.08C256.14,113.78,257.28,113,257.29,112.33Z"/><path class="cls-1" d="M274.49,143.72l.95-.5c-.16.59.45,1.62-.58,1.7C274,145,274.31,144.23,274.49,143.72Z"/><path class="cls-1" d="M146,211.31l-.47.4-1.93-1.42.5-.42Z"/><path class="cls-1" d="M339,238.3a3.51,3.51,0,0,1-2.5.2A3.57,3.57,0,0,1,339,238.3Z"/><path class="cls-2" d="M390,188.76q0-47,0-94.07c0-.59.49-1.44-.51-1.8h-.82l-2-.52c0-1-1-.94-1.42-1.46A4.92,4.92,0,0,0,382.74,89a.36.36,0,0,0-.44,0c.26-2.12-.68-2.25-2.11-1.56a.36.36,0,0,0-.27.14,2.24,2.24,0,0,1-2.29-1.09c.16-1.24-.91-.94-1.52-1.21-.43-1.57-1.7-1.54-2.95-1.56l-.6-.92c-.37-3.37-.37-3.37-2.65-2.45,0-.68.28-1.42-.47-1.92-.33-1-1.17-.92-2-1-.73-.54-1-1.58-2-1.86-.26-1.63-1.47-.81-2.32-.89-1.46.12-1-1.56-1.91-2V70.87a1.91,1.91,0,0,0,0-3l-.06.64c-.63-.52-.69-1.32-1-2,.31-.64,1.19-1.47-.49-1.44l-5.23.09h-12c-1.28-.24-.94.72-.94,1.34q0,12.94.08,25.9a1.86,1.86,0,0,0,.95,2.41v24.9c.15,1.54-.5,2.2-2.08,2a10.33,10.33,0,0,0-1.84.06c-1.39-.27-.87.7-.87,1.34l-.24.93c-.54.42-.29,1-.24,1.48l-.18,1.88c-.69.74-.31,1.61-.31,2.44l0,.49c-.74.86-.56,1.88-.45,2.88l-1.86,11.51c-.17,1.43-.35,2.86-.52,4.3,0,.48,0,1,0,1.44-.93,1.54.15,4.1-2.43,4.84-.07,0,0,.59,0,.9-.86,1.48-.64,3.18-1,4.76-.18.76-.18,1.7-1,1.92a1.85,1.85,0,0,1-2.43-.91c.05-.63-.86-.4-.88-1-.42-.09-.9-.42-1,.43s-.25,1.64-.39,2.46c0,.47-.07.94-.11,1.41a4.07,4.07,0,0,0-.86,2.89c-.18.32-.37.64-.56,1-1.22.23-.91,1.14-.86,1.94-1,1.79-.78,3.88-1.44,5.75.14,1-.79,1.83-.48,2.87q-1,6-2.06,12c-.06,1.23-2.19,3.09,1,3.3l3.32.61L323,198c1-.24,1.39-1.16,2.24-1.15l.51-.34,1.82,0c1.25,2.75-.22,5.4-.29,8.1,0,.51-.4,1.11.35,1.43a.66.66,0,0,1,.54-.48,1.39,1.39,0,0,0,.74.24c.89.2,1.71-1,2.74.3,1.47,1.88,3.76,1.24,4.52-1,.3-.91.36-1.87.6-2.79s.23-1.89,1.45-1.81.8,1.22.86,1.88c.2,2,.26,4,2.48,5a4.66,4.66,0,0,0,2.45,1.13c.2.11.41.21.61.34,1.38.94,2.3,1.4,2.28-1.09,0-1.92.66-3.84.88-5.77.16-1.39,1.05-1.11,1.9-1.07.36.81,1.12.9,1.85,1l1.54.76a1.13,1.13,0,0,0,.45.09,3.21,3.21,0,0,0-.36,2.38v.5c.05,7.11,0,14.21.2,21.31.06,2.48.15,4.56-3.15,4.5l-6.54.14s-.09-.05-.17,0h-6.71c-.86-.17-1.52-.18-1.46,1.05a28.89,28.89,0,0,1,0,5.18c-.34,2.5.65,3.22,2.93,2.71l2.39.05c2,0,2.53,1,2.45,3-.15,4.11,0,8.24,0,12.36v.94c-.21.38-.42.76-.61,1.15a34.14,34.14,0,0,0-.09,5.35c0,1,.14,2.08,1.51,2.25,4.09-4.63,8.28-9.18,12.22-13.95,4.57-5.53,9.38-10.88,14-16.35l2.72-3.22,2.54-3,3.47-4.1c3.42-4.06,6.87-8.1,10.22-12.21a4.24,4.24,0,0,0,.84-1.35,4.42,4.42,0,0,0,.12-1.41c-.08-3.22-.15-6.43-.14-9.66,0-3.66,0-7.32.05-11Zm-71.46,2.88a1.92,1.92,0,0,1,.56.09A3.65,3.65,0,0,0,318.54,191.64Zm59-104.6h0Zm11.48,10.22,0,0,0,0Z"/><path class="cls-1" d="M317.62,186.39c0,.53.1,1.09-.46,1.44-.3,0-.68-.06-.63-.46A1,1,0,0,1,317.62,186.39Z"/><path class="cls-1" d="M246.41,273.71c-1,.37-2,.79-3.1,1.09a6.26,6.26,0,0,1-1.56,0c.05-.39,0-1,.16-1.12.59-.29,1-1.19,1.84-.77A5.08,5.08,0,0,0,246.41,273.71Z"/><path class="cls-1" d="M217.47,256.36c-.32,1-.63,1.94-.95,2.91l-1.44,1-.37-.51C216.16,259.07,215.74,256.85,217.47,256.36Z"/><path class="cls-1" d="M216.06,275.07l.43-.5a.85.85,0,0,0,.35.08l.39,1.46c.38.66-.27,1.17-.24,1.78l-.41.53C216.3,277.32,216.69,276.11,216.06,275.07Z"/><path class="cls-1" d="M282.05,264.07l.05,3.81A4.14,4.14,0,0,1,282.05,264.07Z"/><path class="cls-1" d="M242.06,273.64c-.76.07-1,1-1.87.68C240.66,273.67,241,273,242.06,273.64Z"/><path class="cls-1" d="M275.17,254.85a.94.94,0,0,1,.54,1.11.59.59,0,0,1-.38,0A.75.75,0,0,1,275.17,254.85Z"/><path class="cls-5" d="M294.23,289.1c-.33-.51-.74-1-1.11-1.45l-3.21-4-2.48-3.34L285.9,278c-.14-.61-.28-1.23-.43-1.84a2,2,0,0,0-.35-.1l.16-.32a38.16,38.16,0,0,0-.75-4.38,18.9,18.9,0,0,0-1.35-2.7,12.86,12.86,0,0,1-.65-1.14,7.56,7.56,0,0,1-.08-3.57,11.85,11.85,0,0,0-1.84-4.78.58.58,0,0,0-.41,0l-.53-.8c0-.05.05-.12,0-.17a.14.14,0,0,0,0-.06,1,1,0,0,0,.26-.33,1.74,1.74,0,0,0-.06-.64c-1-1.48-1.89-3.17-3.93-3.56a1.79,1.79,0,0,0-.8,0c-1.4-.46-2.66.44-4,.93a2.68,2.68,0,0,0-.07.27l-.13-.07c-1.21-.16-1.86.69-2.53,1.46a27.53,27.53,0,0,0-2.61,3.92c-.88,2.55-3,2.63-5.14,2.52a6.2,6.2,0,0,0-5.27,2,12.82,12.82,0,0,0-2.17,1.63c-.54.93-1.73,1.36-2,2.53l.08.14-2,2-.43,0c-.43.17-.85.37-1.28.53a17.61,17.61,0,0,1-12.07-2.33.85.85,0,0,0-.5,0l-.74-.63a1,1,0,0,0,.08-.45c-.4-1.63-.14-3.49-1.58-4.79-.88-1.6-1.3-3.52-3.13-4.46a10.49,10.49,0,0,0-5.32-2.24,5,5,0,0,0-.76.33l-.65-.05h0a1.38,1.38,0,0,0-.42-.21,3,3,0,0,0-1.19-.35,2.34,2.34,0,0,0-.09-.38,8.15,8.15,0,0,0-3.79.47c-.5.75-1.27,1.42-1.08,2.4l-.16.06a4.21,4.21,0,0,0-1.58,1.41c-.77,2.05-2.89,3.77-1.53,6.33a15.48,15.48,0,0,0,1.64,1.14,3.76,3.76,0,0,1,1.41,2.15,2.55,2.55,0,0,1-.2,2.34,1.87,1.87,0,0,0,.37,2.51,1.32,1.32,0,0,0,.44.13.84.84,0,0,0,.37,1.19,2.48,2.48,0,0,0-.46,1.85c1,2.22,0,4.41-.1,6.62,1.63.89,1.85,2.9,3.2,4l.56.93c1.22.73,2.54.47,3.84.39a2.53,2.53,0,0,0,2.36.18c2.82-.76,5.65-1.62,8.64-1.48a1.79,1.79,0,0,0,2.52,0c1.71.4,3-1.19,4.65-1,1.37-1.28,3.22-1.21,4.84-1.79a3.89,3.89,0,0,1,2.4-.68l3.31.58c.64.81,1.63.24,2.38.61,2.52.62,2.82.37,2.58-2.1-.08-.79-.14-1.57-.2-2.36.11-.34.43-.38.7-.53,2-1.15,4,.56,5.78,0,3.52-1.09,6.69-.34,10,.84,1.44.52,2,1,1.79,2.42a35.66,35.66,0,0,0-.4,8.32h0c0,.48-.07,1-.1,1.45h0l-.24.47,0,0c-.21.89.31,1,1,1a5.75,5.75,0,0,1,2.63.34,25.81,25.81,0,0,1,4.75.26c2,.46,2.19-.41,2-1.93.92-.24,0-2.55,1.9-1.68l2.83.17a3.48,3.48,0,0,0,3.08-.14c-.19-.15-.47-.15-.66-.3C295.6,292.21,295.87,291.61,294.23,289.1Z"/><path class="cls-5" d="M217.42,256.4h0l0,0Z"/><path class="cls-1" d="M205.3,272.71c0,1.11.07,2.23.11,3.34A3.42,3.42,0,0,1,205.3,272.71Z"/><path class="cls-4" d="M220.07,288.21c-1.18-1.21-1.36-3.38-3.52-3.64v-.05c1.23-2.14,1.95-4.31.43-6.63a.33.33,0,0,0-.21.11c-.22-1,.55-2-.29-2.94-.76-1.25-1.66-2.06-3.16-1a31.68,31.68,0,0,1-7.13,1.71,1.78,1.78,0,0,1-.45-.37,6,6,0,0,1,0-2.88,2.86,2.86,0,0,0-.65-1.85l-.18-.06v-.3a1.09,1.09,0,0,0,.44-.44c.29-2.16-1.44-2.71-2.86-3.09-1.59-.43-2.33,1-2.87,2.22a12.51,12.51,0,0,0-.71,4.17,1.82,1.82,0,0,1,.19.5s0-.06,0-.08l-.41.54a4.23,4.23,0,0,0-.37,1.77,2.78,2.78,0,0,0-.16.4c-.3.43-.54.89-.81,1.34-.52.78-1.31,1.31-1.85,2.08a27.1,27.1,0,0,0-2.52,3.73,13.67,13.67,0,0,1-4.33,4.68c-1.76.77-3.34,1.74-4,3.73a7,7,0,0,0-.9,4.08,10.4,10.4,0,0,1-.7,4.38,5.08,5.08,0,0,0-.15,1.78c0,.3.09.61.13.92-.21.6-.19,1.26-.35,1.88a2.05,2.05,0,0,1-.42.41,1.61,1.61,0,0,0-.11,1l.08.16a5.09,5.09,0,0,0-1.62,1.48c.06.54-.26,1.5.84,1.12a1.74,1.74,0,0,1,2,.55l1.87-.07a.81.81,0,0,1-.16-.27,2.34,2.34,0,0,1,.34.69c1.52.08,3.06.12,3.67,1.84l-.1.07a6.25,6.25,0,0,0-.76,1.42,6.82,6.82,0,0,0-1.25,2.23.68.68,0,0,0,.18.49c-.72,1.41-.18,2,1.4,1.86,0,.13,0,.26,0,.38v.4c.79,0,1.84.63,2-.83.92,0,1.45-.45,1.29-1.46h.53a.8.8,0,0,0,1-.36c.14.15.28.1.43-.18.07-.58-.32-1.42.78-1.45.32-.79,1.32-.17,1.7-.83h0l2.75-.66h0l.23.05.22,0c-.12-.86.91-1.12,1-1.88L202,309.1l.54-.49.91-1.76a.41.41,0,0,0,.51-.21c1.83-.35,3.73-1.35,5.34.54a7.57,7.57,0,0,1,2.79,2.42l.71.42a.51.51,0,0,0,.28-.36c.5-.78,0-1.37-.38-2-.94-1.28-.3-3.14-1.57-4.3h0a3.25,3.25,0,0,0-.08-.43,1.6,1.6,0,0,0-1.31-1c-1-.37-.61-1.09-.35-1.68a3.43,3.43,0,0,0,.4-2.95l1.28-.39c.15-1.78-.49-3.89,2-4.65l.23,0,.23,0a1.08,1.08,0,0,0,1-.91l1-1.43c1.55-2.88,1.82-2.9,3.95-.29a1.47,1.47,0,0,0,.38.25l.47-.44C220.57,289,220.31,288.59,220.07,288.21Z"/><path class="cls-1" d="M286.47,276v-1.92a2.92,2.92,0,0,1,1.44,1.44Z"/><path class="cls-3" d="M354,228c-.65-7.21-.27-14.42-.4-21.64,0-.27,0-.54,0-.81-.06-.84,0-1.66,0-2.49a1,1,0,0,0-.28-.6,13.09,13.09,0,0,0-1.63-.92,5.55,5.55,0,0,0-.56-.24,14.07,14.07,0,0,1-1.64-.84,2.62,2.62,0,0,0-.63-.14c-1.2,0-1.62.7-1.8,1.75-.27,1.55-.61,3.09-.77,4.65s-.79,2.1-2.28,1.46a1.08,1.08,0,0,0-.41.1l-1.76-1.13c-2.63-1-2.11-3.36-2.27-5.4s-.21-2.14-1.07-2.06c-1.2.13-2.57,0-2.45,2a11.23,11.23,0,0,1-.71,3.4c-.31,1.18-2.86,2.14-3.12,1.29-.85-2.72-2.49-.88-3.78-1-.52-.12-1-.22-1,.59l.13.14c-.66,0-.73-.58-.92-1.06a.84.84,0,0,0-.28-.18l0-.33c0-.9.09-1.8.13-2.7a.36.36,0,0,1,.34-.11,1,1,0,0,0,.37-1.21,4,4,0,0,1-.3-.82c.16-.82.46-1.68-.65-2.16l-.16-.29c-2.73-.27-4.11-.67-5.42-1.55-.38,0-.75-.06-1.13-.08-.92-.36-2-.07-2.91-.29a1.13,1.13,0,0,0-.2-.43,6.68,6.68,0,0,0-3.88-.71,4.15,4.15,0,0,0-.43.3c-.83-.12-1.4,0-1.62,1.36-.11.68-.15,1.38-.24,2.07-.13.48-.25,1-.4,1.43-.08.27-.14.56-.21.84-4.89.06-9.69-.88-14.54-1.25a4.12,4.12,0,0,0-1.23-.64,116.82,116.82,0,0,0-12.09-1.26,10.76,10.76,0,0,0-2.21.39l-1.47,0-.94-.54c0,.72-.43,1.51.37,2.09,1.07.92.9,1.86.06,2.82-.4.46-1.06.73-1,1.51a4.37,4.37,0,0,1-2.4,4.16c-.91.08-1.62.36-1.44,1.49,0,.3,0,.61,0,.91-1.48.12-1.59,1.53-2.27,2.4.25,1.33-1.62.44-1.6,1.53l-2.86.39a2.84,2.84,0,0,0-3.44.64.54.54,0,0,0-.41.19c-1,.69-1.39,1.82-2.06,2.75l-.72.21c-1.58.42-3.53-1-4.82.95a6.75,6.75,0,0,1-1.42,2.08c-.81,1.09-2.46,1.45-2.65,3l-.45.45-.34.76c-.65,0-1.21-.75-1.93-.24l-1.38-.41L245,226.15l-.42,0a7.63,7.63,0,0,0-2,3.81c-.19.34-.11.46.08.48a11.86,11.86,0,0,1-1.63,1.84l-.11.12-.24,0-.95.5-.4.48a.65.65,0,0,0-.29.79h0c-.61-.11-.4.88-.79,1,.19.33-.6,1.29.42,1.08a1.86,1.86,0,0,0,.42.37,2.1,2.1,0,0,1,1.37,1.72c-.06.24,0,.57-.19.71-.23,1.58-2.15,1.89-2.5,3.37-.74,1.71-.35,3.52-.46,5.29l-.39,1c-.77,1.59-2.08,1.27-3.39,1-.83.6-.54,1.66-1,2.42l0,0c-.61.92-.31,1.9-.16,2.87s.44,2.25-.85,2.94c-3,.78-5-1.68-7.67-2.11-.64-.55-1.42-.29-2.14-.36a1.56,1.56,0,0,0-.68.28.73.73,0,0,0-.18.65c.39.55,1.14,0,1.55.5a1.1,1.1,0,0,0,1.44.1,8.62,8.62,0,0,1,5.24,2.32c1.78.74,1.89,2.64,2.78,4a1.09,1.09,0,0,0,.14.21c1.75,1.2,1.12,3.29,1.82,4.89-.08.8.47.87,1.06.9l2.1,1a9.44,9.44,0,0,0,2.94,1.2,10.89,10.89,0,0,0,7.87.15l.93-.37a3,3,0,0,0,2.42-2.39c.66-.78,1.31-1.56,2-2.35a.79.79,0,0,0,.05-.24,8.5,8.5,0,0,1,1.46-1.15.52.52,0,0,0,.4-.08,10.13,10.13,0,0,1,5.67-2c2.1-.17,4.57,0,5.37-2.8,1.52-1.85,2.17-4.46,4.73-5.39a.32.32,0,0,0,.14-.15l.15,0c1.59.09,2.89-1.48,4.58-.77,2,.36,2.22,2.47,3.56,3.45a1.13,1.13,0,0,1,.06.41,1,1,0,0,0-.12.58,1,1,0,0,0,.8.79c1.23,1.39,1.16,3.25,1.78,4.87a10.61,10.61,0,0,0,.05,3.81l.63.95,1.35,2.42a3.5,3.5,0,0,1,.34.86,3.4,3.4,0,0,0,.12.71,8.66,8.66,0,0,0,.55,3.2l.06.08a.05.05,0,0,1,0,0,3.09,3.09,0,0,0,.34,2c.5.85.71,1.89,1.7,2.38a1.29,1.29,0,0,0,.28,0,3.36,3.36,0,0,0,2.32,3.14,1,1,0,0,0-.08.25,8.21,8.21,0,0,0,3.25,3.67.58.58,0,0,0,0,.19c0,.92,1,1.66,1.26,2.52.37,1.41-1.08,1.3-1.45,2.33,5.1,1.37,10.91-.88,16.14-.43,3.49.31,7,1.54,10.42,1.07a2.86,2.86,0,0,0,1.31-.43c1.06-.74,1.82-2.54,2.71-3.54l9.22-10.49,2-2.3c.51-.58,1-1.17,1.54-1.75l5.51-6.26a4.62,4.62,0,0,1,.49-.5c.19-.16.4-.28.6-.43a3.45,3.45,0,0,0,1.19-1.91,1.86,1.86,0,0,1-.9-1.94c.07-2.11.09-4.23.13-6.35a5.4,5.4,0,0,0,.56-1.7c.12-4,.06-8,.11-12,0-2-.66-3.42-2.85-3.69-.82-.09-1.65,0-2.48-.08-1.82.18-2.67-.55-2.44-2.46.11-1,0-2.07,0-3.1,0-.88,0-1.8,1.09-2.14a11.89,11.89,0,0,1,2.31,0c1.41,0,2.83,0,4.24,0,2.22,0,4.43.06,6.65-.09C353.33,231.31,354.19,230.52,354,228Z"/><path class="cls-3" d="M222.77,235.74l0,0a5.51,5.51,0,0,1,.06-.57c-1.51-2.25-3.58-2-5.75-1.29l-1.53.92-2.89.86a5.89,5.89,0,0,0-4.25-.26l-.46-.13.06-1.92-.11-.48c-.67.14-1.43-.26-2,.34l-.44-.8c-1.92-.73-3.81.55-5.73.08l-2.33-.79h0c-1-1.3-2.79-1.51-3.93-2.64-.86,0-1.84-1-2,1.11-.16,1.85-.19,3.7-.32,5.55a5.27,5.27,0,0,0,4,4.07c2.37.44,4.93,1.15,7.46.62a2.65,2.65,0,0,1,1.91.63h0l.11,1.41h0c-.12.53.11.71.59,1a4.71,4.71,0,0,1,2.28,4.25c0,1.21-.58,2.58.84,3.45h0a1.45,1.45,0,0,1-.06.41,1.23,1.23,0,0,0-.05,1,1.34,1.34,0,0,0,.21.3l-.05.59a3.24,3.24,0,0,0,2.18,1.67h0a.31.31,0,0,0,.12.3l.73.71a4,4,0,0,1,.25,1,1.64,1.64,0,0,1-1,2.13,2.77,2.77,0,0,0-1.52,2.71c0,.79,0,1.57,0,2.36s-.35,1.68.76,1.95a2.32,2.32,0,0,0,2.31-.89,12.86,12.86,0,0,0,1.63-3.12,1.32,1.32,0,0,0-.11-.62A.52.52,0,0,0,214,261l.14,0a5.68,5.68,0,0,0,.76-1c1.32-.69,1.58-2.26,2.61-3.18l.51-.42c2.32-.46,3.72-1.62,3.42-4.23a4.45,4.45,0,0,1,.58-2.28,1.72,1.72,0,0,0,0-1c-.11-1.44-2.26-.89-2.32-2.38l0,0,.22,0a.73.73,0,0,1-.08-.38.46.46,0,0,0,.26,0c.76-.47.77-1.25.89-2,.16-1,.3-2,1.34-2.56a1.23,1.23,0,0,0,.6-.76,3.25,3.25,0,0,0,.11-.42C224.62,238.44,224.51,237.31,222.77,235.74Z"/><path class="cls-1" d="M198.65,249.13c.08.69.3,1.47-.68,1.64-.18,0-1.46-.39-.3-.87C198.15,249.7,198.13,249.12,198.65,249.13Z"/><path class="cls-3" d="M212.15,256.9c-.44-.59-.72-1.34-1.5-1.61a.63.63,0,0,0,0-.3l-2-1.37.06-.14a1.94,1.94,0,0,0-.21-.92c.07-.27.1-.57.18-.84a2,2,0,0,0-.07-.73,6.1,6.1,0,0,1-.56-3.34c.09-2.35-1.63-3.77-2.8-5.47a4,4,0,0,0-.54-1.36,2.74,2.74,0,0,0-2-.87c-4.14-.26-8.48,0-11.09-4.22-.47-.16-.67.13-.82.5-.56,1.73.6,2.46,1.88,2.89s2.15,1.95,1.94,2.43c-.7,1.61.15,2.86.34,4.25a2.26,2.26,0,0,0-.88,2.89c.46.94.65,1.81-.7,2.17a.65.65,0,0,0-.3.87,4,4,0,0,0,2.47,1.26A10.21,10.21,0,0,1,200,254.7a2.44,2.44,0,0,0,.7.2,1.58,1.58,0,0,0,1.36-.4.82.82,0,0,0,.06-.19h0a.49.49,0,0,0,.27.41,2.76,2.76,0,0,1,.8.64,3.33,3.33,0,0,0,.4.36,8.77,8.77,0,0,1,.9.71c.71.59,1.18,1.43,1.94,2a1.2,1.2,0,0,0,.62.08l.28-.17v0h0l0,0c-.1,1.17,1.22,1.44,1.53,2.36l.76.94c.07-.78,0-1.75,1-1.85C212.89,259.58,212.4,258.21,212.15,256.9Z"/><path class="cls-1" d="M137.86,255.9l-.48-1c-.12-.44-.87-.47-.7-1.25a2.36,2.36,0,0,1,2.3,1.78C139.14,256,138.28,255.83,137.86,255.9Z"/><path class="cls-1" d="M150.43,261.68c-1.35.24-1.89-.08-2-1.15Z"/><path class="cls-5" d="M161.77,234.2a3.31,3.31,0,0,1-4.15-2.4,16.46,16.46,0,0,1-.51-6.11,1.5,1.5,0,0,0,0-1.41c1.28-1.49.61-2.91-.15-4.32a.69.69,0,0,0-.63-.62.68.68,0,0,0-.38.24c-.31-1.94-.39-4-3-4.55l-.09,0,.78-.72h0l.59-.56a7.45,7.45,0,0,0,.32-3.35l-.05-1.45.16,0a2.23,2.23,0,0,0-.53-2.92h0c.62-.81,1.24-1.62,1.85-2.44,0-.46,0-.92,0-1.38h0c.55-.32.55-.65,0-1l.07-.48a.7.7,0,0,1,0-.45c1.27-.32,1.51-1.39,1.79-2.44a8.22,8.22,0,0,1,.21-1.86,1.28,1.28,0,0,1,.66-.32c1-.57,1.91-1.26,2.87-1.89,1.41-.87,1.4-2.62,2.34-3.78a2.47,2.47,0,0,0,.42-1.16,1.34,1.34,0,0,1,0-.34l.77-.75c.22-.6,1.25-.95.56-1.82l-.07,0,0-.08-.52-.51h0c-.15-1.15.71-2.28,0-3.44h0a3.72,3.72,0,0,0-.95-2.22,1.86,1.86,0,0,0-.46-2,2.43,2.43,0,0,1,.39-1.85h0a.44.44,0,0,0,.07-.43c.82-.49.42-1.31.54-2a3.75,3.75,0,0,0,.31-2.44l.11-3.36h0l-.05.05a7.53,7.53,0,0,0,.43-3.39c.06-1.81.08-3.61.21-5.41.07-.9-.11-1.38-1.1-1.27-.48-.76-1.23-.51-1.91-.5h0c-.68-.22-1-1.21-1.92-.92h0l-1.74-1.51-1.5-1.29h0l-1.39-.63h0c-1.41-.91-3-.26-4.44-.42h0c-1.07-.07-1.46-1.3-2.47-1.48h0c-.64-1.15-2,0-2.72-.83h0c-1-.24-1.93-1.24-3-.19-.85-.14-1.17.36-1.31,1.08l-.14,1.82c-.7.49-.4,1.24-.49,1.89-.9.83-.2,2.07-.78,3a5.89,5.89,0,0,0,0,2.83c.53.73,0,2.07,1.3,2.37h0l0,1a2.52,2.52,0,0,0,.95,2.41h0l.45,1.33a3.41,3.41,0,0,0,1,3.23h0c.81.7-.1,1.4,0,2.09h0c-.83.72-.19,1.66-.38,2.48-.3,1.89.13,3.86-.49,5.73.1,1.42-.58,2.92.39,4.27l0-1.87c1.12-.17,1.79,1,2.87.95,0,0,.05,0,.08-.08.46.24.92.47,1.35.75a1.92,1.92,0,0,0,0,.22c.4.4,1.13.38,1.33,1,0,.95.85,1,1.44,1.32,3.38,1.23,3.38,1.23,2.77,4.34-1.2,6.79-2.46,13.59-3.62,20.4-.07.53.05,1.15-.54,1.43l-.05,0-2.34-1.49C147,212,147,211,146,211.31c-.33-.17-.45-.11-.48.07-.59-.35-1-.89-1.61-1.26a.79.79,0,0,0,.19-.25l-1-1-.5-.44-1-.42L140.28,207l-2.44-1.83-.44-.56-1.48-.86-1.42-1.14c-1.26-.09-.74,1-1,1.53a1.64,1.64,0,0,1,0,2.12c-.9,1.38-.51,2.42.86,3.19,1,1.19-.81.74-.79,1.36.71-.15.87.39,1.1.86.31.66.7.73,1.17.14h.45c.59.91,1.66-.21,2.28.56l.29,2.28.46.5.22-.27c.39.91.72,1.84,1.2,2.71-.21,0-.31.14-.09.5-.11,1.11,1.35,1.32,1.36,2.37a3.57,3.57,0,0,0,.55,2.38c-.72,1.86-2.6,3.13-2.73,5.3-.08.61-.3,1.09-1,1a1,1,0,0,0-.33.86,5.73,5.73,0,0,1,.11,2.18c-.08.42-.22.83-.27,1.26a4.15,4.15,0,0,0,.48,2.18,3.33,3.33,0,0,1,.24,2c0,.49.38.7.68,1,.62,2.41,2.55.92,3.86,1.31a4.4,4.4,0,0,0,3.36.59c1.56-.21,2.26.45,2.4,1.92a4.11,4.11,0,0,0,1.8,1.93c.1.27.23.5.58.39l.34-.25a1.66,1.66,0,0,0,.21.16,3.75,3.75,0,0,0,4.15-.6l0,0a1.08,1.08,0,0,0,.83.67,1.89,1.89,0,0,0,2.17-1.6c.23-.89.21-1.83.48-2.72a8.75,8.75,0,0,0,.43-2.79c-.2-2.2.56-2.78,2.7-2.15.61.18,1,.75,1.68.84.38-.06.68-.17.47-.66C164.4,234.46,163.6,233.77,161.77,234.2Zm3.5-67.2a1.22,1.22,0,0,1-.11.72h0A4.48,4.48,0,0,0,165.27,167Zm-.17-7.94v.06l0,0Z"/><path class="cls-2" d="M151.3,187.3c-.17-.58-.8-.36-1.21-.51,0-.11,0-.22-.06-.33,0-.91-.94-.89-1.43-1.32a18.36,18.36,0,0,1-1.81-.95c-.94-.28-1.67-1.59-2.87-.58a2.61,2.61,0,0,0,.16,1.78c-.25,1.11.45,2.44-.64,3.32a4,4,0,0,0-1.3,3.62,3.21,3.21,0,0,1-1,2.74c-.58.11-1.69-.39-1.42.81s-1,1.32-1.39,2h0l-.13.08v.15a3.66,3.66,0,0,0-1.72,1.17h0l-1.5.59c-.81.1-2-1-2.24.82h0l-.64.08-.87-.5c-1-1-2.26-.3-3.4-.46h0l-1.1-.06c0-1.34-1.24-.86-1.84-1.32-.67-.27-.92-1.31-1.89-1h0c-.43-1-1-1.39-1.9-.49.37-1-.58-1.3-.88-1.94-.14-.84,0-2-1.47-1.42h-1.41c-.47-.92-1.27-.16-1.89-.36h0c-1.81-.5-2.37-2.26-3.48-3.46-.13-1.14-.63-1.89-1.9-1.88h0l-.34-.54c-.52-.68-1.27-.44-2-.49.29-1.54-.4-2.11-1.88-1.94-.69.08-1.39.1-2.08.14-.9-.47-.24-1.36-.55-2,.47-1.2,1.5-2.47-.38-3.36.11-1-.63-1.4-1.35-1.81h0l-.48-.13h0c-.48-.72-1-1.43-2-1.38h0c-2.46-1.91-4.91-3.84-7.38-5.73-.53-.41-.84-1.35-1.68-1.07-1,.35-.43,1.34-.59,2-1.28.59-1.22,1.64-.94,2.76l0,.66h0c-1-.12-1,.57-1,1.24-.54.76-1,1.53-.46,2.48l0,.65c-1.63.17-.88,1.31-.88,2.14h0l0,.53c-1.44.35-1.18,1.37-.93,2.38h0l-.58.59h0a2,2,0,0,0-.4,2.24h0l-.6.68-.78,1.73h0l-.63,1h0l-.47.11h0a2.31,2.31,0,0,0-2.28.43h0a2.26,2.26,0,0,0-1.49,1c-.68-.21-1.35-.46-1.9.26h0l-2.37.72c-.71.3-1.65.29-1.85,1.32-3.07,1.26-6.29,2.18-9.19,3.85l-1,.38h0l-.4.08a1.21,1.21,0,0,0-1.72.47,4.62,4.62,0,0,0-2.09,1,1.77,1.77,0,0,0-2,.53h0c-.58.23-1.23.37-1.51,1-1.28-.48-2.28.16-3.28.82h0l-.61.58a2.41,2.41,0,0,0-2.22.47h0L42.53,206h0a1.79,1.79,0,0,0-2,.62c-.89.22-2,0-2.31,1.28h0l-1.64.59h0c-.87-.44-1.57.09-2.3.4h0c-1,.3-1.57,1.48-2.77,1.42a1.74,1.74,0,0,0-2,.61,2.56,2.56,0,0,0-2.1.82c-2.13,1.07-3.23,3-4.1,5.08l-1.91.73h0c-1-.05-2.06-3.15-2.94.09-2.26.51-1.14,1.6-.46,2.62v.52c-1.29-.27-1.63.5-1.68,1.56h0a6.06,6.06,0,0,0-1.67,2.36c-1.17.37-.79,1.68-1.45,2.37h0l-.79.06h0a2.75,2.75,0,0,0-1.59-2.4c-.12,1.38,1.16,2.52.13,3.69-.4.92-1.65,1.32-1.54,2.54-1.73-.13-.68,1.35-1.13,2h0c-.32,0-.37.17-.29.43h0c-.72,0-1.28.14-1.36,1h0c.22,1.56-.94,3.35.76,4.67h0c1.75.14,2.33,2.14,4,2.48s.83,2.53,2.38,2.87c.29.5-1.12,1.45.42,1.63h0l1.5,1.24c-.12.07-.36.18-.35.23.11.45.45.16.7.19l1.48,1.65c.22.47.43.94.64,1.4.48.75.37,1.84,1.37,2.28h0l.95,1.92h0c.34.94-.88.84-1,1.48h0l-1.38.76h0a2.54,2.54,0,0,1-1.86,0c-1.05-.53-2.1-.9-3.06.19l-.77.6c-.25.42-1,1.1-.82,1.1,1.2,0,2.31,1.29,3.54.26h.61c1.05,1.16,2.46.89,3.78,1,1,.95,2.36.13,3.38.85h0l2.85.47,2.89.46,1.89.12c1.16.87,2.63.38,3.87.88l2.86.46,2.88.47,2.34.15a2.07,2.07,0,0,0,2,.36l8.11.07h0c.71.72,1.59.43,2.43.41l6.69.09a5.17,5.17,0,0,0,2.88.38l11.5,0c.87.76,1.91.5,2.91.45l10.44.13a8,8,0,0,0,3.94.34l10.41.16c2.66.69,5.37.38,8.06.36,4.9,0,9.81.36,14.69-.35,1.88.17,4.45-1.09,4.75,2.32h.32c0-1.25-.18-2.55,1-3.43a.53.53,0,0,0-.39-.6c.67-1.14-.34-2.12-.44-3.19-.24-.86-.72-.89-1.3-.59h0c-.65-1.1-1.76-1.79-2.51-2.8a.9.9,0,0,0-.23-.08c0-.42,0-.85,0-1.28h0v-.44a.48.48,0,0,0,.26-.09c.6-1,1.11-2.13,1.77-3.14,1-1.88-1-3.27-.86-5l-.21,0c0-.28.05-.56.07-.83s-.18-.28-.35-.1h-.12c.34-1,.37-2.12.76-3.13V244a1.66,1.66,0,0,0,1-.31c.52-.53,1.63-.45,1.68-1.45l.13,0a1.45,1.45,0,0,0,1.08-1,.34.34,0,0,0,.16-.12,2.59,2.59,0,0,1,1.86-.58,1.47,1.47,0,0,0,.73.24,2.17,2.17,0,0,0,1.57-2.36,1.74,1.74,0,0,0,2.09-.6,1.52,1.52,0,0,0,.13-2.13l-.63-2.29.35-1c0-.81.51-1.68-.3-2.38v-.8a.94.94,0,0,0,.36.11c.63,0,.91-.48,1.14-1,.2-2.09,2.34-3.26,2.56-5.35l-.27-.42a2.68,2.68,0,0,0-.38-1.88,2.58,2.58,0,0,1,.13-.31c0-1.09-.85-1.69-1.33-2.51a29.65,29.65,0,0,1-1.43-2.88,1.21,1.21,0,0,0-.61-.49,2.14,2.14,0,0,0,.05-1.85c-.49-1.14-1.56-1-2.51-1.13a4.48,4.48,0,0,0-.64-.05c-.56.07-.94-.46-1.42-.69.53-.27.79-.7.26-1.58a2.46,2.46,0,0,1-.66-2.92c.27-.71.5-1.54-.35-2a2.88,2.88,0,0,1,.87-1.14,3.08,3.08,0,0,0,1.09,1.06,4.25,4.25,0,0,0,1.58.78,1,1,0,0,0,.27.49,24.79,24.79,0,0,0,2.43,1.9,8.82,8.82,0,0,0,1.5,1.06,1.68,1.68,0,0,0,1.12.19c0,.34.1.48.48.35-.2.59.31.86.64,1.21a12.75,12.75,0,0,0,2.06,1.45,10.59,10.59,0,0,1,1.43,1.15c.77.5,1.32,1.43,2.45,1.19l.09,0a1.09,1.09,0,0,0,.07.3c1.37.65.88-.37.86-1h0c.63-3.08,1.42-6.13,1.84-9.24.56-4.14,1.79-8.16,2-12.34C155.59,188.83,155.1,188.17,151.3,187.3Zm-65.19-5.77.17-.25A.7.7,0,0,1,86.11,181.53Zm3.81,84a2.35,2.35,0,0,0-.11-.24l0,0,.27.09Z"/><path class="cls-1" d="M174.86,277.31a4.42,4.42,0,0,1,.33.84c0,.21-.08.56-.37.25a2.21,2.21,0,0,1-.36-.86A2.31,2.31,0,0,1,174.86,277.31Z"/><path class="cls-5" d="M179.9,283.26c-.29-.56-.2-1.28-.65-1.77a3.63,3.63,0,0,0,.09-.56c-.38-1.5-1.48-2.82-1.17-4.51.42-2.34-.25-4.53-1-6.7a16.87,16.87,0,0,1-1.58-3.29,4.27,4.27,0,0,0-.41-.8l0-.51a4.58,4.58,0,0,1-1-3.3c-.83.74-.88,2.21-1.88,2.79a7.7,7.7,0,0,0-.91.18.91.91,0,0,0-.88.18l-.61.59a3.91,3.91,0,0,0-2.86,1.74c-.59.65-2,.6-1.85,1.84.18,1.62-.59,3-.91,4.51l0,2.37a1.33,1.33,0,0,0-.08.45c-1.68,1.15-3.6,1-5.44.84-1.33-.13-2.58-.48-3.67.6l-.41.07c-1.42,1.16-3.15,1.21-4.86,1.32-.69.23-.94,1.24-1.86,1.07l-1,1c-1.23-.2-2.24.58-3.38.77-1.1,1-2,2.19-1.68,3.62a5.16,5.16,0,0,1-.68,4.22c0,.14,0,.28,0,.41l-.95,1c-1.22,1-2.75,1.84-2.4,3.84-1.13,1.31.09,2.55.1,3.82l-.69,1.92c-1,1.14-.87,2.43-.63,3.82s1,2.94-.69,4a3.87,3.87,0,0,1-.59.13l-.36-.38c-1.12-.45-2.1-1.25-3.36-1.37-.54-.71-1.12-1.32-2-1.07a1.18,1.18,0,0,0-.6-.22c-2.66,1.05-4.61,3.05-6.62,5l.1.21c-.51.09-.37.56-.47.9l1.33,1.1a5.2,5.2,0,0,0,1.83,3.25l1.64,1,.12,1.83a2.69,2.69,0,0,0,.8,1.68,11,11,0,0,1,1.68,1.85c1.14,1.61,2.07,3.35,3.17,5a26.78,26.78,0,0,0,2.33,3,14.44,14.44,0,0,0,2.65,2.41c1,.66,2.3.87,3.19,1.62.63.54,1.42,1.17,1.91.14.41-.88.92-1.72,1.32-2.62s.51-1.79.9-2.65a15.53,15.53,0,0,1,2.27-3.69,13.44,13.44,0,0,0,2.77-4.26l1.36-1.48c1,0,2.13.41,2.85-.74a.43.43,0,0,0-.24-.18,7.13,7.13,0,0,0,3-2.91l1.09-1,11.49-1.86c1-.31,2.21-.12,3.07-1,.12-.17.23-.36.35-.53a1.78,1.78,0,0,0,.91-.78l.18,0a2.79,2.79,0,0,0,.83-.36,1.77,1.77,0,0,0,.36-.5c.28-1,1.15-1.43,1.8-2.08a3.41,3.41,0,0,0,.31-.6,6.24,6.24,0,0,0,.14-4.56,1.07,1.07,0,0,0-.34-.27c0-.43,0-.85,0-1.28l.18-1.41c-.16-1.25-1.23-1.1-2-1.35a1.11,1.11,0,0,1,.07-.22c-.8-.67-1.66-1.3-1.11-2.55a1.74,1.74,0,0,0,0-.6c1-.58.59-1.91,1.26-2.65a6.15,6.15,0,0,0,.28-.71l1-.57c.43-1.14,2.82-.37,2.33-2.4l.16-.48c-.08-.33,0-.75-.38-.92,0-.06.09-.11.13-.18a4.5,4.5,0,0,0,.31-2.09s0-.06,0-.1h.39C179.34,284.51,180.3,284,179.9,283.26Zm-4.17,16.27Z"/><path class="cls-3" d="M223.13,98.71h0Z"/><path class="cls-3" d="M257,116.33h-.16a2.12,2.12,0,0,0-.14-.4,6.53,6.53,0,0,1-.61-3.42c.13-1.81-.11-3.64-1.68-4.93-1.58.06-1.22-2.43-2.91-2.22L251,105c-1.85-.44-3.71-.92-5.15.92h0c-.81.26-.71,1.17-1.19,1.67s-.52,1.58-1.47,1.05c-.69-.37-.21-1.08-.06-1.69.38-1.58.5-3.14-.76-4.45l-.41-1c.12-1.49-1.27-1.67-2.06-2.37s-.12-1.65-.53-2.39c-.12-.68-.67-1.06-1.08-1.53h0c-.42-1-1-1.83-2.16-1.94a.63.63,0,0,0-.9.12,7.18,7.18,0,0,0,.57,4.32c.83,1.93-.06,3-2.2,3-.46,0-.92.26-1.37.23-2.54-.15-5.22.83-7.57-.91-.23-.77-1.08-.84-1.52-1.36-1.57-.33-1.82,1.33-2.83,1.86-.42.35-1-.09-1.44.3-1.83-.56-3.75-.93-5.28-2.22-1.18-.31-2.53-.31-3.36-1.34A3.59,3.59,0,0,0,206,96.18c-.13-.52.2-.88.43-1.28-1.27-.22-1.09.81-.91,1.34.56,1.6,0,3.17,0,4.74h0c-.07.28,0,.47.31.54h0c.45.89,1.93.22,2.16,1.44l.16,0,.1,0h0l-.28,0c.69,1,2.59,1.5,1.37,3.3h0l-.08,1c-1.17.88-1.34,2-.49,2.83a.09.09,0,0,0,0,.05l.09,0a3,3,0,0,0,.38.3,2.78,2.78,0,0,0,1,2.08h0v.53c-.71.78-.32,1.55,0,2.33h0c-.64,1.64,1.58,2.19,1.41,3.66-.31,1.07-.77,2.15,0,3.22h0c.66.55,1.05,1.42,2,1.68s1.5,1.83,2.88,1.09h0l.54-.07h0c.34,1.44,1.42.85,2.29.84l-.25-.11a.62.62,0,0,1,.25.11l1,.07h0l1.17.06h0c.8,1,1.79.34,2.7.33l.48-.38.68-.06a2.06,2.06,0,0,0,.37.23.72.72,0,0,0,.45-.15,3,3,0,0,0,3.46.77c1.45-.68,2.18.15,3.16.68a2.54,2.54,0,0,0,2.93.1c.39,0,.9-.27,1.13-.1A5.06,5.06,0,0,0,242,128c.33-.13.87.25,1.3.39.51,1,.94,0,1.4,0,.39-.39,1.36.17,1.48-.64a4.63,4.63,0,0,0,1.6.38.67.67,0,0,0,.34-.13c.13.63.25,1.25.37,1.87l1.06.38H250c1.66,0,3.9.94,3.37-2.27l0-.1.46.1c1-1.16.48-2.81,1.2-4.07l.14.19c.43-.23.38-.58.24-1a2.82,2.82,0,0,0-.67-1.9l.48-.82.21,0a1.67,1.67,0,0,0,.65-.64l.61-.08C256.5,118.51,257.93,117.52,257,116.33Z"/><path class="cls-4" d="M325.7,159.56c-.08-.75-1-1.07-.92-1.92l-.86,0h0a1.61,1.61,0,0,1-.08-.38l-1.91-.92-1.42-1.08-.85-.31s0,0,0,0c-.17-.53-.81-.25-1.06-.63a3.87,3.87,0,0,1-3-1.87c-1.61-.45-2,1.25-3.05,1.75l-2.15-1.79h0l-.47-.52a3.12,3.12,0,0,1-1.5-1.37,8.25,8.25,0,0,0-4.76-2.86,7.19,7.19,0,0,0-1.47,0c-.59-.15-1.17-.3-1.75-.48a.86.86,0,0,0,.07-.21,3.29,3.29,0,0,0-2.54-2.32c-2.55-.43-5.28.56-7.71-.92-.49-.22-1.08.13-1.56-.17.52-.72.24-1-1.32-1.82-1.26-.23-2.76.34-3.66-1.09-.91-.68-1.78-1.57-3-.63-.35.68-.93.39-1.46.36a1,1,0,0,0-1.45.4,2.36,2.36,0,0,0-1-1.26c-.8-.31-1.71-.32-2.35-1,.14-.64-.75-1.78.65-1.75.64,0,1.23,1.36,2,.64.93-.86-.84-1.1-.7-1.88,0-.15.22-.32.18-.42-.57-1.54-.76-3.77-1.87-4.43a11.83,11.83,0,0,1-2.66-2.68.73.73,0,0,0-.54-.37.82.82,0,0,0-.44,0c-.4-.54-.69-1.3-1.23-1.58-2.13-1.14-2-2.57-.79-4.23a1.12,1.12,0,0,0,.33-.14c.76-1.31,1.54-2.61,1.09-4.22a.7.7,0,0,0-.58-.41c-.51-.74,1.32-1.22.22-2-1,.74-1,1.91-1.42,2.93-.4,0-.89.09-1-.49,0-.87.46-1.81-.39-2.55h0l-.54-1.35h0c.52-.81,1-1.61.07-2.45h0l-.15-.49h0c-.3-.85-1.09-1-1.81-1.24-.89,0-1.45-.45-1.4-1.41,0-.72-.15-1.18-.95-1.11l-1-4.21c.33-.67,1-1.37.93-2-.08-.93,1.07-2.44-.93-2.75h0c-.4-1.28-1.53-2-2.38-2.85h0c-.08-.94.13-2-1-2.55-.33-.8-1-.19-1.46-.32a1.86,1.86,0,0,0-.49.52,4.78,4.78,0,0,0-.56,4.14,5.75,5.75,0,0,1-.93,4.64,3.66,3.66,0,0,0-.43.15,5.65,5.65,0,0,1-.08,1.4,1.74,1.74,0,0,0,0,.22c-.34,1.31-1.34,2-3.2,1.84-.09.38.14.61.41.82,1.1.48,1.42,2,2.8,2.09a.64.64,0,0,0,.23-.2c.66,1.38,1.51,3,1.15,4.3a5.32,5.32,0,0,0,.75,4.4.43.43,0,0,0,.36.12c.55,1.06-.54,2-.43,3a.61.61,0,0,0-.45.22l-.56.59a.91.91,0,0,0-.7,1,6.64,6.64,0,0,1,.64,1.83.64.64,0,0,0,.19.08l-.15.57a.76.76,0,0,0-.42-.21c-1.56,1.1-.45,3.07-1.42,4.36-.64,1.21-1.43,2.13-3,1.73l-.65,0a2.21,2.21,0,0,0-1,0s0,0,0-.07a2.11,2.11,0,0,0-.69-1.67,2.18,2.18,0,0,0-1.91-.48c-.21.65-1,.3-1.39.73a8.57,8.57,0,0,1-1.68-.3,37.35,37.35,0,0,1-7.38-.84,3.24,3.24,0,0,1-2.74-.09,4.07,4.07,0,0,0-3.54-.82,6.49,6.49,0,0,1-3.41-.22h-.48a1.16,1.16,0,0,0-.91-.23c-.32.11-.59.27-.5.68.59.21.7,1.07,1.44,1.08h0l.42.37h0l-.35,4.89h0l-.07,3.78-.05,0v.07c-1,.8-.27,1.87-.44,2.8h0a4.71,4.71,0,0,0-.51,2.47h0c-1,.92-.1,1.53.35,2.22h0l1.56.05h0l.49.08h0l.93.9a4.24,4.24,0,0,0,2.37,2.26c.1.6-.31,1.33.45,1.75h0l.94.89a1,1,0,0,1,.08.34,2.37,2.37,0,0,0,.44,2.43h0l.64.09h0c.28.45.56.9.83,1.36-.83,1-.7,1.85.5,2.47h0l.4.48,2.84.81h0c1.22.32,1.56-.67,2.07-1.4l0-.27h0a.34.34,0,0,1,0,.26c.95.17,1.87.27,2.34-.86h0a.43.43,0,0,0,.11-.37h0l.89-.12h0c.64.72,1.27.5,1.91,0,.84-.16,1.82.47,2.53-.44h0c.21.31.13.84.67.91h0c.7,1.09,1.84,1.23,3,1.41h0l1,.52h0c.52.92,1.54.47,2.26.84h0c1.65.84,2.37,2.78,4.12,3.52h0c.08,1,.86,1.56,1.22,2.37.16.72.5,1.55,1.28,1.28.55-.19,1.48-.7,1.11-1.74l.51-.52h0l.06-.5h0c1.77-.45.76-1.85,1-2.84h0c1.23-.36,1.56-1.61,2.36-2.4h0l11,.18a.19.19,0,0,0,.1.29,7,7,0,0,1,.19,2.84c.13,6.29-.2,12.58.18,18.87,0,2.82,0,5.64,0,8.47a14.83,14.83,0,0,0,0,7.71l.23,0,.23,0c.66.91,1.66.25,2.45.56.56.62,1.27.36,1.94.31h1.46a.78.78,0,0,1,.3-.13l-.3.13a8.88,8.88,0,0,0,4.3.47,76.67,76.67,0,0,0,11,1.13c.39.55.93.41,1.45.31a50,50,0,0,1,7,.71c2,.28,2.12-.48,2.14-1.89.87-1.25.23-2.68.47-4a1.32,1.32,0,0,0,.44-.08h0l1.84.16h0c1,.86,2.41,0,3.43.8,1.82.51,1.31-1,1.54-1.81h0a8.73,8.73,0,0,0,.77-3.37l.24-.92h0c.33-1.27,1-2.48.7-3.87,0-.8,0-1.61,0-2.41a.43.43,0,0,0,.1-.42c.77-.67.29-1.64.56-2.43a.8.8,0,0,0,.3-1l0-1h0l.63-2.36h0c.61-.39.34-1,.29-1.48a16.44,16.44,0,0,0,1.05-4.8h0c1.52-.68,1.62-1.94,1.35-3.35.74-1.67,1.68-3.3,1.09-5.25a.92.92,0,0,1,.37,0ZM310,152.72Z"/><path class="cls-4" d="M207.39,258.28l-.49.1h0c-.81-.81-1.31-1.92-2.37-2.49-.12-.55-.59-.42-.95-.5-.33-.59-.2-2-1.51-.83a.34.34,0,0,0,.06-.24l-1.47.21a1.83,1.83,0,0,0-.46-.12s0,0,0,.05,0,0,0-.05c-1.86-2.29-5-1.39-7.19-2.91h0l.5-.39c0-.76-.42-.78-1-.56a13.58,13.58,0,0,1-3.81-.31.85.85,0,0,0-1,.41c-.39.89-1.6,0-2,.93h0c-2-.09-2.48,1.38-3,2.84a1.3,1.3,0,0,0-1.32.51,8.28,8.28,0,0,0-6.54-1.46c-.48.07-1-.29-1.53-.45l-.52.38a2.4,2.4,0,0,0,1.26,2.18l.16,0a1.4,1.4,0,0,1,0,.66,2.92,2.92,0,0,1-.17.36,2.72,2.72,0,0,1-1.31.62.33.33,0,0,0-.42.17c-.6.95-1,1.89,0,2.84.37,1.78,1.27,3.79-1.78,4.11,0,0-.06.43-.08.66l.82-.12a2.12,2.12,0,0,0,2.51-1.38,1.74,1.74,0,0,0,1.25,1.62c.42,1.59.9,3.12,3.05,3,1,.18,2.38,1.47,2.71-.78a2.17,2.17,0,0,1-.11-.44c.82-.26.94-.93,1.05-1.61a2.38,2.38,0,0,0,.72-.69,3.45,3.45,0,0,0,.46-1.78c.23-2.69.23-2.69,2.84-1.7a8,8,0,0,0,3.14.44c1-.38,1.92-1.08,2.94.12a2.25,2.25,0,0,0,2.46.42c2-.65,4.14-.89,6.2-1.37a10.45,10.45,0,0,0,1.13-.74c.08-.07.15-.15.22-.22l1.1.5h0c.72.33-.07,2.86,1.93,1.33,2.4,1.09,3.46.85,3.95-.89C209.79,259,207.63,259.25,207.39,258.28Z"/><path class="cls-3" d="M173,257.48c.9-.36,2.12-.52,1.24-2-.68-.56-.51-1.69-1.41-2.1a.71.71,0,0,1-.41,0c-1.52-1.71-1.17-3.63-.72-5.6.25-1.09.55-2.46-1.48-1.65-1.21.49-.89-.73-1.25-1.2l-1.41-1.5a18.32,18.32,0,0,1-3.3-3.84h0a2.06,2.06,0,0,0,.32-1.89l.18-1.44c-1.47-2.35-3.72-1.16-5.87-1.4a7,7,0,0,1,.58,5.25c-.77.7-.53,1.62-.54,2.47,0,1.31-.63,1.91-1.92,1.84l-.46-.39c-.94.08-1.84.66-2.77.73-.25,0-.49,0-.74-.06a2.6,2.6,0,0,1-.7-.33c-.25-.13-.41-.13-.5,0l-.56-.18L151,244a4.69,4.69,0,0,0-1.47-1.4,1.9,1.9,0,0,1,.15-.63c-.13-1.36-1-1.87-2.25-2a11.43,11.43,0,0,1-3.29-.33c-1.49-.45-3.26.1-4.48-1.27h0l-.3-.56a4.49,4.49,0,0,1-2.48.36c-.45.78-.1,2-1.38,2.32-.88-.22-1.78-.57-2.44.43l-.07.16a.57.57,0,0,0-.34,0l-.91.93c-.35.9-1.41.88-1.95,1.52l-.93.4c-.48,1.05-1.8,2-.43,3.28a.37.37,0,0,1,.14,0,.11.11,0,0,0,0,.06.94.94,0,0,0,.16.91,3.33,3.33,0,0,0,.55,3,1.43,1.43,0,0,1,.1,1.85,5.74,5.74,0,0,0-1.62,3.33,1.27,1.27,0,0,0-.33.6,1.72,1.72,0,0,0,.33,1.33c.16,1.55,1.59,2,2.51,2.87.54.08,1.14-.08,1.54.46l.38-.49c.06-1.06-.92-1.11-1.51-1.53-1.33-1-1.27-1.48.06-2.42,1.12-.79,2.23-.33,3.35-.28a2.08,2.08,0,0,1,2.2.82c.88,2.71,1.82,1,2.79.17,2.69.61,6.16-.15,6.93,3.89-.36,2.8,1.75,2.48,3.43,2.72l.88.05h0l1,.49,1.45-.11,4.32,2.37.49-.39c1.94-.26,3.68.76,5.55.86l.09.2c1.43,1.15,2.41-.05,3.49-.68l.23-.14.18.14,2.69-1.64a.81.81,0,0,0,.34,0,3.1,3.1,0,0,0,.85-.55c2.67-1.49,2.8-1.82,1.93-4.73a5.09,5.09,0,0,1-.29-2.81,1.1,1.1,0,0,1-.14-.18.66.66,0,0,0,.27-.09A.71.71,0,0,0,173,257.48Zm-17.1-12.22v0h0Z"/><path class="cls-1" d="M179.57,277.47c.23-.62-1.17-1.65.47-1.92C181.18,276.22,181.15,276.33,179.57,277.47Z"/><path class="cls-1" d="M184.35,289.47c-.46.49-.19,1.43-1,1.66-.06,0-.27-.46-.41-.71A1.43,1.43,0,0,1,184.35,289.47Z"/><path class="cls-2" d="M216.5,272.25a1.65,1.65,0,0,0,0-2.51,2.3,2.3,0,0,0-1.42-2.36.55.55,0,0,0-.15-.08l-1.37-.75c-.86-.78-.52-1.7-.18-2.52.53-1.26,1.43-2.35,1.69-3.74.21-.42,0-.55-.37-.51l-.72.92a1.23,1.23,0,0,0-.33,1c-.78,1.91-1.36,4-4,4.24v-4.27c-.26-.39-.06-1.25-1-1-1,1.1-2.24.89-3.49.64-1.1.14-1.42-.82-2-1.4a1.38,1.38,0,0,0-1.56-.29c-.36.15-.9,0-1,.6a39.75,39.75,0,0,0-6.83,1.38c-.52.14-1.46.37-1.69-.33-.93-2.84-2-.67-3-.14-1.12.32-2-.65-3.11-.53-.35-.15-.69-.32-1-.45-2.32-.84-2.47-.7-2.59,1.76,0,.88.45,1.87-.39,2.64-.22,1-1.11,1.51-1.43,2.41,0,2.54-1.23.69-2,.56h0c-2.3.33-2.64-1.31-3-2.95-.43-.05-.61.22-.73.56a2.24,2.24,0,0,0,.27,1.32c.47,1.16.51,2.51,1.5,3.45.36,1.91,1.44,3.72,1,5.76s.41,3.93,1.45,5.68c.29.67,0,1.41.25,2.09a10,10,0,0,0-.11,1.54.63.63,0,0,0-.59.25c0,.77,0,1.55,0,2.32a.91.91,0,0,0,.21.75.31.31,0,0,0-.05.1,6.44,6.44,0,0,0-.24.61c-.31,1-1.32,1.3-2,1.95a7.06,7.06,0,0,0-1.33,1.29c-1.44.65-.59,2.26-1.33,3.2l-.12.71c-1.61,2,.41,2,1.43,2.54a10.37,10.37,0,0,0,1.93,1.3,1.19,1.19,0,0,0-.15.09,2.16,2.16,0,0,0-.4,1.41,2.32,2.32,0,0,0,.47,1.41c.39,1.8-.15,3.54-.41,5.29l.9-.2a1.57,1.57,0,0,0,1-1.94c-.48-1.25.5-1.48,1.07-2a1,1,0,0,0,.05-.22c.84.11,1.92-.22,2.22,1s-.51,1.89-1.37,2.5l.06.61a3.26,3.26,0,0,0,1.94-1.66v-.95c.89-.82.51-2,.84-3l0-1.8c1-1.06,1-2.39,1-3.71,0-1.7-.27-3.46.82-5,.49-2.09,2.61-2.3,3.93-3.43a11.56,11.56,0,0,0,4.29-4.72h0l2.49-3.76h0l1.8-2,.66-1.42a2.83,2.83,0,0,0,.31-2.3c.3-.07.39-.32.38-.64.88-1.31.49-2.92,1.07-4.32.44-1.08,1.28-2.51,2.12-2.08,1.09.57,3.37.77,2.66,3.11,0,0-.08.05-.13.16a.3.3,0,0,0,.11.32l.42,1.95a8.94,8.94,0,0,0,.11,3.34l.17-.06c.15.66.74.62,1.12.5,2.28-.72,4.72-.9,6.89-2h0c1-.68,1.89-.66,2.47.58.41.06.68,0,.43-.5A1.68,1.68,0,0,1,216.5,272.25Zm-33.44,27.64v0h0v0Z"/></svg>