<svg id="Layer_1" data-name="Layer 1" xmlns="http://www.w3.org/2000/svg" viewBox="0 0 191 191"><defs><style>.cls-1{fill:#2e78b8;}.cls-2{fill:#28679e;}.cls-3{fill:#225786;}</style></defs><title>montos</title><path class="cls-1" d="M95.9,123.27A24.64,24.64,0,0,1,71.29,98.66a24.35,24.35,0,0,1,2.32-10.41L34.48,65.94a69.56,69.56,0,0,0,109.17,83.3L111.82,117.4A24.45,24.45,0,0,1,95.9,123.27Z"/><path class="cls-2" d="M95.51,73.9a24.22,24.22,0,0,1,13.66,4.2l27.94-35A68.9,68.9,0,0,0,36.46,62.37L75.33,84.6A24.43,24.43,0,0,1,95.51,73.9Z"/><path class="cls-3" d="M120.51,98.65a24.49,24.49,0,0,1-5.86,15.92l31.83,31.84A69.47,69.47,0,0,0,140.9,45.6L112.77,80.76A24.54,24.54,0,0,1,120.51,98.65Z"/></svg>