<svg id="Capa_1" data-name="Capa 1" xmlns="http://www.w3.org/2000/svg" viewBox="0 0 542 479"><defs><style>.cls-1{fill:#e31f20;}</style></defs><title>gas</title><path class="cls-1" d="M184.2,253.55s0-47.37,0-51.56a79.12,79.12,0,0,1,.51-10.89c2.46-17.73,16-32.8,32.43-39,4.36-1.65,9.08-2.35,13.66-3.49V129.51l-5.68-.51c-15-1.4-23.81-15.69-18.32-29.62,2.6-6.6,9.56-12.09,16.52-13.42,3.66-.7,7.45,0,11.14,0,3.91-.07,7.83-.08,11.75-.08h23.63c15.37,0,30.75,0,46.11-.11C328.79,85.65,338.54,99,336.7,111c-1.53,10-9.28,17.05-19.9,18-1.82.16-3.63.35-5.44.52V148.9l3.1.57,3,.59c19.2,3.62,35,18.6,38.87,37.93a74.77,74.77,0,0,1,1.16,9.21c.36,4.62,1.13,56.36.55,56.36-7.13,0-14.27.13-21.4.12Zm78-105c.17-2.71.31-4.87.45-7.14h16.91c.14,2.49.25,4.65.38,6.92h13.51V129.1H248.79v19.42Z"/><path class="cls-1" d="M184.63,334.25a39.7,39.7,0,0,1-.65-5.92c-.65-19,.23-38.34.23-57.4H358.05s0,35.49,0,38.72c-.16,12,.95,23.38-3.49,35a51,51,0,0,1-10.78,17.16c-4,4.21-13.17,7.44-13.48,13.92-.28,5.86-.11,11.74-.11,17.57,0,0-107.76,0-118.08-.06l0-13.07a16.15,16.15,0,0,0-.84-6.35c-1.21-2.87-3.91-4.76-6.33-6.7C195.18,359.35,187,347,184.63,334.25Z"/></svg>