<svg id="Capa_1" data-name="Capa 1" xmlns="http://www.w3.org/2000/svg" viewBox="0 0 542 479"><defs><style>.cls-1{fill:#7874b2;}</style></defs><title>pluviales</title><path class="cls-1" d="M227.87,112c-26.59,52.66-26.54,104.63,0,157.1h-4.54c-30,0-60-.2-90,.11-9.57.1-16.88-3.46-22.83-10.51C101.75,248.32,97,236,94.13,223c-6.49-29.38-5.32-58.29,7.31-85.95,3.1-6.77,8.14-12.83,13.09-18.52,4.25-4.87,10.34-6.64,17-6.62,30.82.12,61.63,0,92.45,0Z"/><path class="cls-1" d="M320.23,235.7c22.22-14.3,45-17.11,68.28-5.17s34.95,31.75,35.63,57.79c.47,18.21,4.62,35.31,13.81,51.08a43.47,43.47,0,0,1,6,22.18,65.74,65.74,0,0,0,6,26.12c.47,1.07.91,2.16,1.82,4.31-2.5-1.52-4.13-2.37-5.61-3.43-3.32-2.39-6.52-4.94-9.84-7.32-13.7-9.79-30.66-9.67-44.21.29-3.18,2.34-6.28,4.79-9.51,7.08-8.87,6.3-19.16,5.94-28.26,0-6.43-4.2-10.17-8.43-8.92-17.15,1.48-10.4,3.34-20.39,8.7-29.5,7.26-12.37,11.32-25.69,11.14-40-.2-15.1-7-26.84-20.13-34.22C332.26,260.5,325.12,249.33,320.23,235.7Z"/><path class="cls-1" d="M314.91,85.79c-5.71,6.67-11.86,12.85-16.85,19.87C284,125.46,277.2,148.06,274.67,172c-2.87,27.11.09,53.58,10.26,79,6.55,16.43,15.79,31,29.43,42.6.38.32.68.72,2,2.13-13.58-.5-26.23.26-38.42-1.72-16-2.61-26.86-13.74-35.6-26.76C230.81,250.14,225,231,222.56,210.7c-3.37-28.14-.41-55.52,11.24-81.56,7-15.7,16.72-29.36,32.26-37.92a42.85,42.85,0,0,1,21.13-5.43C296.53,85.81,305.87,85.79,314.91,85.79Z"/><path class="cls-1" d="M351.16,295.14a45.43,45.43,0,0,1-25.77-9.2c-13.63-10-22.56-23.67-28.26-39.26-15.55-42.45-14.51-84.34,5.95-125.11a72.27,72.27,0,0,1,22.45-26.65c17-12.24,36.64-12.19,53.57.16,10.48,7.64,18,17.76,23.74,29.24,12.24,24.53,16.34,50.66,14.27,77.78-.73,9.55-2.59,19-4.05,29.31-4.22-3.16-7.55-5.47-10.6-8.1-.72-.62-.81-2.41-.6-3.56a158.15,158.15,0,0,0-1.4-65.31C397,140,391.61,126.4,382,114.79c-5.95-7.2-13.08-12.81-22.34-15-13-3.06-23.91,1.52-33.12,10.51-11.89,11.61-18.26,26.31-22.08,42.14-7.55,31.26-6.55,62.2,5.38,92.29,5.95,15,14.8,27.77,30.08,35.15C345.87,282.76,349.27,288.32,351.16,295.14Z"/><path class="cls-1" d="M338,213c.39-8.5,1-16.48,1.06-24.47a134.5,134.5,0,0,0-10.88-54.06c-1-2.39-1.23-4.29.51-6.3,2.85-3.28,5.32-7,8.52-9.86,9.39-8.51,20.22-8.52,29.84-.27,8.1,7,12.86,16.1,16.46,25.92,8.4,22.91,9.73,46.47,6,70.43a8.61,8.61,0,0,1-.63,1.57C372.29,209.49,355.25,208.25,338,213Z"/><path class="cls-1" d="M316.45,222c-5.33-24.42-4.77-48.58,2.52-72.5l1.12-.22c1.2,5.16,2.55,10.29,3.58,15.49,3.19,16.09,2.76,32.21.71,48.42C323.73,218.36,321.32,221,316.45,222Z"/></svg>