<svg id="Capa_1" data-name="Capa 1" xmlns="http://www.w3.org/2000/svg" viewBox="0 0 542 479"><defs><style>.cls-1,.cls-2{fill:#f1ad3c;}.cls-2{fill-rule:evenodd;}</style></defs><title>vivienda</title><path class="cls-1" d="M239.43,393.2H149.7c-3.94-1.93-4.87-5.33-4.87-9.38q.06-65.1,0-130.14a5,5,0,0,1,2-4.25c9.8-8.1,19.54-16.28,29.29-24.43q19.47-16.4,38.94-32.76l46.6-39.1c3.72-3.11,7.48-6.18,11.21-9.3.58.48,1,.75,1.31,1.07q14.23,12.72,28.44,25.44Q322.39,188,342.26,205.6c16.1,14.33,32.14,28.79,48.35,43a7.29,7.29,0,0,1,2.78,6.11q-.12,63.11-.08,126.27a28.71,28.71,0,0,1-.47,5.22c-.65,3.59-3,5.56-6.46,6.38-.77.19-1.57.38-2.36.61H299.27a15.1,15.1,0,0,1-.58-2.89q0-33.62.09-67.26c0-9-3.92-13.32-13-13.46-11.8-.13-23.63-.1-35.4,0-7.22.08-10.82,3.88-10.87,11.1q-.09,36.27-.1,72.51"/><path class="cls-2" d="M274.31,85.76c4.16,3.94,8.21,7.91,12.4,11.78,9.44,8.62,19,17.18,28.46,25.75q23.16,20.94,46.33,41.86c13.72,12.43,27.36,25,41.09,37.37q20.85,18.94,41.78,37.82v.53a51.63,51.63,0,0,1-3.81,3.87c-7.66,6.2-15.78,4.93-24,1.4-8.07-3.39-14.1-9.57-20.49-15.28-10.78-9.62-21.51-19.33-32.25-29-9.84-8.81-19.6-17.63-29.42-26.43Q309.65,153.27,285,131.15c-3.66-3.22-7.24-6.51-11.1-10-4.81,4.08-9.55,8.05-14.24,12L214,171.72c-12.61,10.68-25.09,21.43-37.68,32.08s-25.15,21.35-37.88,31.85a129.76,129.76,0,0,1-16,11.7c-7.87,4.57-17.5,3.79-24.21-5.4-.13-.22-.39-.34-.61-.53v-.56q9.09-7.81,18.17-15.73,19-16.68,38-33.41,20.87-18.43,41.65-36.8c12.44-11,24.94-21.88,37.38-32.87q20.52-18.12,41-36.29Z"/><path class="cls-2" d="M351.47,101.23v67.32c-.76-.46-1.3-.71-1.72-1-9.68-8.19-19.4-16.34-29-24.6a5.69,5.69,0,0,1-1.9-3.53c-.17-12.08-.14-24.16-.17-36.25,0-.58.14-1.21.2-1.9Z"/></svg>