<svg id="Capa_1" data-name="Capa 1" xmlns="http://www.w3.org/2000/svg" viewBox="0 0 542 479"><defs><style>.cls-1{fill:#22b496;}</style></defs><title>agua-y-cloaca</title><path class="cls-1" d="M165.88,190c16.82,0,33.63,0,50.45,0,10.62,0,13.4-2.75,13.52-13.38.12-10,0-20,0-30.1l12.8-2.31c-.46-6.26-.27-12.48-1.51-18.39-1.45-6.93-6.6-9.63-13.56-8.2-10.58,2.18-21.08,4.82-31.73,6.56-6.55,1.07-12.28-1.61-15.76-7.52-3.34-5.67-2.7-11.55.53-17.08,3.41-5.85,9.14-8.22,17.1-6.61,7.75,1.56,15.43,3.5,23,5.69,7.39,2.13,13.54,1.82,19.59-4.14,7.78-7.67,22.11-7.17,30.19.22a16,16,0,0,0,15.49,4c8.64-2,17.22-4.45,25.95-6,13.31-2.29,20.12,3.91,19.87,17-.1,5.11-2.65,8.23-6.8,10.57-7.6,4.28-15.53,4.09-23.57,1.69-4.43-1.32-8.78-2.93-13.17-4.42-10.7-3.65-18,.91-19.11,12.18-.47,4.58-.53,9.2-.75,13.46.72.61,1,1,1.3,1.07,9.27,2.3,9.27,2.3,9.28,11.78,0,6.77-.22,13.54.1,20.29.52,10.73,3.62,13.53,14.38,13.55,19.33,0,38.65-.12,58,.11a39.14,39.14,0,0,1,12.42,2.18c8,2.85,12.17,9.38,12.18,17.68,0,19.89,0,39.79,0,60.45-7.3.6-14.32,1.26-21.36,1.74-6.17.42-12.35.57-18.52.94-6.73.4-10.12-1.85-11.26-8.6a57.22,57.22,0,0,1-.46-12.69c.6-10.46-3.24-14.46-13.9-14.14-23.35.7-46.71,2.06-70.05,1.84-24.89-.24-49.76-2-74.64-3.09Q165.86,213.23,165.88,190Z"/><path class="cls-1" d="M351.9,327.86C359,341,366,352.44,371.55,364.63s-1.1,24.71-13.19,28c-12.44,3.36-25.13-3.74-26.95-15.79-.59-3.91.65-8.36,2-12.24a109.9,109.9,0,0,1,6.54-14.12C343.52,343.44,347.29,336.53,351.9,327.86Z"/></svg>