<svg id="Capa_1" data-name="Capa 1" xmlns="http://www.w3.org/2000/svg" viewBox="0 0 542 479"><defs><style>.cls-1{fill:#a7c64d;}</style></defs><title>alumbrado-publico</title><path class="cls-1" d="M373.61,178.45c0-3.27.51-6.65-.19-9.75-.44-2-2.46-4.62-4.2-5-3-.68-4.74,1.86-4.79,4.9-.1,6.53-.09,13.06,0,19.59,0,3.06,1.79,5.58,4.74,5,1.74-.34,3.81-3,4.26-5C374.14,185.1,373.61,181.72,373.61,178.45Zm-190.41,0c0-3.29.52-6.69-.19-9.81-.44-2-2.74-3.5-4.2-5.22-1.58,1.63-4.38,3.15-4.52,4.9a126.69,126.69,0,0,0,0,20.15c.14,1.78,2.92,3.35,4.48,5,1.48-1.72,3.81-3.25,4.26-5.22C183.73,185.11,183.2,181.7,183.2,178.41Zm202.71-21c-4.09-.26-6.6,3.64-4.78,7,2.68,4.93,5.73,9.68,8.78,14.4,1.5,2.31,3.64,3.6,6.36,1.77,2.53-1.71,2.74-4.09,1.28-6.57-2.78-4.7-5.59-9.39-8.58-13.95C388.17,158.84,386.68,158.08,385.91,157.44ZM167.4,161.89c.58-.65,1.16-1.3,1.73-2-1.7-.76-3.37-2-5.12-2.14-1.57-.12-3.93.49-4.75,1.63-3.23,4.54-6,9.39-8.91,14.17-1.53,2.54-1.77,5,1,6.92,3,2,5.08.14,6.6-2.14,2.91-4.39,5.6-8.94,8.31-13.47A16.32,16.32,0,0,0,167.4,161.89ZM344.6,181.4c.63-.37,2-.75,2.64-1.66,3.54-5.48,7.08-11,10.12-16.73.53-1-1-4.22-2.18-4.69-1.53-.59-4.66-.06-5.51,1.12a157.21,157.21,0,0,0-9.54,15.48C338.64,177.63,341.05,181.28,344.6,181.4Zm-149-24.05c-3.92,0-6.7,3.47-5.28,6a145,145,0,0,0,9.89,15.85c.83,1.12,4.29,1.13,6.1.46,2.57-.95,2.21-3.27.85-5.44-2.89-4.63-5.59-9.38-8.54-14A15.73,15.73,0,0,0,195.61,157.35Z"/><path class="cls-1" d="M132.35,392.76c-5.16-2-9.89-4.5-12.71-9.7-6.2-11.46,1.34-25.78,14.33-26.94,2.18-.19,4.38-.16,6.57-.16H243.07c.09-2,.22-3.5.22-5,0-10.17.21-20.35-.06-30.51a24.58,24.58,0,0,1,7-18.25,11.25,11.25,0,0,0,2.77-6.95q.24-74.18.11-148.34c0-15.38-9.48-24.94-24.78-25.12-3.55,0-7.11,0-11.18,0,0,3,0,5.5,0,8,0,3.07-1.22,5.27-4.66,5.11-2.71-.13-3.65,1.17-4.5,3.6-3.31,9.47-9,13.48-19,13.59-9.07.09-18.15.11-27.22,0s-15.43-4.67-18.12-13.42c-.83-2.7-2-3.92-4.8-3.83-3.34.1-4.71-1.8-4.69-5,0-8.29-.17-16.59.07-24.87a19.25,19.25,0,0,1,19.21-18.77q40.11-.37,80.23.47A53.69,53.69,0,0,1,269.44,101a3,3,0,0,0,.86.58c7.21-4,13.68-8.61,20.88-11.18A74.14,74.14,0,0,1,314,86.06c23-.54,46-.19,69-.2,8.1,0,15.88,1.28,20.74,8.52a23.13,23.13,0,0,1,3.72,10.78c.55,7.94.07,16,.22,23.92.07,3.93-1.53,5.64-5.45,6a5.39,5.39,0,0,0-3.63,3c-3.8,10-9.24,13.92-19.79,14-8.76,0-17.52.06-26.28,0-9.24-.07-15.4-4.37-18.42-13.11-.92-2.68-2-4.31-5.08-4.29s-4.3-2.08-4.32-5c0-2.34,0-4.68,0-7-20.19-4.25-36.15,4.59-36,25.24.43,48.66.16,97.33.08,146,0,3.48.65,6.28,3.25,8.82,4.83,4.72,6.69,10.59,6.53,17.43-.28,11.71-.08,23.43-.08,35.45,1.48.14,2.68.35,3.88.35,33.17-.05,66.34,0,99.51-.24,11.65-.07,23.64,7.18,22.6,20.24A18.48,18.48,0,0,1,413,391.39c-8,3.06-18.24,1.38-26.64,1.38H143.57C140.58,392.76,135.13,393.85,132.35,392.76Z"/><path class="cls-1" d="M373.61,178.45c0,3.27.52,6.65-.19,9.75-.45,2-2.53,4.65-4.26,5-3,.57-4.71-1.94-4.74-5-.08-6.53-.09-13.06,0-19.59.05-3.05,1.77-5.58,4.79-4.9,1.75.39,3.76,3.05,4.2,5C374.13,171.8,373.61,175.19,373.61,178.45Z"/><path class="cls-1" d="M183.2,178.41c0,3.29.53,6.69-.19,9.81-.45,2-2.77,3.49-4.26,5.22-1.57-1.67-4.34-3.24-4.48-5a126.69,126.69,0,0,1,0-20.15c.14-1.74,2.94-3.27,4.52-4.9,1.46,1.73,3.75,3.27,4.2,5.22C183.71,171.72,183.2,175.13,183.2,178.41Z"/><path class="cls-1" d="M385.91,157.44c.77.64,2.26,1.41,3,2.63,3,4.57,5.8,9.25,8.58,14,1.46,2.48,1.25,4.86-1.28,6.57-2.72,1.83-4.86.54-6.36-1.77-3-4.72-6.1-9.47-8.78-14.4C379.31,161.08,381.82,157.18,385.91,157.44Z"/><path class="cls-1" d="M167.4,161.89a16.94,16.94,0,0,1-1.09,3c-2.71,4.53-5.39,9.08-8.31,13.47-1.52,2.29-3.59,4.15-6.6,2.14-2.81-1.87-2.57-4.39-1-6.92,2.89-4.78,5.68-9.63,8.91-14.17.81-1.14,3.16-1.75,4.75-1.63,1.75.13,3.41,1.38,5.12,2.14C168.55,160.59,168,161.24,167.4,161.89Z"/><path class="cls-1" d="M344.6,181.4c-3.55-.12-6-3.78-4.47-6.48a156,156,0,0,1,9.54-15.48c.85-1.19,4-1.72,5.51-1.12,1.22.48,2.71,3.69,2.18,4.69-3,5.76-6.58,11.25-10.12,16.73C346.65,180.66,345.23,181,344.6,181.4Z"/><path class="cls-1" d="M195.61,157.35a16,16,0,0,1,3,2.94c3,4.59,5.65,9.34,8.54,14,1.36,2.17,1.72,4.5-.85,5.44-1.81.67-5.28.65-6.1-.46a145.34,145.34,0,0,1-9.89-15.85C188.91,160.82,191.7,157.32,195.61,157.35Z"/></svg>