<svg id="Capa_1" data-name="Capa 1" xmlns="http://www.w3.org/2000/svg" viewBox="0 0 542 479"><defs><style>.cls-1{fill:#38a0d7;}</style></defs><title>arquitectura</title><path class="cls-1" d="M401,179.66l-25.65-51.29h-5.63V113.61H343.49v14.76h-3.78L325.46,99.84h-83V87.37H228V99.84H217.85l-14.28,28.53h-5.06V113.61H172.23v14.76h-4.34l-25.62,51.29h-9.38v16.87H409.11V179.66Zm-201.8-.48h-26.7l-.07-21.6c.21-5.13,6.12-9.19,13.36-9.19s13.19,4.07,13.39,9.19h0v21.6Zm103.21-7.28H277.11V144c14.35,2,25.34,12.22,25.34,24.62Zm-36.14,0H239.58v-3.27c0-11.56,12.17-22.2,26.73-24.49Zm54.95,7.71H310.21v-11c0-17.41-16.37-32.76-38-32.76s-40.43,15.35-40.43,32.76v11H220.72V165.9c0-21.83,22.52-39.56,50.29-39.56s50.25,17.73,50.25,39.56Zm51.18-.43H345.7v-21.6c.19-5.13,6.09-9.19,13.35-9.19s13.18,4.07,13.39,9.19Z"/><path class="cls-1" d="M140.76,391.63h259.8V207.34H140.76Zm74.35-36.13-34.26,0-.09-39.64c.27-6.52,7.83-11.8,17.15-11.8s16.91,5.28,17.2,11.8Zm0-67.4H180.85l-.09-39.65c.27-6.53,7.83-11.76,17.15-11.76s16.91,5.23,17.2,11.76Zm48.73,67.4-34.29,0-.09-39.64c.24-6.52,7.85-11.8,17.18-11.8s16.89,5.28,17.2,11.8Zm0-67.4H229.55l-.09-39.65c.24-6.53,7.85-11.76,17.18-11.76s16.89,5.23,17.2,11.76Zm48.72,67.4-34.3,0-.11-39.64c.28-6.52,7.88-11.8,17.19-11.8s16.88,5.28,17.17,11.8h.06V355.5Zm0-67.4h-34.3l-.11-39.65c.28-6.53,7.88-11.76,17.19-11.76s16.88,5.23,17.17,11.76h.06V288.1Zm48.68,67.4-34.26,0-.14-39.64c.28-6.52,7.86-11.8,17.2-11.8s16.94,5.26,17.2,11.76Zm0-67.4H327l-.14-39.65c.28-6.53,7.86-11.76,17.2-11.76s16.91,5.23,17.18,11.76h0Z"/><path class="cls-1" d="M190.33,344.29l-.11-25.65c.05-1,3-3.41,7.67-3.41s7.69,2.37,7.72,3.67c0,0,.06,25.42.06,25.42Z"/><path class="cls-1" d="M190.33,276.93l-.11-25.7c.05-1,3-3.35,7.67-3.35s7.69,2.33,7.72,3.62c0,0,.06,25.42.06,25.42H190.33Z"/><path class="cls-1" d="M239,344.29l-.09-25.65c.08-1,3.05-3.41,7.71-3.41s7.64,2.37,7.72,3.67v25.42Z"/><path class="cls-1" d="M239,276.93l-.09-25.7c.08-1,3-3.35,7.71-3.35s7.64,2.35,7.72,3.62v25.42H239Z"/><path class="cls-1" d="M287.71,344.29l0-25.65c0-1,3-3.41,7.68-3.41S303,317.6,303,318.9c0,.06.05,25.42.05,25.42Z"/><path class="cls-1" d="M287.71,276.93l0-25.7c0-1,3-3.35,7.68-3.35s7.63,2.35,7.67,3.62c0,.06.05,25.42.05,25.42H287.71Z"/><path class="cls-1" d="M336.43,344.29l-.1-25.65c0-1,3-3.41,7.71-3.41s7.68,2.37,7.72,3.63v25.43Z"/><path class="cls-1" d="M336.43,276.93l-.1-25.7c0-1,3-3.35,7.71-3.35s7.65,2.33,7.68,3.62v25.42H336.43Z"/></svg>