<svg id="Capa_1" data-name="Capa 1" xmlns="http://www.w3.org/2000/svg" viewBox="0 0 542 479"><defs><style>.cls-1{fill:#e84d00;}</style></defs><title>calles</title><path class="cls-1" d="M341.9,393.22H280V361.38H262v31.84H200.1c0-1.3,0-2.6,0-3.9V85.81h62.05V117.4H280V85.78h61.84v3.77q0,60.68,0,121.35Q341.88,302.06,341.9,393.22ZM262.18,142.71V190.3h17.64V142.71Zm17.6,120.61V215.57H262.22v47.75Zm.09,25.1H262.21V336h17.66Z"/><path class="cls-1" d="M146,393.22q0-151.67,0-303.34V85.79h35.89c.06.86.16,1.73.16,2.59q0,152,0,303.94c0,.3,0,.6,0,.9Z"/><path class="cls-1" d="M359.93,393.22l0-208.73V85.79H396V393.22Z"/></svg>