<svg id="Capa_1" data-name="Capa 1" xmlns="http://www.w3.org/2000/svg" viewBox="0 0 542 479"><defs><style>.cls-1{fill:#bd3e93;}</style></defs><title>red-electrica</title><path class="cls-1" d="M373.53,393.23h-205c-.52-2.17-2.08-4.94-1.27-6.34s3.91-2,6.1-2.45c1.79-.38,3.73-.08,6-.08v-9.75c0-8.16.77-9.17,8.71-8.85,3.85.16,5.24-1.26,6.23-4.78,8.46-30,16.45-60.23,25.9-90,6.93-21.81,10.13-43.74,8.68-66.47-.2-3.15,0-6.32,0-9.55H176.5v9.31c2.41,0,4.63,0,6.84,0,3.4-.05,5.09,1.7,5.13,5,.06,5.79.14,11.59,0,17.39-.09,3.43-2,5.22-5.6,5.19-7.57-.07-15.14,0-22.71,0-4.05,0-5.87-2.12-5.92-6,0-3.22,0-6.44,0-9.66,0-11-1.31-12.3,11.23-12.3.27,0,.53-.27,1-.53v-9c-5.31,0-10.45.27-15.54-.1-2.87-.21-5.66-1.47-8.49-2.25v-3.87c2-1.22,3.84-2.95,6-3.58Q183.19,174.6,218,164.91c11.05-3.06,11.1-2.87,11.1-14.5v-29.9H176.52v8.85c2.11,0,4,0,5.87,0,4.16-.06,6.25,1.8,6.15,6.14-.13,5.31,0,10.63,0,15.94,0,4-1.91,5.91-5.92,5.88-7.41,0-14.81,0-22.22,0-4.23,0-6.09-2.23-5.93-6.42.12-3.22,0-6.44,0-9.66.08-9.73-1.9-12.05,11.12-12,.26,0,.52-.29.92-.53v-8.93c-6.15,0-12.08.18-18-.1-2.07-.1-4.08-1.32-6.12-2v-4.84a90.25,90.25,0,0,1,9.28-3.78q38.72-11.22,77.49-22.21a23.25,23.25,0,0,1,6.11-1q35.76-.11,71.53,0a17.54,17.54,0,0,1,4.76.46Q353.31,98.3,395,110.46c3,.87,5,2.38,4.49,5.76s-3,3.64-5.84,3.6c-6.07-.1-12.15,0-18.64,0,0,1.92,0,3.34,0,4.75s.15,3.09.24,4.92c1.81,0,3.24,0,4.67,0,6.11.08,7.28,1.22,7.36,7.41.06,4.83,0,9.67,0,14.5,0,3.9-1.81,6-5.9,5.95-7.41-.06-14.82-.08-22.23,0-4.37,0-6.06-2.13-6-6.29s0-8.38,0-12.57c0-8.47.36-8.82,9-9a26,26,0,0,0,2.69-.35v-8.57H312.71c0,11.91.19,23.48-.1,35-.11,4.49,1.33,6.57,5.75,7.78,25,6.88,49.86,14,74.78,21.14,3.2.91,6.65,2.2,6,6.21s-4.35,3.7-7.4,3.74c-5.43.07-10.87,0-16.5,0v9.88c2,0,3.7,0,5.43,0,5.49,0,6.56,1.06,6.6,6.42,0,5-.07,10,0,15,.09,4.26-1.86,6.21-6.11,6.16-7.41-.07-14.82-.09-22.23,0-3.89,0-5.62-1.84-5.63-5.55,0-5.64,0-11.27,0-16.91,0-3.66,1.88-5.28,5.37-5.33,2.18,0,4.36,0,6.64,0v-8.88H313c0,14.66,0,29,0,43.28a14.38,14.38,0,0,0,.78,3.78c11.12,39,22.32,78,33.28,117,1.31,4.68,2.86,7.14,8.34,6.56,5.86-.62,7,.88,7,6.88.06,3.77,0,7.55,0,11.54,2.9,0,5.06-.35,7,.09,2.16.49,5.17,1.22,5.92,2.77C376.09,388.49,374.25,391.13,373.53,393.23Zm-49.81-27.61c.07-.32.14-.64.2-1-16.82-8.36-33.61-16.79-50.52-25a7.66,7.66,0,0,0-5.86.38c-15.89,7.78-31.68,15.78-47.49,23.74a17,17,0,0,0-2.31,1.81ZM260.57,333l-42.69-21.29c-4.74,16.63-9.29,32.61-14.15,49.68Zm20.72,0,56.79,28.39c-4.89-17.1-9.49-33.21-14.2-49.69Zm30.31-33.07c-13.58-9.48-26-18.26-38.61-26.77-1.1-.75-3.76-.31-5.07.54-6.33,4.1-12.47,8.51-18.65,12.86-6,4.2-11.88,8.45-18.79,13.37ZM249.79,195.13l53.47,35.65V195.13Zm40.86-35.06.44-.87-52.41-34.9v35.78Zm0,74.54.39-.82-52.41-34.92v35.74Zm-41.1-114.27,53.57,35.72V120.34ZM236.29,247.23c-4.37,15.37-8.6,30.23-13.19,46.36l39.72-27.79Zm82.5,46.4c-4.63-16.12-8.9-31-13.32-46.37L279,265.77Zm-13.42,17-.32-.87H236.57c10.77,6.24,21.77,11.73,32.84,17.09a4.15,4.15,0,0,0,3.18-.17C283.55,321.4,294.46,316,305.37,310.63Zm-12.73-65.74H249.12c7,4.84,13,9.13,19.16,13.11,1.21.78,3.64,1.08,4.72.39C279.39,254.29,285.55,249.82,292.64,244.89Z"/></svg>