<svg id="Layer_1" data-name="Layer 1" xmlns="http://www.w3.org/2000/svg" viewBox="0 0 191 191"><defs><style>.cls-1{fill:#28679e;}.cls-2{fill:#7fb9eb;}.cls-3{fill:#225786;}.cls-4{fill:#5c9bd1;}.cls-5{fill:#2e78b8;}</style></defs><title>comunas</title><polygon class="cls-1" points="81.75 83.25 51.72 83.25 51.72 83.25 51.72 113.29 81.75 113.29 81.75 83.25"/><rect class="cls-2" x="18.68" y="83.25" width="30.04" height="30.04"/><rect class="cls-3" x="84.75" y="83.25" width="30.04" height="30.04"/><rect class="cls-4" x="117.79" y="83.25" width="30.04" height="30.04"/><polygon class="cls-3" points="150.83 83.25 150.83 113.29 180.86 113.29 180.86 83.25 150.83 83.25"/><rect class="cls-3" x="117.79" y="116.29" width="30.04" height="30.04"/><rect class="cls-2" x="84.75" y="116.29" width="30.04" height="30.04"/><rect class="cls-1" x="51.72" y="149.32" width="30.04" height="30.04"/><rect class="cls-5" x="18.68" y="116.29" width="30.04" height="30.04"/><polygon class="cls-1" points="147.83 80.25 147.83 80.25 147.83 50.22 117.79 50.22 117.79 80.25 117.79 80.25 147.83 80.25"/><polygon class="cls-1" points="84.75 80.25 84.75 80.25 114.79 80.25 114.79 80.25 114.79 50.22 84.75 50.22 84.75 80.25"/><rect class="cls-4" x="51.72" y="17.18" width="30.04" height="30.04"/><polygon class="cls-5" points="48.72 80.25 48.72 50.22 18.68 50.22 18.68 80.25 48.72 80.25"/><rect class="cls-4" x="51.72" y="116.29" width="30.04" height="30.04"/><rect class="cls-4" x="51.72" y="50.22" width="30.04" height="30.04"/></svg>